<svg width="24" height="24" viewBox="0 0 24 24" fill="none" xmlns="http://www.w3.org/2000/svg">
<rect width="24" height="24" rx="12" fill="white"/>
<g clip-path="url(#clip0_1979_18418)">
<path fill-rule="evenodd" clip-rule="evenodd" d="M18.9814 15.3435L18.4776 15.1496C18.4683 15.146 18.4619 15.1388 18.4596 15.1291C18.3923 14.8532 18.2828 14.5894 18.1352 14.3468C18.1301 14.3383 18.1294 14.3287 18.1335 14.3196L18.3528 13.8259C18.3578 13.8145 18.3555 13.8019 18.3467 13.7932L17.7548 13.2013C17.746 13.1925 17.7334 13.1902 17.7221 13.1952L17.2282 13.4145C17.2191 13.4186 17.2095 13.4179 17.201 13.4128C16.9584 13.2652 16.6947 13.1558 16.4189 13.0885C16.4092 13.0862 16.402 13.0798 16.3984 13.0705L16.2045 12.5665C16.2 12.555 16.1894 12.5477 16.177 12.5477H15.3399C15.3275 12.5477 15.317 12.555 15.3125 12.5665L15.1185 13.0705C15.115 13.0798 15.1078 13.0862 15.0981 13.0885C14.8223 13.1558 14.5585 13.2652 14.316 13.4128C14.3075 13.4179 14.2979 13.4186 14.2888 13.4145L13.7949 13.1952C13.7835 13.1902 13.7709 13.1925 13.7622 13.2013L13.1702 13.7932C13.1615 13.802 13.1591 13.8146 13.1642 13.8259L13.3835 14.3198C13.3875 14.3288 13.3869 14.3384 13.3817 14.3469C13.2342 14.5895 13.1247 14.8533 13.0575 15.1291C13.0551 15.1388 13.0488 15.146 13.0395 15.1496L12.5356 15.3436C12.524 15.348 12.5167 15.3586 12.5167 15.371V16.2081C12.5167 16.2205 12.524 16.2311 12.5356 16.2355L13.0394 16.4294C13.0487 16.433 13.055 16.4402 13.0574 16.4499C13.1247 16.7258 13.2341 16.9896 13.3817 17.2322C13.3869 17.2407 13.3875 17.2503 13.3835 17.2594L13.1642 17.7531C13.1592 17.7645 13.1615 17.7771 13.1702 17.7858L13.7622 18.3778C13.7709 18.3865 13.7835 18.3889 13.7949 18.3838L14.2888 18.1645C14.2979 18.1604 14.3075 18.161 14.316 18.1662C14.5586 18.3137 14.8223 18.4232 15.0981 18.4905C15.1078 18.4928 15.115 18.4992 15.1186 18.5084L15.3126 19.0124C15.317 19.024 15.3276 19.0312 15.34 19.0312H16.1771C16.1895 19.0312 16.2001 19.024 16.2045 19.0124L16.3985 18.5086C16.402 18.4993 16.4093 18.4929 16.4189 18.4906C16.6948 18.4233 16.9586 18.3138 17.2013 18.1663C17.2098 18.1611 17.2194 18.1605 17.2284 18.1645L17.7222 18.3838C17.7335 18.3888 17.7461 18.3865 17.7549 18.3777L18.3468 17.7858C18.3556 17.777 18.3579 17.7644 18.3529 17.7531L18.1335 17.2592C18.1295 17.2501 18.1301 17.2405 18.1353 17.232C18.2828 16.9894 18.3923 16.7257 18.4595 16.4498C18.4619 16.4402 18.4683 16.433 18.4775 16.4294L18.9815 16.2354C18.9931 16.2309 19.0003 16.2204 19.0003 16.208V15.3709C19.0003 15.3586 18.993 15.348 18.9814 15.3435ZM15.7585 17.3356C14.9045 17.3356 14.2124 16.6434 14.2124 15.7895C14.2124 14.9356 14.9045 14.2434 15.7585 14.2434C16.6124 14.2434 17.3046 14.9356 17.3046 15.7895C17.3046 16.6434 16.6125 17.3356 15.7585 17.3356ZM10.6625 8.38102C9.43448 8.38102 8.43897 9.37649 8.43897 10.6045C8.43897 11.8325 9.43445 12.828 10.6625 12.828C11.8905 12.828 12.8859 11.8325 12.8859 10.6045C12.886 9.37649 11.8905 8.38102 10.6625 8.38102ZM11.9536 10.2097L10.6086 11.5548C10.4141 11.7493 10.1539 11.6702 9.98146 11.4977L9.37135 10.8876C9.21877 10.7351 9.2188 10.4854 9.37135 10.3329C9.5239 10.1803 9.77354 10.1803 9.92608 10.3329L10.3235 10.7303L11.3989 9.65496C11.5514 9.50241 11.8011 9.50241 11.9536 9.65496C12.1062 9.80751 12.1062 10.0571 11.9536 10.2097ZM15.3985 9.50936C15.2794 9.00864 15.081 8.53037 14.8111 8.09218L15.2199 7.17179L14.1348 6.08672L13.2141 6.49562C12.776 6.22585 12.2978 6.02739 11.7973 5.90824L11.4357 4.96875H9.90115L9.53948 5.90824C9.03895 6.02736 8.56082 6.22582 8.12269 6.49562L7.20206 6.08675L6.11696 7.17185L6.52583 8.09241C6.25601 8.53055 6.05755 9.0087 5.93843 9.50933L4.99902 9.87094V11.4054L5.93831 11.767C6.05746 12.2677 6.25589 12.746 6.5258 13.1842L6.11702 14.1045L7.20212 15.1896L8.1228 14.7807C8.56094 15.0505 9.03903 15.2489 9.5396 15.3681L9.90124 16.3076H11.4358L11.7973 15.3683C11.8833 15.3478 11.9685 15.325 12.0531 15.2999C12.0784 15.1232 12.1971 14.9715 12.3672 14.9061L12.6664 14.7909C12.7199 14.6253 12.7867 14.4642 12.8661 14.3094L12.7358 14.0161C12.6525 13.8285 12.6937 13.6069 12.8388 13.4617L13.4308 12.8698C13.5759 12.7246 13.7975 12.6834 13.9852 12.7668L14.2785 12.897C14.4333 12.8177 14.5944 12.7509 14.76 12.6974L14.8751 12.3981C14.946 12.2142 15.1176 12.0903 15.3128 12.0797C15.3447 11.9766 15.3733 11.8723 15.3984 11.767L16.3379 11.4054V9.87085L15.3985 9.50936ZM10.6684 14.071C8.77252 14.071 7.23561 12.5341 7.23561 10.6381C7.23561 8.74225 8.77252 7.20533 10.6684 7.20533C12.5643 7.20533 14.1012 8.74225 14.1012 10.6381C14.1012 12.5341 12.5643 14.071 10.6684 14.071Z" fill="#45A8A8"/>
</g>
<defs>
<clipPath id="clip0_1979_18418">
<rect width="15" height="15" fill="white" transform="translate(4.5 4.5)"/>
</clipPath>
</defs>
</svg>
