<svg width="302" height="55" viewBox="0 0 302 55" fill="none" xmlns="http://www.w3.org/2000/svg">
<g filter="url(#filter0_d_770_3267)">
<mask id="path-1-inside-1_770_3267" fill="white">
<path fill-rule="evenodd" clip-rule="evenodd" d="M2 5C2 2.79086 3.79087 1 6.00001 1H281.788C283.164 1 284.444 1.70792 285.176 2.87403L298.666 24.374C299.482 25.674 299.482 27.326 298.666 28.626L285.176 50.126C284.444 51.2921 283.164 52 281.788 52H6C3.79086 52 2 50.2091 2 48V5Z"/>
</mask>
<path fill-rule="evenodd" clip-rule="evenodd" d="M2 5C2 2.79086 3.79087 1 6.00001 1H281.788C283.164 1 284.444 1.70792 285.176 2.87403L298.666 24.374C299.482 25.674 299.482 27.326 298.666 28.626L285.176 50.126C284.444 51.2921 283.164 52 281.788 52H6C3.79086 52 2 50.2091 2 48V5Z" fill="#E6F6EE"/>
<path d="M298.666 24.374L299.513 23.8426L299.513 23.8425L298.666 24.374ZM298.666 28.626L299.513 29.1575L299.513 29.1574L298.666 28.626ZM285.176 50.126L284.329 49.5945L285.176 50.126ZM285.176 2.87403L284.329 3.40553L285.176 2.87403ZM281.788 0H6.00001V2H281.788V0ZM284.329 3.40553L297.819 24.9055L299.513 23.8425L286.023 2.34254L284.329 3.40553ZM297.819 24.9055C298.431 25.8805 298.431 27.1195 297.819 28.0945L299.513 29.1574C300.533 27.5325 300.533 25.4675 299.513 23.8426L297.819 24.9055ZM297.819 28.0945L284.329 49.5945L286.023 50.6575L299.513 29.1575L297.819 28.0945ZM6 53H281.788V51H6V53ZM1 5V48H3V5H1ZM284.329 49.5945C283.78 50.4691 282.82 51 281.788 51V53C283.508 53 285.108 52.1151 286.023 50.6575L284.329 49.5945ZM6.00001 0C3.23858 0 1 2.23857 1 5H3C3 3.34315 4.34315 2 6.00001 2V0ZM6 51C4.34315 51 3 49.6569 3 48H1C1 50.7614 3.23858 53 6 53V51ZM281.788 2C282.82 2 283.78 2.53094 284.329 3.40553L286.023 2.34254C285.108 0.8849 283.508 0 281.788 0V2Z" fill="#45A845" mask="url(#path-1-inside-1_770_3267)"/>
</g>
<defs>
<filter id="filter0_d_770_3267" x="0" y="0" width="301.278" height="55" filterUnits="userSpaceOnUse" color-interpolation-filters="sRGB">
<feFlood flood-opacity="0" result="BackgroundImageFix"/>
<feColorMatrix in="SourceAlpha" type="matrix" values="0 0 0 0 0 0 0 0 0 0 0 0 0 0 0 0 0 0 127 0" result="hardAlpha"/>
<feOffset dy="1"/>
<feGaussianBlur stdDeviation="1"/>
<feColorMatrix type="matrix" values="0 0 0 0 0.215686 0 0 0 0 0.254902 0 0 0 0 0.317647 0 0 0 0.08 0"/>
<feBlend mode="normal" in2="BackgroundImageFix" result="effect1_dropShadow_770_3267"/>
<feBlend mode="normal" in="SourceGraphic" in2="effect1_dropShadow_770_3267" result="shape"/>
</filter>
</defs>
</svg>
