<svg width="16" height="16" viewBox="0 0 16 16" fill="none" xmlns="http://www.w3.org/2000/svg">
<g id="Completed 1" clip-path="url(#clip0_168_3201)">
<g id="Clip path group">
<mask id="mask0_168_3201" style="mask-type:luminance" maskUnits="userSpaceOnUse" x="0" y="0" width="16" height="16">
<g id="clip0_583_7073">
<path id="Vector" d="M15.6075 0.158203H0.15918V15.6065H15.6075V0.158203Z" fill="white"/>
</g>
</mask>
<g mask="url(#mask0_168_3201)">
<g id="Group">
<path id="Vector_2" d="M7.88333 0.158203C3.6244 0.158203 0.15918 3.62342 0.15918 7.88236C0.15918 12.1413 3.6244 15.6065 7.88333 15.6065C12.1422 15.6065 15.6075 12.1413 15.6075 7.88236C15.6075 3.62342 12.1422 0.158203 7.88333 0.158203ZM12.2003 5.8497L7.26385 10.7474C6.97348 11.0378 6.50887 11.0571 6.19913 10.7668L3.58568 8.38564C3.27594 8.09527 3.25658 7.6113 3.5276 7.30156C3.81798 6.99182 4.30195 6.97246 4.61169 7.26289L6.68305 9.16004L11.0968 4.74622C11.4066 4.43649 11.8906 4.43649 12.2003 4.74622C12.51 5.05597 12.51 5.53991 12.2003 5.8497Z" fill="#05A155"/>
</g>
</g>
</g>
</g>
<defs>
<clipPath id="clip0_168_3201">
<rect width="16" height="16" fill="white"/>
</clipPath>
</defs>
</svg>
