<svg width="32" height="32" viewBox="0 0 32 32" fill="none" xmlns="http://www.w3.org/2000/svg">
<rect width="32" height="32" rx="5" fill="#E9EBEE"/>
<path d="M16.0002 11.5001C15.1102 11.5001 14.2401 11.764 13.5001 12.2585C12.7601 12.753 12.1833 13.4558 11.8427 14.278C11.5021 15.1003 11.413 16.0051 11.5866 16.878C11.7603 17.7509 12.1889 18.5527 12.8182 19.1821C13.4475 19.8114 14.2494 20.24 15.1223 20.4136C15.9952 20.5873 16.9 20.4982 17.7223 20.1576C18.5445 19.817 19.2473 19.2402 19.7418 18.5002C20.2363 17.7601 20.5002 16.8901 20.5002 16.0001C20.4989 14.807 20.0244 13.6631 19.1808 12.8195C18.3371 11.9758 17.1933 11.5013 16.0002 11.5001ZM16.0002 19.0001C15.4068 19.0001 14.8268 18.8242 14.3335 18.4945C13.8401 18.1649 13.4556 17.6963 13.2285 17.1482C13.0015 16.6 12.9421 15.9968 13.0578 15.4148C13.1736 14.8329 13.4593 14.2983 13.8789 13.8788C14.2984 13.4592 14.833 13.1735 15.4149 13.0577C15.9969 12.942 16.6 13.0014 17.1482 13.2285C17.6964 13.4555 18.1649 13.84 18.4946 14.3334C18.8242 14.8267 19.0002 15.4068 19.0002 16.0001C19.0002 16.7958 18.6841 17.5588 18.1215 18.1214C17.5589 18.684 16.7958 19.0001 16.0002 19.0001ZM26.3071 14.051C26.2862 13.9454 26.2428 13.8455 26.1799 13.7582C26.1169 13.6708 26.0359 13.5981 25.9424 13.5448L23.1458 11.951L23.1346 8.79917C23.1342 8.69062 23.1103 8.58344 23.0645 8.48502C23.0187 8.38661 22.9521 8.29932 22.8692 8.22917C21.8548 7.37107 20.6866 6.71348 19.4267 6.29135C19.3275 6.25777 19.2224 6.24535 19.1181 6.25487C19.0138 6.2644 18.9126 6.29567 18.8211 6.34667L16.0002 7.92354L13.1764 6.34385C13.0849 6.29257 12.9836 6.26106 12.8791 6.25137C12.7746 6.24168 12.6693 6.25403 12.5699 6.2876C11.3109 6.71281 10.1441 7.37291 9.13112 8.23292C9.0484 8.30296 8.98185 8.39011 8.93604 8.48835C8.89024 8.58659 8.86628 8.69359 8.8658 8.80198L8.85174 11.9567L6.05518 13.5504C5.96162 13.6037 5.88062 13.6765 5.81769 13.7638C5.75476 13.8512 5.71138 13.9511 5.69049 14.0567C5.43455 15.3428 5.43455 16.6668 5.69049 17.9529C5.71138 18.0585 5.75476 18.1584 5.81769 18.2458C5.88062 18.3331 5.96162 18.4059 6.05518 18.4592L8.85174 20.0529L8.86299 23.2048C8.86333 23.3133 8.88723 23.4205 8.93304 23.5189C8.97884 23.6173 9.04547 23.7046 9.1283 23.7748C10.1427 24.6329 11.3109 25.2905 12.5708 25.7126C12.67 25.7462 12.7752 25.7586 12.8795 25.7491C12.9838 25.7396 13.0849 25.7083 13.1764 25.6573L16.0002 24.0767L18.8239 25.6564C18.9357 25.7186 19.0616 25.7509 19.1896 25.7501C19.2715 25.7501 19.3528 25.7368 19.4305 25.7107C20.6893 25.2861 21.8561 24.6266 22.8692 23.7673C22.952 23.6972 23.0185 23.6101 23.0643 23.5119C23.1101 23.4136 23.1341 23.3066 23.1346 23.1982L23.1486 20.0435L25.9452 18.4498C26.0387 18.3965 26.1197 18.3237 26.1827 18.2364C26.2456 18.149 26.289 18.0492 26.3099 17.9435C26.5644 16.6584 26.5634 15.3358 26.3071 14.051ZM24.9008 17.3239L22.2224 18.8473C22.105 18.914 22.0078 19.0112 21.9411 19.1285C21.8867 19.2223 21.8296 19.3217 21.7714 19.4154C21.697 19.5336 21.6574 19.6704 21.6571 19.8101L21.643 22.8335C20.9231 23.3989 20.121 23.851 19.2646 24.1742L16.5627 22.6685C16.4505 22.6065 16.3243 22.5742 16.1961 22.5748H16.1783C16.0649 22.5748 15.9505 22.5748 15.8371 22.5748C15.7029 22.5714 15.5702 22.6038 15.4527 22.6685L12.7489 24.1779C11.8907 23.8572 11.0864 23.4073 10.3639 22.8439L10.3536 19.8251C10.3532 19.6851 10.3135 19.5481 10.2392 19.4295C10.1811 19.3357 10.1239 19.242 10.0705 19.1426C10.0042 19.0234 9.90707 18.9243 9.78924 18.8557L7.10799 17.3285C6.96924 16.4509 6.96924 15.5568 7.10799 14.6792L9.78174 13.1529C9.89909 13.0862 9.99626 12.989 10.063 12.8717C10.1174 12.7779 10.1746 12.6785 10.2327 12.5848C10.3071 12.4666 10.3467 12.3298 10.3471 12.1901L10.3611 9.16667C11.081 8.6013 11.8831 8.14922 12.7396 7.82604L15.4377 9.33167C15.5551 9.39676 15.6878 9.42913 15.8221 9.42542C15.9355 9.42542 16.0499 9.42542 16.1633 9.42542C16.2975 9.42877 16.4301 9.39642 16.5477 9.33167L19.2514 7.82229C20.1097 8.14299 20.914 8.59286 21.6364 9.15635L21.6467 12.1751C21.6472 12.3151 21.6868 12.4521 21.7611 12.5707C21.8192 12.6645 21.8764 12.7582 21.9299 12.8576C21.9961 12.9768 22.0933 13.0759 22.2111 13.1445L24.8924 14.6717C25.033 15.55 25.0345 16.445 24.8971 17.3239H24.9008Z" fill="black"/>
</svg>
