<svg width="21" height="22" viewBox="0 0 21 22" fill="none" xmlns="http://www.w3.org/2000/svg">
<path d="M10.125 2.875C8.51803 2.875 6.94714 3.35152 5.611 4.24431C4.27485 5.1371 3.23344 6.40605 2.61848 7.8907C2.00352 9.37535 1.84262 11.009 2.15612 12.5851C2.46963 14.1612 3.24346 15.6089 4.37976 16.7452C5.51606 17.8815 6.9638 18.6554 8.53989 18.9689C10.116 19.2824 11.7497 19.1215 13.2343 18.5065C14.719 17.8916 15.9879 16.8502 16.8807 15.514C17.7735 14.1779 18.25 12.607 18.25 11C18.2477 8.84581 17.391 6.78051 15.8677 5.25727C14.3445 3.73403 12.2792 2.87727 10.125 2.875ZM10.125 17.875C8.76526 17.875 7.43605 17.4718 6.30546 16.7164C5.17487 15.9609 4.29368 14.8872 3.77333 13.6309C3.25298 12.3747 3.11683 10.9924 3.3821 9.65875C3.64738 8.32513 4.30216 7.10013 5.26364 6.13864C6.22513 5.17715 7.45014 4.52237 8.78376 4.2571C10.1174 3.99183 11.4997 4.12798 12.756 4.64833C14.0122 5.16868 15.0859 6.04987 15.8414 7.18045C16.5968 8.31104 17 9.64025 17 11C16.9979 12.8227 16.2729 14.5702 14.9841 15.8591C13.6952 17.1479 11.9477 17.8729 10.125 17.875ZM11.375 14.75C11.375 14.9158 11.3092 15.0747 11.1919 15.1919C11.0747 15.3092 10.9158 15.375 10.75 15.375C10.4185 15.375 10.1005 15.2433 9.86612 15.0089C9.6317 14.7745 9.5 14.4565 9.5 14.125V11C9.33424 11 9.17527 10.9342 9.05806 10.8169C8.94085 10.6997 8.875 10.5408 8.875 10.375C8.875 10.2092 8.94085 10.0503 9.05806 9.93306C9.17527 9.81585 9.33424 9.75 9.5 9.75C9.83152 9.75 10.1495 9.8817 10.3839 10.1161C10.6183 10.3505 10.75 10.6685 10.75 11V14.125C10.9158 14.125 11.0747 14.1908 11.1919 14.3081C11.3092 14.4253 11.375 14.5842 11.375 14.75ZM8.875 7.5625C8.875 7.37708 8.92999 7.19582 9.033 7.04165C9.13601 6.88748 9.28243 6.76732 9.45374 6.69636C9.62504 6.62541 9.81354 6.60684 9.9954 6.64301C10.1773 6.67919 10.3443 6.76848 10.4754 6.89959C10.6065 7.0307 10.6958 7.19775 10.732 7.3796C10.7682 7.56146 10.7496 7.74996 10.6786 7.92127C10.6077 8.09257 10.4875 8.23899 10.3334 8.342C10.1792 8.44502 9.99792 8.5 9.8125 8.5C9.56386 8.5 9.32541 8.40123 9.14959 8.22541C8.97378 8.0496 8.875 7.81114 8.875 7.5625Z" fill="#D94841"/>
</svg>
