<svg width="20" height="20" viewBox="0 0 20 20" fill="none" xmlns="http://www.w3.org/2000/svg">
<g clip-path="url(#clip0_727_3617)">
<path d="M19.3923 7.84907C18.0998 5.74407 15.1598 2.2124 9.9998 2.2124C4.8398 2.2124 1.8998 5.74407 0.607298 7.84907C0.207739 8.49532 -0.00390625 9.2401 -0.00390625 9.9999C-0.00390625 10.7597 0.207739 11.5045 0.607298 12.1507C1.8998 14.2557 4.8398 17.7874 9.9998 17.7874C15.1598 17.7874 18.0998 14.2557 19.3923 12.1507C19.7919 11.5045 20.0035 10.7597 20.0035 9.9999C20.0035 9.2401 19.7919 8.49532 19.3923 7.84907ZM17.9715 11.2782C16.8615 13.0832 14.349 16.1207 9.9998 16.1207C5.65063 16.1207 3.13813 13.0832 2.02813 11.2782C1.79074 10.8941 1.66501 10.4515 1.66501 9.9999C1.66501 9.54834 1.79074 9.1057 2.02813 8.72157C3.13813 6.91657 5.65063 3.87907 9.9998 3.87907C14.349 3.87907 16.8615 6.91324 17.9715 8.72157C18.2089 9.1057 18.3346 9.54834 18.3346 9.9999C18.3346 10.4515 18.2089 10.8941 17.9715 11.2782Z" fill="#D94841"/>
<path d="M10.0002 5.83344C9.17608 5.83344 8.37049 6.07781 7.68529 6.53564C7.00008 6.99348 6.46603 7.64423 6.15067 8.40559C5.8353 9.16695 5.75279 10.0047 5.91356 10.813C6.07433 11.6212 6.47117 12.3637 7.05389 12.9464C7.63661 13.5291 8.37903 13.9259 9.18729 14.0867C9.99554 14.2475 10.8333 14.165 11.5947 13.8496C12.356 13.5342 13.0068 13.0002 13.4646 12.315C13.9225 11.6298 14.1668 10.8242 14.1668 10.0001C14.1655 8.89544 13.7261 7.8364 12.945 7.05529C12.1639 6.27417 11.1048 5.83476 10.0002 5.83344ZM10.0002 12.5001C9.50571 12.5001 9.02236 12.3535 8.61124 12.0788C8.20012 11.8041 7.87968 11.4136 7.69047 10.9568C7.50125 10.5 7.45174 9.99733 7.5482 9.51238C7.64466 9.02742 7.88277 8.58197 8.2324 8.23233C8.58203 7.8827 9.02749 7.6446 9.51244 7.54814C9.99739 7.45168 10.5001 7.50118 10.9569 7.6904C11.4137 7.87962 11.8041 8.20005 12.0788 8.61118C12.3535 9.0223 12.5002 9.50565 12.5002 10.0001C12.5002 10.6631 12.2368 11.299 11.7679 11.7679C11.2991 12.2367 10.6632 12.5001 10.0002 12.5001Z" fill="#D94841"/>
</g>
<defs>
<clipPath id="clip0_727_3617">
<rect width="20" height="20" fill="white"/>
</clipPath>
</defs>
</svg>
