<svg width="68" height="24" viewBox="0 0 68 24" fill="none" xmlns="http://www.w3.org/2000/svg">
<path d="M16.28 13.7725V4.29595C16.28 1.92338 14.3656 0 11.9914 0C9.61911 0 7.70774 1.848 7.70774 4.22057V13.7143C6.6497 14.7994 5.98633 16.3542 5.98633 17.9897C5.98633 21.3078 8.67872 24 12.0001 24C15.3199 24 18.014 21.3077 18.014 17.9897C18.014 16.3457 17.3443 14.8594 16.28 13.7725ZM12.0001 22.2857C9.62961 22.2857 7.70061 20.3585 7.70061 17.9897C7.70061 16.8548 8.16224 15.7038 8.93527 14.911L9.42202 14.4117V13.7143V4.22057C9.42202 2.81518 10.5508 1.71429 11.9914 1.71429C13.411 1.71429 14.5657 2.87239 14.5657 4.29595V13.7726V14.4723L15.0554 14.9721C15.8577 15.7914 16.2996 16.8631 16.2996 17.9897C16.2997 20.3585 14.3711 22.2857 12.0001 22.2857Z" fill="black"/>
<path d="M12.8573 15.5291C12.8573 11.4998 12.8573 12.3682 12.8573 7.71387H11.143C11.143 12.3754 11.143 11.4935 11.143 15.5292C10.2856 16.028 9.42871 16.6137 9.42871 17.9893C9.42871 19.4071 10.5822 20.5607 12.0001 20.5607C13.4181 20.5607 14.5716 19.4071 14.5716 17.9893C14.5716 16.6138 13.7146 16.028 12.8573 15.5291Z" fill="black"/>
<path d="M32.9602 18.1591C32.2481 18.1591 31.608 18.0227 31.0398 17.75C30.4754 17.4735 30.0246 17.0947 29.6875 16.6136C29.3504 16.1326 29.1705 15.5833 29.1477 14.9659H30.8523C30.8939 15.4659 31.1155 15.8769 31.517 16.1989C31.9186 16.5208 32.3996 16.6818 32.9602 16.6818C33.4072 16.6818 33.803 16.5795 34.1477 16.375C34.4962 16.1667 34.7689 15.8807 34.9659 15.517C35.1667 15.1534 35.267 14.7386 35.267 14.2727C35.267 13.7992 35.1648 13.3769 34.9602 13.0057C34.7557 12.6345 34.4735 12.3428 34.1136 12.1307C33.7576 11.9186 33.3485 11.8106 32.8864 11.8068C32.5341 11.8068 32.1799 11.8674 31.8239 11.9886C31.4678 12.1098 31.1799 12.2689 30.9602 12.4659L29.3523 12.2273L30.0057 6.36364H36.4034V7.86932H31.4659L31.0966 11.125H31.1648C31.392 10.9053 31.6932 10.7216 32.0682 10.5739C32.447 10.4261 32.8523 10.3523 33.2841 10.3523C33.9924 10.3523 34.6231 10.5208 35.1761 10.858C35.733 11.1951 36.1705 11.6553 36.4886 12.2386C36.8106 12.8182 36.9697 13.4848 36.9659 14.2386C36.9697 14.9924 36.7992 15.6648 36.4545 16.2557C36.1136 16.8466 35.6402 17.3125 35.0341 17.6534C34.4318 17.9905 33.7405 18.1591 32.9602 18.1591ZM43.0923 18.1932C42.1946 18.1894 41.4276 17.9527 40.7912 17.483C40.1548 17.0133 39.6681 16.3295 39.331 15.4318C38.9938 14.5341 38.8253 13.4527 38.8253 12.1875C38.8253 10.9261 38.9938 9.84848 39.331 8.95455C39.6719 8.06061 40.1605 7.37879 40.7969 6.90909C41.437 6.43939 42.2022 6.20455 43.0923 6.20455C43.9825 6.20455 44.7457 6.44129 45.3821 6.91477C46.0185 7.38447 46.5052 8.06629 46.8423 8.96023C47.1832 9.85038 47.3537 10.9261 47.3537 12.1875C47.3537 13.4564 47.1851 14.5398 46.848 15.4375C46.5109 16.3314 46.0241 17.0152 45.3878 17.4886C44.7514 17.9583 43.9863 18.1932 43.0923 18.1932ZM43.0923 16.6761C43.8802 16.6761 44.4957 16.2917 44.9389 15.5227C45.3859 14.7538 45.6094 13.642 45.6094 12.1875C45.6094 11.2216 45.5071 10.4053 45.3026 9.73864C45.1018 9.06818 44.812 8.56061 44.4332 8.21591C44.0582 7.86742 43.6113 7.69318 43.0923 7.69318C42.3082 7.69318 41.6927 8.07954 41.2457 8.85227C40.7988 9.625 40.5734 10.7367 40.5696 12.1875C40.5696 13.1572 40.67 13.9773 40.8707 14.6477C41.0753 15.3144 41.3651 15.8201 41.7401 16.1648C42.1151 16.5057 42.5658 16.6761 43.0923 16.6761ZM51.8977 11.625C51.4053 11.625 50.9564 11.5057 50.5511 11.267C50.1496 11.0246 49.8277 10.7008 49.5852 10.2955C49.3466 9.89015 49.2273 9.44129 49.2273 8.94886C49.2273 8.45644 49.3466 8.00947 49.5852 7.60795C49.8277 7.20265 50.1496 6.88068 50.5511 6.64205C50.9564 6.39962 51.4053 6.27841 51.8977 6.27841C52.3902 6.27841 52.839 6.39962 53.2443 6.64205C53.6496 6.88068 53.9716 7.20265 54.2102 7.60795C54.4527 8.00947 54.5739 8.45644 54.5739 8.94886C54.5739 9.44129 54.4527 9.89015 54.2102 10.2955C53.9716 10.7008 53.6496 11.0246 53.2443 11.267C52.839 11.5057 52.3902 11.625 51.8977 11.625ZM51.8977 10.3295C52.1553 10.3295 52.3883 10.267 52.5966 10.142C52.8049 10.017 52.9697 9.85038 53.0909 9.64205C53.2159 9.43371 53.2784 9.20265 53.2784 8.94886C53.2784 8.69508 53.2159 8.46402 53.0909 8.25568C52.9697 8.04735 52.8049 7.88258 52.5966 7.76136C52.3883 7.63636 52.1553 7.57386 51.8977 7.57386C51.6439 7.57386 51.4129 7.63636 51.2045 7.76136C50.9962 7.88258 50.8295 8.04735 50.7045 8.25568C50.5833 8.46402 50.5227 8.69508 50.5227 8.94886C50.5227 9.20265 50.5833 9.43371 50.7045 9.64205C50.8295 9.85038 50.9962 10.017 51.2045 10.142C51.4129 10.267 51.6439 10.3295 51.8977 10.3295ZM66.2713 10.1477H64.4986C64.4304 9.76894 64.3035 9.43561 64.1179 9.14773C63.9323 8.85985 63.705 8.61553 63.4361 8.41477C63.1671 8.21401 62.866 8.0625 62.5327 7.96023C62.2031 7.85795 61.8527 7.80682 61.4815 7.80682C60.8111 7.80682 60.2107 7.97538 59.6804 8.3125C59.1539 8.64962 58.7372 9.14394 58.4304 9.79545C58.1274 10.447 57.9759 11.2424 57.9759 12.1818C57.9759 13.1288 58.1274 13.928 58.4304 14.5795C58.7372 15.2311 59.1558 15.7235 59.6861 16.0568C60.2164 16.3902 60.813 16.5568 61.4759 16.5568C61.8433 16.5568 62.1918 16.5076 62.5213 16.4091C62.8546 16.3068 63.1558 16.1572 63.4247 15.9602C63.6937 15.7633 63.9209 15.5227 64.1065 15.2386C64.2959 14.9508 64.4266 14.6212 64.4986 14.25L66.2713 14.2557C66.1766 14.8277 65.9929 15.3542 65.7202 15.8352C65.4512 16.3125 65.1046 16.7254 64.6804 17.0739C64.2599 17.4186 63.7789 17.6856 63.2372 17.875C62.6955 18.0644 62.1046 18.1591 61.4645 18.1591C60.4569 18.1591 59.5592 17.9205 58.7713 17.4432C57.9834 16.9621 57.3622 16.2746 56.9077 15.3807C56.4569 14.4867 56.2315 13.4205 56.2315 12.1818C56.2315 10.9394 56.4588 9.87311 56.9134 8.98295C57.3679 8.08901 57.9891 7.40341 58.777 6.92614C59.5649 6.44508 60.4607 6.20455 61.4645 6.20455C62.0819 6.20455 62.6577 6.29356 63.1918 6.47159C63.7296 6.64583 64.2126 6.90341 64.6406 7.24432C65.0687 7.58144 65.4228 7.99432 65.7031 8.48295C65.9834 8.9678 66.1728 9.52273 66.2713 10.1477Z" fill="#35353D"/>
</svg>
