<svg xmlns="http://www.w3.org/2000/svg" width="25" height="24" viewBox="0 0 25 24" fill="none">
  <path d="M12.4997 7.49998C11.6097 7.49998 10.7396 7.7639 9.99962 8.25837C9.2596 8.75284 8.68283 9.45564 8.34223 10.2779C8.00164 11.1002 7.91252 12.005 8.08616 12.8779C8.25979 13.7508 8.68837 14.5526 9.31771 15.182C9.94705 15.8113 10.7489 16.2399 11.6218 16.4135C12.4947 16.5871 13.3995 16.498 14.2218 16.1574C15.044 15.8168 15.7468 15.2401 16.2413 14.5C16.7358 13.76 16.9997 12.89 16.9997 12C16.9984 10.8069 16.5239 9.66302 15.6803 8.81937C14.8367 7.97573 13.6928 7.50122 12.4997 7.49998ZM12.4997 15C11.9063 15 11.3263 14.824 10.833 14.4944C10.3396 14.1647 9.95511 13.6962 9.72805 13.148C9.50099 12.5999 9.44158 11.9967 9.55733 11.4147C9.67309 10.8328 9.95881 10.2982 10.3784 9.87866C10.7979 9.4591 11.3325 9.17338 11.9144 9.05763C12.4964 8.94187 13.0996 9.00128 13.6477 9.22834C14.1959 9.45541 14.6645 9.83992 14.9941 10.3333C15.3237 10.8266 15.4997 11.4066 15.4997 12C15.4997 12.7956 15.1836 13.5587 14.621 14.1213C14.0584 14.6839 13.2953 15 12.4997 15ZM22.8066 10.0509C22.7857 9.94531 22.7423 9.84543 22.6794 9.75807C22.6164 9.67072 22.5354 9.59793 22.4419 9.54467L19.6453 7.95092L19.6341 4.79904C19.6337 4.6905 19.6098 4.58331 19.564 4.4849C19.5182 4.38649 19.4516 4.29919 19.3688 4.22904C18.3543 3.37095 17.1861 2.71336 15.9263 2.29123C15.827 2.25765 15.7219 2.24522 15.6176 2.25475C15.5133 2.26428 15.4121 2.29555 15.3206 2.34654L12.4997 3.92342L9.67594 2.34373C9.5844 2.29245 9.48311 2.26094 9.37863 2.25125C9.27414 2.24156 9.16879 2.2539 9.06938 2.28748C7.81045 2.71269 6.64359 3.37279 5.63063 4.23279C5.54791 4.30284 5.48136 4.38999 5.43556 4.48823C5.38975 4.58647 5.36579 4.69347 5.36532 4.80186L5.35125 7.95654L2.55469 9.55029C2.46113 9.60356 2.38013 9.67634 2.3172 9.7637C2.25428 9.85105 2.21089 9.95093 2.19 10.0565C1.93406 11.3427 1.93406 12.6667 2.19 13.9528C2.21089 14.0584 2.25428 14.1583 2.3172 14.2456C2.38013 14.333 2.46113 14.4058 2.55469 14.459L5.35125 16.0528L5.3625 19.2047C5.36284 19.3132 5.38674 19.4204 5.43255 19.5188C5.47835 19.6172 5.54498 19.7045 5.62782 19.7747C6.64226 20.6328 7.81046 21.2904 9.07031 21.7125C9.16953 21.7461 9.27468 21.7585 9.37899 21.749C9.48329 21.7394 9.58445 21.7082 9.67594 21.6572L12.4997 20.0765L15.3234 21.6562C15.4352 21.7185 15.5611 21.7508 15.6891 21.75C15.771 21.75 15.8523 21.7367 15.93 21.7106C17.1888 21.286 18.3556 20.6265 19.3688 19.7672C19.4515 19.6971 19.518 19.61 19.5638 19.5117C19.6096 19.4135 19.6336 19.3065 19.6341 19.1981L19.6481 16.0434L22.4447 14.4497C22.5383 14.3964 22.6192 14.3236 22.6822 14.2363C22.7451 14.1489 22.7885 14.049 22.8094 13.9434C23.0639 12.6583 23.0629 11.3357 22.8066 10.0509ZM21.4003 13.3237L18.7219 14.8472C18.6045 14.9139 18.5074 15.0111 18.4406 15.1284C18.3863 15.2222 18.3291 15.3215 18.2709 15.4153C18.1965 15.5335 18.1569 15.6703 18.1566 15.81L18.1425 18.8334C17.4226 19.3988 16.6205 19.8509 15.7641 20.174L13.0622 18.6684C12.95 18.6064 12.8238 18.5741 12.6956 18.5747H12.6778C12.5644 18.5747 12.45 18.5747 12.3366 18.5747C12.2024 18.5713 12.0697 18.6037 11.9522 18.6684L9.24844 20.1778C8.39017 19.8571 7.5859 19.4072 6.86344 18.8437L6.85313 15.825C6.85266 15.685 6.81305 15.548 6.73875 15.4294C6.68063 15.3356 6.62344 15.2419 6.57 15.1425C6.50374 15.0233 6.40659 14.9242 6.28875 14.8556L3.6075 13.3284C3.46875 12.4507 3.46875 11.5567 3.6075 10.679L6.28125 9.15279C6.39861 9.08607 6.49577 8.9889 6.5625 8.87154C6.61688 8.77779 6.67407 8.67842 6.73219 8.58467C6.80659 8.46644 6.84623 8.32967 6.84656 8.18998L6.86063 5.16654C7.58056 4.60118 8.38262 4.14909 9.23907 3.82592L11.9372 5.33154C12.0546 5.39663 12.1874 5.42901 12.3216 5.42529C12.435 5.42529 12.5494 5.42529 12.6628 5.42529C12.797 5.42865 12.9296 5.39629 13.0472 5.33154L15.7509 3.82217C16.6092 4.14286 17.4135 4.59274 18.1359 5.15623L18.1463 8.17498C18.1467 8.31495 18.1863 8.45199 18.2606 8.57061C18.3188 8.66436 18.3759 8.75811 18.4294 8.85748C18.4956 8.97665 18.5928 9.07575 18.7106 9.14436L21.3919 10.6715C21.5325 11.5499 21.5341 12.4449 21.3966 13.3237H21.4003Z" fill="black"/>
</svg>