<svg width="76" height="56" viewBox="0 0 76 56" fill="none" xmlns="http://www.w3.org/2000/svg">
<path d="M2.15248 49.2635V52.9443H0V42.4964H4.07358C4.85688 42.4964 5.5489 42.6407 6.14327 42.9273C6.73765 43.2138 7.19616 43.6235 7.5167 44.15C7.83724 44.6785 7.99645 45.2814 7.99645 45.9543C7.99645 46.9774 7.64619 47.7861 6.94568 48.3763C6.24517 48.9664 5.27719 49.2635 4.03749 49.2635H2.15248ZM2.15248 47.5187H4.07358C4.64248 47.5187 5.07765 47.385 5.37696 47.1175C5.67627 46.85 5.82486 46.4658 5.82486 45.9691C5.82486 45.4575 5.67414 45.0436 5.37271 44.7273C5.07128 44.411 4.65522 44.2497 4.1224 44.2412H2.15248V47.5187ZM12.9128 53.0887C11.7728 53.0887 10.8473 52.7384 10.1319 52.04C9.41657 51.3417 9.05995 50.4119 9.05995 49.2487V49.047C9.05995 48.268 9.20854 47.5718 9.50997 46.9562C9.81141 46.3406 10.2402 45.8672 10.7921 45.5361C11.344 45.2028 11.9745 45.0372 12.6814 45.0372C13.7449 45.0372 14.5791 45.3726 15.1905 46.0413C15.7997 46.7121 16.1054 47.6588 16.1054 48.8878V49.7348H11.1615C11.2294 50.2421 11.4311 50.6497 11.7686 50.9553C12.1061 51.261 12.5328 51.416 13.0486 51.416C13.8468 51.416 14.473 51.1273 14.9209 50.5457L15.9398 51.6877C15.6278 52.1271 15.2096 52.4709 14.6768 52.7172C14.1461 52.9655 13.5581 53.0887 12.9128 53.0887ZM12.675 46.7163C12.2632 46.7163 11.9299 46.8564 11.6752 47.1324C11.4183 47.4083 11.2549 47.8052 11.1827 48.3232H14.0675V48.1576C14.0591 47.6991 13.9338 47.3425 13.6939 47.0941C13.4562 46.8415 13.1144 46.7163 12.675 46.7163ZM20.854 53.0887C19.7162 53.0887 18.7886 52.7384 18.0732 52.04C17.36 51.3417 17.0012 50.4119 17.0012 49.2487V49.047C17.0012 48.268 17.1519 47.5718 17.4534 46.9562C17.7527 46.3406 18.1815 45.8672 18.7334 45.5361C19.2874 45.2028 19.9158 45.0372 20.6226 45.0372C21.6861 45.0372 22.5225 45.3726 23.1317 46.0413C23.741 46.7121 24.0467 47.6588 24.0467 48.8878V49.7348H19.1027C19.1707 50.2421 19.3723 50.6497 19.7098 50.9553C20.0474 51.261 20.474 51.416 20.9899 51.416C21.7902 51.416 22.4143 51.1273 22.8622 50.5457L23.8811 51.6877C23.569 52.1271 23.1508 52.4709 22.6202 52.7172C22.0873 52.9655 21.4993 53.0887 20.854 53.0887ZM20.6163 46.7163C20.2045 46.7163 19.8712 46.8564 19.6164 47.1324C19.3596 47.4083 19.1961 47.8052 19.124 48.3232H22.0088V48.1576C22.0003 47.6991 21.8751 47.3425 21.6352 47.0941C21.3974 46.8415 21.0578 46.7163 20.6163 46.7163ZM32.2108 49.1341C32.2108 50.3313 31.9391 51.2886 31.3957 52.0082C30.8544 52.7278 30.1199 53.0887 29.1965 53.0887C28.4132 53.0887 27.7785 52.817 27.2966 52.2693V55.9288H25.2227V45.1816H27.1459L27.2181 45.9415C27.7212 45.3366 28.375 45.0372 29.1816 45.0372C30.139 45.0372 30.8841 45.3917 31.4148 46.0986C31.9455 46.8076 32.2108 47.7819 32.2108 49.0258V49.1341ZM30.1369 48.9812C30.1369 48.2595 30.0095 47.7034 29.7526 47.3085C29.4979 46.918 29.1264 46.7205 28.6382 46.7205C27.9865 46.7205 27.5407 46.971 27.2966 47.4677V50.6475C27.5492 51.1591 28.0014 51.416 28.653 51.416C29.6423 51.416 30.1369 50.6051 30.1369 48.9812ZM38.1439 52.1547C37.6302 52.7766 36.9233 53.0887 36.019 53.0887C35.1869 53.0887 34.5522 52.8488 34.1149 52.3712C33.6776 51.8936 33.4526 51.191 33.4441 50.2676V45.1816H35.5181V50.1954C35.5181 51.0042 35.8874 51.4075 36.6219 51.4075C37.3245 51.4075 37.8106 51.1634 38.0717 50.6751V45.1816H40.1542V52.9443H38.2012L38.1439 52.1547ZM43.9051 52.9443H41.8227V41.9232H43.9051V52.9443ZM55.3043 50.7919H51.5301L50.8126 52.9443H48.5264L52.4131 42.4964H54.4085L58.3187 52.9443H56.0303L55.3043 50.7919ZM52.1117 49.047H54.7248L53.4108 45.137L52.1117 49.047ZM58.8557 49.0067C58.8557 47.8137 59.1402 46.8543 59.7048 46.1262C60.2737 45.3981 61.0379 45.0372 61.9974 45.0372C62.8486 45.0372 63.5131 45.3281 63.9864 45.9139L64.0713 45.1816H65.9521V52.6832C65.9521 53.3646 65.7972 53.9547 65.4894 54.4578C65.1816 54.9588 64.7464 55.3408 64.186 55.6062C63.6256 55.8673 62.9718 55.9989 62.2203 55.9989C61.6514 55.9989 61.0952 55.8864 60.5582 55.6592C60.0169 55.4321 59.6072 55.1392 59.3312 54.7804L60.2483 53.5196C60.7662 54.0969 61.3903 54.3856 62.1269 54.3856C62.6788 54.3856 63.1055 54.2392 63.4133 53.9441C63.719 53.6512 63.8697 53.233 63.8697 52.6938V52.2778C63.3921 52.8191 62.7637 53.0887 61.9847 53.0887C61.0528 53.0887 60.2971 52.7235 59.7197 51.9933C59.1444 51.2631 58.8557 50.2973 58.8557 49.0916V49.0067ZM60.9296 49.1553C60.9296 49.8579 61.0719 50.4098 61.3521 50.8089C61.6344 51.2079 62.0208 51.4075 62.5132 51.4075C63.1458 51.4075 63.598 51.1697 63.8697 50.6985V47.4316C63.5937 46.9583 63.1458 46.7205 62.5281 46.7205C62.0314 46.7205 61.6387 46.9243 61.3563 47.3319C61.0719 47.7373 60.9296 48.3444 60.9296 49.1553ZM71.9065 47.1217C71.6241 47.0857 71.3736 47.0666 71.1614 47.0666C70.3738 47.0666 69.8601 47.3319 69.6181 47.8626V52.9443H67.5442V45.1816H69.5035L69.5587 46.1071C69.9747 45.3939 70.55 45.0372 71.2887 45.0372C71.518 45.0372 71.7345 45.0691 71.9341 45.1285L71.9065 47.1217ZM75.0906 52.9443H73.0103V45.1816H75.0906V52.9443ZM72.8872 43.1735C72.8872 42.8615 72.9933 42.6046 73.2014 42.403C73.4094 42.2034 73.6938 42.1037 74.0505 42.1037C74.405 42.1037 74.6873 42.2034 74.8974 42.403C75.1076 42.6046 75.2137 42.8615 75.2137 43.1735C75.2137 43.4855 75.1055 43.7466 74.8932 43.9462C74.6809 44.1478 74.4007 44.2476 74.0505 44.2476C73.7002 44.2476 73.4221 44.1478 73.2077 43.9462C72.9954 43.7466 72.8872 43.4855 72.8872 43.1735Z" fill="#05A155"/>
<path fill-rule="evenodd" clip-rule="evenodd" d="M26.4963 16.1713C25.4328 16.7847 24.0806 16.8293 22.9385 16.1713C21.7986 15.5132 21.1618 14.3181 21.1597 13.0912C22.2253 12.4778 23.5775 12.4332 24.7174 13.0912C25.8573 13.7493 26.4963 14.9443 26.4963 16.1713Z" fill="#05A155"/>
<path fill-rule="evenodd" clip-rule="evenodd" d="M24.1765 22.6156C23.5631 23.679 22.4125 24.3944 21.0964 24.3944C19.7803 24.3944 18.6298 23.679 18.0142 22.6156C18.6298 21.5542 19.7803 20.8389 21.0964 20.8389C22.4125 20.8389 23.5631 21.5542 24.1765 22.6156Z" fill="#05A155"/>
<path fill-rule="evenodd" clip-rule="evenodd" d="M37.6084 9.56569C38.8014 8.87369 39.6059 7.58309 39.6059 6.10356C39.6059 4.62616 38.8014 3.33556 37.6084 2.64355C36.4132 3.33556 35.6108 4.62616 35.6108 6.10356C35.6108 7.58309 36.4132 8.87369 37.6084 9.56569Z" fill="#05A155"/>
<path fill-rule="evenodd" clip-rule="evenodd" d="M49.2388 15.9017C50.3023 16.5152 51.6545 16.5598 52.7965 15.9017C53.9364 15.2437 54.5733 14.0486 54.5754 12.8217C53.5098 12.2082 52.1576 12.1636 51.0176 12.8217C49.8777 13.4797 49.2388 14.6748 49.2388 15.9017Z" fill="#05A155"/>
<path fill-rule="evenodd" clip-rule="evenodd" d="M51.0366 22.6156C51.6522 23.679 52.8006 24.3944 54.1189 24.3944C55.435 24.3944 56.5834 23.679 57.199 22.6156C56.5834 21.5542 55.435 20.8389 54.1189 20.8389C52.8006 20.8389 51.6522 21.5542 51.0366 22.6156Z" fill="#05A155"/>
<path fill-rule="evenodd" clip-rule="evenodd" d="M33.1453 5.95206C34.0135 5.08387 34.4062 3.7869 34.0666 2.5154C33.7248 1.24391 32.7378 0.318405 31.5511 0C30.6829 0.870308 30.2902 2.16516 30.6299 3.43666C30.9716 4.70815 31.9608 5.63365 33.1453 5.95206Z" fill="#05A155"/>
<path fill-rule="evenodd" clip-rule="evenodd" d="M25.4133 10.4199C25.7296 9.23116 25.424 7.91297 24.4921 6.98322C23.5623 6.05136 22.2419 5.74568 21.0553 6.06197C20.739 7.24856 21.0468 8.56675 21.9766 9.49862C22.9085 10.4284 24.2267 10.7362 25.4133 10.4199Z" fill="#05A155"/>
<path fill-rule="evenodd" clip-rule="evenodd" d="M20.9459 18.1535C20.6253 16.9669 19.6998 15.9777 18.4283 15.6381C17.1568 15.2963 15.8619 15.6911 14.9937 16.5593C15.3121 17.7438 16.2376 18.733 17.5091 19.0747C18.7807 19.4143 20.0755 19.0216 20.9459 18.1535Z" fill="#05A155"/>
<path fill-rule="evenodd" clip-rule="evenodd" d="M20.9459 27.0809C20.0755 26.2127 18.7807 25.82 17.5091 26.1596C16.2376 26.5014 15.3121 27.4884 14.9937 28.675C15.8619 29.5432 17.1568 29.9359 18.4283 29.5963C19.6998 29.2545 20.6253 28.2675 20.9459 27.0809Z" fill="#05A155"/>
<path fill-rule="evenodd" clip-rule="evenodd" d="M42.0724 5.95206C43.259 5.63365 44.2482 4.70815 44.5879 3.43666C44.9296 2.16516 44.5348 0.870308 43.6687 0C42.4821 0.318405 41.4929 1.24391 41.1532 2.5154C40.8115 3.7869 41.2063 5.08387 42.0724 5.95206Z" fill="#05A155"/>
<path fill-rule="evenodd" clip-rule="evenodd" d="M49.8066 10.4199C50.9932 10.7362 52.3114 10.4284 53.2412 9.49862C54.1731 8.56675 54.4788 7.24856 54.1625 6.06197C52.9758 5.74568 51.6576 6.05136 50.7257 6.98322C49.7959 7.91297 49.4881 9.23116 49.8066 10.4199Z" fill="#05A155"/>
<path fill-rule="evenodd" clip-rule="evenodd" d="M54.272 18.1535C55.1423 19.0216 56.4372 19.4143 57.7087 19.0726C58.9803 18.733 59.9058 17.7438 60.2242 16.5593C59.356 15.6911 58.059 15.2963 56.7874 15.6381C55.5159 15.9777 54.5904 16.9669 54.272 18.1535Z" fill="#05A155"/>
<path fill-rule="evenodd" clip-rule="evenodd" d="M54.272 27.0809C54.5904 28.2675 55.5159 29.2545 56.7874 29.5963C58.059 29.9359 59.356 29.5432 60.2242 28.675C59.9058 27.4884 58.9803 26.5014 57.7087 26.1596C56.4372 25.82 55.1423 26.2127 54.272 27.0809Z" fill="#05A155"/>
<path fill-rule="evenodd" clip-rule="evenodd" d="M32.0313 13.2467C30.5327 13.2467 29.0765 12.4676 28.274 11.0773C27.4695 9.68689 27.5247 8.03542 28.2719 6.73633C29.7706 6.73845 31.2289 7.51536 32.0313 8.90785C32.8337 10.2982 32.7807 11.9497 32.0313 13.2467Z" fill="#05A155"/>
<path fill-rule="evenodd" clip-rule="evenodd" d="M43.185 13.2466C44.6837 13.2466 46.142 12.4675 46.9444 11.0771C47.7468 9.68678 47.6938 8.03532 46.9444 6.73622C45.4458 6.73834 43.9895 7.51526 43.1871 8.90775C42.3826 10.2981 42.4378 11.9496 43.185 13.2466Z" fill="#05A155"/>
<path fill-rule="evenodd" clip-rule="evenodd" d="M49.2388 29.3334C49.2388 30.5603 49.8777 31.7554 51.0176 32.4134C52.1576 33.0715 53.5098 33.0269 54.5754 32.4134C54.5733 31.1844 53.9364 29.9914 52.7965 29.3334C51.6545 28.6754 50.3023 28.7199 49.2388 29.3334Z" fill="#05A155"/>
<path fill-rule="evenodd" clip-rule="evenodd" d="M25.9768 29.3334C25.9746 30.5603 25.3378 31.7554 24.1979 32.4134C23.058 33.0715 21.7036 33.0269 20.6401 32.4134C20.6401 31.1844 21.2791 29.9914 22.419 29.3334C23.5589 28.6754 24.9133 28.7199 25.9768 29.3334Z" fill="#05A155"/>
<path d="M45.7164 28.0734H43.5491L41.3435 30.2768V36.7638H53.0803V38.2942H39.813V29.6442L42.9143 26.543H45.7164V28.0734Z" fill="#A05148"/>
<path d="M37.0728 26.6545L40.1508 23.5766V19.5032L41.7895 17.8623L42.8658 18.9449L41.6813 20.1293V23.8929L41.4563 24.4342L38.1554 27.7371L37.0728 26.6545Z" fill="#A05148"/>
<path d="M47.5991 21.6517L44.5891 24.6617H40.9146V23.1313H43.9565L46.5165 20.5713L47.5991 21.6517Z" fill="#A05148"/>
<path d="M47.0677 26.5194C46.9595 26.5194 46.8576 26.5385 46.7684 26.5767C46.675 26.615 46.5901 26.6723 46.5158 26.7466C46.3736 26.8888 46.2866 27.0841 46.2866 27.2985C46.2866 27.4088 46.3078 27.5107 46.3439 27.5999C46.3821 27.6912 46.4415 27.7782 46.5158 27.8525C46.5901 27.9247 46.675 27.9841 46.7684 28.0223C46.8576 28.0584 46.9595 28.0796 47.0677 28.0796C47.1781 28.0796 47.2779 28.0584 47.3692 28.0223C47.4604 27.9841 47.5454 27.9247 47.6196 27.8525C47.6939 27.7782 47.7534 27.6912 47.7916 27.5999C47.8277 27.5107 47.8489 27.4088 47.8489 27.2985C47.8489 27.1923 47.8277 27.0904 47.7916 27.0013V26.9992C47.7534 26.9079 47.6939 26.8209 47.6196 26.7466C47.5454 26.6723 47.4604 26.615 47.3692 26.5767C47.2779 26.5385 47.1781 26.5194 47.0677 26.5194ZM46.3375 25.5303C46.5646 25.4347 46.813 25.3838 47.0677 25.3838C47.3246 25.3838 47.5708 25.4347 47.798 25.5303C48.0357 25.6279 48.248 25.7701 48.4221 25.9442C48.5961 26.1182 48.7383 26.3284 48.836 26.5661H48.8381C48.9315 26.7933 48.9846 27.0416 48.9846 27.2985C48.9846 27.5553 48.9315 27.8015 48.8381 28.0308C48.7383 28.2685 48.5961 28.4808 48.4221 28.6549C48.248 28.8289 48.0378 28.9712 47.798 29.0688C47.5708 29.1622 47.3246 29.2153 47.0677 29.2153C46.813 29.2153 46.5646 29.1622 46.3375 29.0688C46.0998 28.9712 45.8875 28.8289 45.7134 28.6549C45.5393 28.4808 45.3971 28.2685 45.2973 28.0308C45.2039 27.8015 45.1509 27.5553 45.1509 27.2985C45.1509 26.7699 45.3653 26.2902 45.7134 25.9442C45.8875 25.7701 46.0998 25.6279 46.3375 25.5303Z" fill="#A05148"/>
<path d="M48.0109 19.3749C47.9027 19.3749 47.8008 19.3961 47.7116 19.4343C47.6203 19.4704 47.5333 19.5299 47.459 19.6042C47.3847 19.6784 47.3274 19.7634 47.2892 19.8568C47.251 19.9459 47.2319 20.0478 47.2319 20.1561C47.2319 20.2664 47.251 20.3662 47.2892 20.4575C47.3274 20.5488 47.3847 20.6337 47.459 20.708C47.5333 20.7822 47.6203 20.8417 47.7116 20.8799C47.8008 20.916 47.9027 20.9372 48.0109 20.9372C48.1213 20.9372 48.2232 20.916 48.3123 20.8799C48.4036 20.8417 48.4885 20.7822 48.5628 20.708C48.6371 20.6337 48.6966 20.5488 48.7348 20.4575C48.7709 20.3662 48.7921 20.2664 48.7921 20.1561C48.7921 20.0478 48.7709 19.9459 48.7348 19.8568C48.6966 19.7634 48.6371 19.6784 48.5628 19.6042C48.4885 19.5299 48.4036 19.4704 48.3123 19.4343C48.2232 19.3961 48.1213 19.3749 48.0109 19.3749ZM47.2807 18.3857C47.5078 18.2923 47.7562 18.2393 48.0109 18.2393C48.2678 18.2393 48.514 18.2923 48.7433 18.3857C48.981 18.4855 49.1933 18.6277 49.3674 18.8018C49.5414 18.9758 49.6837 19.1881 49.7813 19.4258C49.8768 19.653 49.9278 19.9013 49.9278 20.1561C49.9278 20.4129 49.8768 20.6591 49.7813 20.8863C49.6837 21.1261 49.5414 21.3363 49.3674 21.5103C49.1933 21.6844 48.981 21.8266 48.7433 21.9264C48.514 22.0198 48.2678 22.0729 48.0109 22.0729C47.7562 22.0729 47.5078 22.0198 47.2807 21.9264C47.0429 21.8266 46.8307 21.6844 46.6566 21.5103C46.4825 21.3363 46.3403 21.1261 46.2427 20.8863C46.1471 20.6591 46.0962 20.4129 46.0962 20.1561C46.0962 19.9013 46.1471 19.653 46.2427 19.4258C46.3403 19.1881 46.4825 18.9758 46.6566 18.8018C46.8307 18.6277 47.0429 18.4855 47.2807 18.3857Z" fill="#A05148"/>
<path d="M43.2845 16.6728C43.1763 16.6728 43.0765 16.694 42.9873 16.7301H42.9852C42.8918 16.7683 42.8069 16.8277 42.7326 16.902C42.6583 16.9763 42.5989 17.0612 42.5607 17.1525C42.5246 17.2438 42.5034 17.3435 42.5034 17.4539C42.5034 17.5622 42.5246 17.6641 42.5607 17.7532C42.5989 17.8466 42.6583 17.9315 42.7326 18.0058C42.8727 18.148 43.068 18.2351 43.2845 18.2351C43.3949 18.2351 43.4947 18.2138 43.586 18.1778C43.6772 18.1395 43.7622 18.0801 43.8365 18.0058C43.9107 17.9315 43.9702 17.8466 44.0084 17.7532C44.0445 17.6641 44.0657 17.5622 44.0657 17.4539C44.0657 17.3435 44.0445 17.2438 44.0084 17.1525C43.9702 17.0612 43.9107 16.9763 43.8365 16.902C43.7622 16.8277 43.6772 16.7683 43.586 16.7301C43.4947 16.694 43.3949 16.6728 43.2845 16.6728ZM42.5522 15.6857V15.6836C42.7793 15.5902 43.0277 15.5371 43.2845 15.5371C43.5414 15.5371 43.7876 15.5902 44.0148 15.6836C44.2525 15.7833 44.4648 15.9256 44.6389 16.0996C44.8129 16.2737 44.9551 16.486 45.0549 16.7237C45.1483 16.9508 45.2014 17.1971 45.2014 17.4539C45.2014 17.7108 45.1483 17.957 45.0549 18.1841C44.9551 18.4219 44.8129 18.6341 44.6389 18.8082C44.4648 18.9823 44.2546 19.1245 44.0148 19.2242C43.7876 19.3176 43.5414 19.3707 43.2845 19.3707C42.756 19.3707 42.2762 19.1563 41.9302 18.8082C41.7561 18.6341 41.6139 18.4219 41.5141 18.1841C41.4207 17.957 41.3677 17.7108 41.3677 17.4539C41.3677 17.1971 41.4207 16.9508 41.5141 16.7237C41.6139 16.4838 41.7561 16.2737 41.9302 16.0996C42.1043 15.9256 42.3144 15.7833 42.5522 15.6857Z" fill="#A05148"/>
<path d="M37.598 13.1366C37.4876 13.1366 37.3857 13.1578 37.2966 13.1939C37.2053 13.2321 37.1204 13.2916 37.0461 13.3659L37.044 13.3638C36.9718 13.438 36.9145 13.523 36.8741 13.6164C36.8381 13.7055 36.8168 13.8074 36.8168 13.9178C36.8168 14.026 36.8381 14.1279 36.8741 14.2171C36.9124 14.3105 36.9718 14.3954 37.0461 14.4697C37.1204 14.544 37.2053 14.6013 37.2966 14.6395C37.3857 14.6777 37.4876 14.6989 37.598 14.6989C37.7063 14.6989 37.8082 14.6777 37.8973 14.6395C37.9886 14.6034 38.0756 14.544 38.1499 14.4697C38.2242 14.3954 38.2815 14.3105 38.3197 14.2171C38.358 14.1279 38.3792 14.026 38.3792 13.9178C38.3792 13.8074 38.358 13.7055 38.3197 13.6164C38.2815 13.523 38.2242 13.438 38.1499 13.3638V13.3659C38.0756 13.2916 37.9886 13.2321 37.8973 13.1939C37.8082 13.1578 37.7063 13.1366 37.598 13.1366ZM36.8678 12.1474C37.0949 12.054 37.3412 12.001 37.598 12.001C37.8527 12.001 38.1011 12.054 38.3282 12.1474C38.566 12.2451 38.7783 12.3894 38.9523 12.5614V12.5635C39.1264 12.7397 39.2707 12.9519 39.3663 13.1876C39.4618 13.4147 39.5127 13.6609 39.5127 13.9178C39.5127 14.1725 39.4618 14.4209 39.3663 14.648C39.2686 14.8857 39.1264 15.098 38.9523 15.2721C38.7783 15.4461 38.566 15.5883 38.3282 15.686C38.1011 15.7815 37.8527 15.8325 37.598 15.8325C37.3412 15.8325 37.0949 15.7815 36.8678 15.686C36.6279 15.5883 36.4177 15.4461 36.2437 15.2721C36.0675 15.098 35.9274 14.8857 35.8276 14.648C35.7342 14.4209 35.6812 14.1725 35.6812 13.9178C35.6812 13.6609 35.7342 13.4147 35.8276 13.1876C35.9253 12.9519 36.0675 12.7397 36.2437 12.5635V12.5614C36.4177 12.3894 36.6279 12.2451 36.8678 12.1474Z" fill="#A05148"/>
<path d="M36.8296 38.2977V15.2686H38.3643V38.2977H36.8296Z" fill="#A05148"/>
<path d="M22.1362 36.764H33.8518V32.8943L32.0474 31.09H30.6719V29.5596H32.6821L35.3823 32.2618V38.2945H22.1362V36.764Z" fill="#A05148"/>
<path d="M29.3216 29.5292C29.2134 29.5292 29.1115 29.5504 29.0223 29.5886C28.9289 29.6247 28.844 29.6842 28.7697 29.7585C28.6954 29.8327 28.636 29.9177 28.5978 30.0111C28.5617 30.1002 28.5405 30.2021 28.5405 30.3104C28.5405 30.4207 28.5617 30.5205 28.5978 30.6118C28.636 30.7031 28.6954 30.788 28.7697 30.8623C28.844 30.9366 28.9289 30.996 29.0223 31.0342C29.1115 31.0703 29.2134 31.0915 29.3216 31.0915C29.432 31.0915 29.5318 31.0703 29.6231 31.0342C29.7144 30.996 29.7993 30.9366 29.8736 30.8623C29.9479 30.788 30.0073 30.7031 30.0455 30.6118C30.0816 30.5205 30.1028 30.4207 30.1028 30.3104C30.1028 30.2021 30.0816 30.1002 30.0455 30.0111C30.0073 29.9177 29.9479 29.8327 29.8736 29.7585C29.7993 29.6842 29.7144 29.6247 29.6231 29.5886C29.5318 29.5504 29.432 29.5292 29.3216 29.5292ZM28.5914 28.54C28.8185 28.4466 29.0648 28.3936 29.3216 28.3936C29.5785 28.3936 29.8247 28.4466 30.0519 28.54C30.2896 28.6398 30.5019 28.782 30.676 28.9561C30.85 29.1301 30.9923 29.3424 31.092 29.5801C31.1854 29.8073 31.2385 30.0556 31.2385 30.3104C31.2385 30.5672 31.1854 30.8134 31.092 31.0406C30.9923 31.2804 30.85 31.4906 30.676 31.6646C30.5019 31.8387 30.2896 31.9809 30.0519 32.0807C29.8247 32.1741 29.5785 32.2272 29.3216 32.2272C29.0648 32.2272 28.8185 32.1741 28.5914 32.0807C28.3537 31.9809 28.1414 31.8387 27.9673 31.6646C27.7932 31.4906 27.651 31.2804 27.5513 31.0406C27.4579 30.8134 27.4048 30.5672 27.4048 30.3104C27.4048 30.0556 27.4579 29.8073 27.5513 29.5801C27.651 29.3424 27.7932 29.1301 27.9673 28.9561C28.1414 28.782 28.3537 28.6398 28.5914 28.54Z" fill="#A05148"/>
<path d="M37.0434 30.855L33.1885 26.7603L32.9804 26.2381V21.9056L31.0806 19.2225L32.3245 18.3438L34.511 21.4323V25.9367L38.1557 29.8085L37.0434 30.855Z" fill="#A05148"/>
<path d="M29.1753 24.0548L30.415 25.4706H33.7435V27.0011H29.7272L28.0269 25.0588L29.1753 24.0548Z" fill="#A05148"/>
<path d="M27.8385 21.6311C28.0975 21.6481 28.3416 21.7181 28.5603 21.8264C28.7874 21.9389 28.9869 22.0938 29.1525 22.2827C29.316 22.4695 29.4454 22.6903 29.5261 22.9323C29.6047 23.1637 29.6407 23.4141 29.6238 23.671C29.6068 23.9278 29.5367 24.1719 29.4285 24.3906C29.316 24.6177 29.161 24.8194 28.9721 24.9828C28.7831 25.1484 28.5645 25.2779 28.3246 25.3585H28.3225C28.0911 25.435 27.8406 25.471 27.5838 25.4541C27.3269 25.4371 27.0828 25.3692 26.8642 25.2609C26.637 25.1484 26.4354 24.9913 26.2719 24.8024C26.1063 24.6156 25.979 24.397 25.8983 24.155L25.8962 24.1571C25.8176 23.9236 25.7837 23.6731 25.8007 23.4163C25.8176 23.1573 25.8856 22.9132 25.9938 22.6945C26.1063 22.4674 26.2634 22.2658 26.4502 22.1023C26.6392 21.9367 26.8599 21.8094 27.0977 21.7287H27.0998C27.3333 21.6502 27.5817 21.6141 27.8385 21.6311ZM28.0593 22.841C27.9701 22.7986 27.8704 22.7688 27.7642 22.7625C27.6581 22.7561 27.5562 22.7688 27.4628 22.8007C27.363 22.8346 27.2717 22.8877 27.1974 22.9535C27.121 23.0214 27.0573 23.1021 27.0106 23.1955C26.9661 23.2847 26.9385 23.3844 26.9321 23.4906C26.9257 23.5967 26.9385 23.6986 26.9703 23.792V23.7941C27.0043 23.8918 27.0552 23.9809 27.1231 24.0573C27.189 24.1337 27.2717 24.1974 27.3651 24.2441C27.4543 24.2887 27.5541 24.3163 27.6602 24.3227C27.7663 24.329 27.8682 24.3163 27.9616 24.2845C28.0614 24.2505 28.1506 24.1974 28.227 24.1316C28.3034 24.0658 28.3671 23.983 28.4138 23.8896C28.4562 23.8005 28.4838 23.7007 28.4923 23.5946C28.4987 23.4884 28.4838 23.3844 28.452 23.291C28.4202 23.1934 28.3671 23.1042 28.3013 23.0278C28.2333 22.9514 28.1527 22.8877 28.0593 22.841Z" fill="#A05148"/>
<path d="M31.245 15.7955C31.4998 15.8379 31.7354 15.9313 31.9434 16.0629C32.1557 16.1967 32.3404 16.3729 32.4847 16.5788C32.6291 16.7825 32.7352 17.016 32.7904 17.2601C32.8456 17.5 32.8541 17.7526 32.8116 18.0052C32.7671 18.2599 32.6736 18.4956 32.5442 18.7036C32.4083 18.918 32.2321 19.1005 32.0304 19.2449H32.0283C31.8224 19.3892 31.591 19.4954 31.3448 19.5505C31.107 19.6057 30.8544 19.6142 30.5997 19.5718C30.345 19.5272 30.1093 19.4338 29.9034 19.3022C29.6869 19.1663 29.5022 18.9902 29.3579 18.7864H29.36C29.2157 18.5847 29.1117 18.3512 29.0543 18.105C29.0013 17.8651 28.9907 17.6125 29.0352 17.3599C29.0777 17.1052 29.1711 16.8696 29.3027 16.6616C29.4364 16.4493 29.6126 16.2646 29.8185 16.1203V16.1181C30.0202 15.9759 30.2516 15.8719 30.4999 15.8146C30.7398 15.7615 30.9924 15.7509 31.245 15.7955ZM31.3405 17.0203C31.2578 16.9672 31.1601 16.9311 31.0561 16.912C30.9478 16.895 30.8459 16.8972 30.7504 16.9205C30.6507 16.9417 30.5551 16.9863 30.4702 17.0458L30.4681 17.0436C30.3874 17.1009 30.3174 17.1774 30.2601 17.2665C30.2091 17.3493 30.1709 17.4448 30.1539 17.551C30.1348 17.6571 30.1391 17.7611 30.1603 17.8566C30.1815 17.9564 30.224 18.0498 30.2834 18.1326L30.2855 18.1347C30.345 18.2196 30.4193 18.2897 30.5063 18.3449C30.5891 18.3979 30.6846 18.434 30.7908 18.4531C30.8969 18.4701 31.0009 18.468 31.0964 18.4467C31.1983 18.4234 31.2917 18.3809 31.3745 18.3236V18.3215C31.4573 18.2621 31.5295 18.1856 31.5847 18.0986C31.6377 18.0158 31.6759 17.9203 31.6929 17.8142C31.712 17.708 31.7078 17.604 31.6866 17.5085C31.6632 17.4066 31.6208 17.3111 31.5613 17.2304C31.504 17.1476 31.4297 17.0755 31.3405 17.0203Z" fill="#A05148"/>
</svg>
