<svg width="136" height="100" viewBox="0 0 136 100" fill="none" xmlns="http://www.w3.org/2000/svg">
<path fill-rule="evenodd" clip-rule="evenodd" d="M48.1512 29.1142C46.2521 30.2096 43.8375 30.2892 41.7981 29.1142C39.7626 27.9391 38.6254 25.805 38.6216 23.614C40.5245 22.5185 42.9391 22.4389 44.9747 23.614C47.0103 24.7891 48.1512 26.9232 48.1512 29.1142Z" fill="#05A155"/>
<path fill-rule="evenodd" clip-rule="evenodd" d="M44.0169 40.6275C42.9214 42.5266 40.8669 43.804 38.5167 43.804C36.1665 43.804 34.112 42.5266 33.0127 40.6275C34.112 38.7322 36.1665 37.4547 38.5167 37.4547C40.8669 37.4547 42.9214 38.7322 44.0169 40.6275Z" fill="#05A155"/>
<path fill-rule="evenodd" clip-rule="evenodd" d="M67.9984 17.3261C70.1287 16.0903 71.5654 13.7857 71.5654 11.1436C71.5654 8.50536 70.1287 6.20067 67.9984 4.96494C65.8643 6.20067 64.4314 8.50536 64.4314 11.1436C64.4314 13.7857 65.8643 16.0903 67.9984 17.3261Z" fill="#05A155"/>
<path fill-rule="evenodd" clip-rule="evenodd" d="M88.7681 28.6358C90.6672 29.7313 93.0818 29.8109 95.1212 28.6358C97.1567 27.4607 98.2939 25.3266 98.2977 23.1357C96.3948 22.0402 93.9802 21.9606 91.9446 23.1357C89.909 24.3107 88.7681 26.4449 88.7681 28.6358Z" fill="#05A155"/>
<path fill-rule="evenodd" clip-rule="evenodd" d="M91.9783 40.6273C93.0776 42.5263 95.1283 43.8038 97.4823 43.8038C99.8325 43.8038 101.883 42.5263 102.982 40.6273C101.883 38.732 99.8325 37.4545 97.4823 37.4545C95.1283 37.4545 93.0776 38.732 91.9783 40.6273Z" fill="#05A155"/>
<path fill-rule="evenodd" clip-rule="evenodd" d="M60.0236 10.8698C61.574 9.31948 62.2753 7.00342 61.6688 4.73286C61.0585 2.46229 59.2959 0.809587 57.1769 0.240997C55.6265 1.79514 54.9253 4.10741 55.5318 6.37797C56.142 8.64854 57.9085 10.3012 60.0236 10.8698Z" fill="#05A155"/>
<path fill-rule="evenodd" clip-rule="evenodd" d="M46.2147 18.8447C46.7795 16.722 46.2336 14.368 44.5696 12.7077C42.9093 11.0437 40.5515 10.4978 38.4325 11.0626C37.8677 13.1816 38.4174 15.5355 40.0777 17.1996C41.7417 18.8599 44.0957 19.4095 46.2147 18.8447Z" fill="#05A155"/>
<path fill-rule="evenodd" clip-rule="evenodd" d="M38.2429 32.6559C37.6706 30.537 36.0179 28.7705 33.7473 28.164C31.4767 27.5538 29.1644 28.2588 27.614 29.8092C28.1826 31.9243 29.8353 33.6907 32.1059 34.301C34.3765 34.9075 36.6888 34.2063 38.2429 32.6559Z" fill="#05A155"/>
<path fill-rule="evenodd" clip-rule="evenodd" d="M38.2429 48.6012C36.6888 47.0508 34.3765 46.3496 32.1059 46.9561C29.8353 47.5664 28.1826 49.329 27.614 51.4479C29.1644 52.9983 31.4767 53.6995 33.7473 53.093C36.0179 52.4828 37.6706 50.7201 38.2429 48.6012Z" fill="#05A155"/>
<path fill-rule="evenodd" clip-rule="evenodd" d="M75.9699 10.8698C78.0889 10.3012 79.8553 8.64854 80.4618 6.37797C81.0721 4.10741 80.367 1.79514 78.8205 0.240997C76.7015 0.809587 74.9351 2.46229 74.3286 4.73286C73.7183 7.00342 74.4233 9.31948 75.9699 10.8698Z" fill="#05A155"/>
<path fill-rule="evenodd" clip-rule="evenodd" d="M89.7851 18.8448C91.904 19.4096 94.258 18.86 95.9183 17.1997C97.5824 15.5356 98.1283 13.1816 97.5635 11.0627C95.4445 10.4979 93.0905 11.0438 91.4264 12.7078C89.7661 14.3681 89.2165 16.7221 89.7851 18.8448Z" fill="#05A155"/>
<path fill-rule="evenodd" clip-rule="evenodd" d="M97.7568 32.6559C99.311 34.2063 101.623 34.9075 103.894 34.2972C106.164 33.6907 107.817 31.9243 108.386 29.8092C106.835 28.2588 104.519 27.5538 102.249 28.164C99.9781 28.7705 98.3254 30.537 97.7568 32.6559Z" fill="#05A155"/>
<path fill-rule="evenodd" clip-rule="evenodd" d="M97.7568 48.6012C98.3254 50.7201 99.9781 52.4828 102.249 53.093C104.519 53.6995 106.835 52.9983 108.386 51.4479C107.817 49.329 106.164 47.5664 103.894 46.9561C101.623 46.3496 99.311 47.0508 97.7568 48.6012Z" fill="#05A155"/>
<path fill-rule="evenodd" clip-rule="evenodd" d="M58.0405 23.8981C55.3643 23.8981 52.764 22.5069 51.3311 20.0241C49.8944 17.5412 49.993 14.5922 51.3273 12.2723C54.0035 12.2761 56.6077 13.6635 58.0405 16.1501C59.4734 18.6329 59.3786 21.582 58.0405 23.8981Z" fill="#05A155"/>
<path fill-rule="evenodd" clip-rule="evenodd" d="M77.9538 23.8981C80.63 23.8981 83.2341 22.5069 84.667 20.0241C86.0998 17.5412 86.0051 14.5922 84.667 12.2723C81.9908 12.2761 79.3904 13.6635 77.9576 16.1501C76.5209 18.6329 76.6195 21.582 77.9538 23.8981Z" fill="#05A155"/>
<path fill-rule="evenodd" clip-rule="evenodd" d="M88.7681 52.6192C88.7681 54.8101 89.909 56.9443 91.9446 58.1193C93.9802 59.2944 96.3948 59.2148 98.2977 58.1193C98.2939 55.9246 97.1567 53.7943 95.1212 52.6192C93.0818 51.4441 90.6672 51.5237 88.7681 52.6192Z" fill="#05A155"/>
<path fill-rule="evenodd" clip-rule="evenodd" d="M47.2306 52.6192C47.2268 54.8101 46.0896 56.9443 44.054 58.1193C42.0185 59.2944 39.6 59.2148 37.7009 58.1193C37.7009 55.9246 38.8419 53.7943 40.8775 52.6192C42.913 51.4441 45.3315 51.5237 47.2306 52.6192Z" fill="#05A155"/>
<path d="M82.4807 50.3709H78.6105L74.672 54.3055V65.8896H95.6304V68.6226H71.939V53.1759L77.4771 47.6379H82.4807V50.3709Z" fill="#A05148"/>
<path d="M67.0454 47.8397L72.5418 42.3433V35.0692L75.4682 32.139L77.39 34.0722L75.2749 36.1874V42.9081L74.8731 43.8747L68.9786 49.7729L67.0454 47.8397Z" fill="#A05148"/>
<path d="M85.8427 38.9005L80.4676 44.2756H73.906V41.5426H79.338L83.9095 36.9711L85.8427 38.9005Z" fill="#A05148"/>
<path d="M84.8866 47.5931C84.6932 47.5931 84.5113 47.6272 84.3521 47.6954C84.1853 47.7636 84.0337 47.866 83.901 47.9986C83.647 48.2526 83.4916 48.6014 83.4916 48.9842C83.4916 49.1813 83.5295 49.3633 83.594 49.5225C83.6622 49.6855 83.7683 49.8409 83.901 49.9736C84.0337 50.1024 84.1853 50.2086 84.3521 50.2768C84.5113 50.3412 84.6932 50.3791 84.8866 50.3791C85.0837 50.3791 85.2618 50.3412 85.4248 50.2768C85.5878 50.2086 85.7394 50.1024 85.8721 49.9736C86.0048 49.8409 86.1109 49.6855 86.1792 49.5225C86.2436 49.3633 86.2815 49.1813 86.2815 48.9842C86.2815 48.7947 86.2436 48.6127 86.1792 48.4535V48.4497C86.1109 48.2867 86.0048 48.1313 85.8721 47.9986C85.7394 47.866 85.5878 47.7636 85.4248 47.6954C85.2618 47.6272 85.0837 47.5931 84.8866 47.5931ZM83.5826 45.8266C83.9882 45.6561 84.4317 45.5651 84.8866 45.5651C85.3452 45.5651 85.7849 45.6561 86.1905 45.8266C86.6151 46.001 86.9941 46.255 87.305 46.5658C87.6158 46.8766 87.8698 47.2519 88.0442 47.6765H88.0479C88.2147 48.0821 88.3095 48.5255 88.3095 48.9842C88.3095 49.4429 88.2147 49.8826 88.0479 50.292C87.8698 50.7165 87.6158 51.0956 87.305 51.4064C86.9941 51.7172 86.6189 51.9712 86.1905 52.1456C85.7849 52.3123 85.3452 52.4071 84.8866 52.4071C84.4317 52.4071 83.9882 52.3123 83.5826 52.1456C83.158 51.9712 82.779 51.7172 82.4681 51.4064C82.1573 51.0956 81.9033 50.7165 81.7252 50.292C81.5584 49.8826 81.4636 49.4429 81.4636 48.9842C81.4636 48.0403 81.8465 47.1837 82.4681 46.5658C82.779 46.255 83.158 46.001 83.5826 45.8266Z" fill="#A05148"/>
<path d="M86.5761 34.8381C86.3828 34.8381 86.2009 34.876 86.0416 34.9443C85.8787 35.0087 85.7232 35.1149 85.5906 35.2475C85.4579 35.3802 85.3555 35.5318 85.2873 35.6986C85.2191 35.8578 85.185 36.0398 85.185 36.2331C85.185 36.4302 85.2191 36.6084 85.2873 36.7713C85.3555 36.9343 85.4579 37.086 85.5906 37.2186C85.7232 37.3513 85.8787 37.4575 86.0416 37.5257C86.2009 37.5901 86.3828 37.628 86.5761 37.628C86.7732 37.628 86.9552 37.5901 87.1144 37.5257C87.2774 37.4575 87.429 37.3513 87.5617 37.2186C87.6944 37.086 87.8005 36.9343 87.8687 36.7713C87.9332 36.6084 87.9711 36.4302 87.9711 36.2331C87.9711 36.0398 87.9332 35.8578 87.8687 35.6986C87.8005 35.5318 87.6944 35.3802 87.5617 35.2475C87.429 35.1149 87.2774 35.0087 87.1144 34.9443C86.9552 34.876 86.7732 34.8381 86.5761 34.8381ZM85.2721 33.0717C85.6777 32.9049 86.1213 32.8102 86.5761 32.8102C87.0348 32.8102 87.4745 32.9049 87.8839 33.0717C88.3084 33.2499 88.6875 33.5039 88.9983 33.8147C89.3092 34.1255 89.5631 34.5046 89.7375 34.9291C89.9081 35.3347 89.9991 35.7782 89.9991 36.2331C89.9991 36.6917 89.9081 37.1315 89.7375 37.5371C89.5631 37.9654 89.3092 38.3406 88.9983 38.6515C88.6875 38.9623 88.3084 39.2163 87.8839 39.3944C87.4745 39.5612 87.0348 39.656 86.5761 39.656C86.1213 39.656 85.6777 39.5612 85.2721 39.3944C84.8476 39.2163 84.4685 38.9623 84.1577 38.6515C83.8469 38.3406 83.5929 37.9654 83.4185 37.5371C83.2479 37.1315 83.157 36.6917 83.157 36.2331C83.157 35.7782 83.2479 35.3347 83.4185 34.9291C83.5929 34.5046 83.8469 34.1255 84.1577 33.8147C84.4685 33.5039 84.8476 33.2499 85.2721 33.0717Z" fill="#A05148"/>
<path d="M78.1307 30.0076C77.9374 30.0076 77.7592 30.0455 77.6 30.11H77.5962C77.4294 30.1782 77.2778 30.2844 77.1451 30.417C77.0125 30.5497 76.9063 30.7013 76.8381 30.8643C76.7737 31.0273 76.7358 31.2055 76.7358 31.4026C76.7358 31.5959 76.7737 31.7779 76.8381 31.9371C76.9063 32.1038 77.0125 32.2555 77.1451 32.3881C77.3953 32.6421 77.7441 32.7975 78.1307 32.7975C78.3278 32.7975 78.506 32.7596 78.669 32.6952C78.832 32.6269 78.9836 32.5208 79.1163 32.3881C79.2489 32.2555 79.3551 32.1038 79.4233 31.9371C79.4878 31.7779 79.5257 31.5959 79.5257 31.4026C79.5257 31.2055 79.4878 31.0273 79.4233 30.8643C79.3551 30.7013 79.2489 30.5497 79.1163 30.417C78.9836 30.2844 78.832 30.1782 78.669 30.11C78.506 30.0455 78.3278 30.0076 78.1307 30.0076ZM76.8229 28.245V28.2412C77.2285 28.0744 77.672 27.9797 78.1307 27.9797C78.5894 27.9797 79.0291 28.0744 79.4347 28.2412C79.8592 28.4194 80.2383 28.6734 80.5491 28.9842C80.86 29.295 81.1139 29.6741 81.2921 30.0986C81.4589 30.5042 81.5536 30.9439 81.5536 31.4026C81.5536 31.8612 81.4589 32.301 81.2921 32.7065C81.1139 33.1311 80.86 33.5102 80.5491 33.821C80.2383 34.1318 79.863 34.3858 79.4347 34.5639C79.0291 34.7307 78.5894 34.8255 78.1307 34.8255C77.1868 34.8255 76.3302 34.4426 75.7123 33.821C75.4014 33.5102 75.1475 33.1311 74.9693 32.7065C74.8025 32.301 74.7078 31.8612 74.7078 31.4026C74.7078 30.9439 74.8025 30.5042 74.9693 30.0986C75.1475 29.6703 75.4014 29.295 75.7123 28.9842C76.0231 28.6734 76.3984 28.4194 76.8229 28.245Z" fill="#A05148"/>
<path d="M67.9764 23.6973C67.7793 23.6973 67.5974 23.7352 67.4381 23.7996C67.2751 23.8679 67.1235 23.974 66.9908 24.1067L66.9871 24.1029C66.8582 24.2355 66.7558 24.3872 66.6838 24.554C66.6194 24.7132 66.5815 24.8951 66.5815 25.0922C66.5815 25.2855 66.6194 25.4675 66.6838 25.6267C66.752 25.7935 66.8582 25.9451 66.9908 26.0778C67.1235 26.2104 67.2751 26.3128 67.4381 26.381C67.5974 26.4492 67.7793 26.4872 67.9764 26.4872C68.1697 26.4872 68.3517 26.4492 68.5109 26.381C68.6739 26.3166 68.8293 26.2104 68.962 26.0778C69.0946 25.9451 69.197 25.7935 69.2652 25.6267C69.3335 25.4675 69.3714 25.2855 69.3714 25.0922C69.3714 24.8951 69.3335 24.7132 69.2652 24.554C69.197 24.3872 69.0946 24.2355 68.962 24.1029V24.1067C68.8293 23.974 68.6739 23.8679 68.5109 23.7996C68.3517 23.7352 68.1697 23.6973 67.9764 23.6973ZM66.6724 21.9309C67.078 21.7641 67.5177 21.6693 67.9764 21.6693C68.4313 21.6693 68.8748 21.7641 69.2804 21.9309C69.7049 22.1052 70.084 22.363 70.3948 22.67V22.6738C70.7057 22.9884 70.9634 23.3675 71.134 23.7883C71.3046 24.1938 71.3956 24.6336 71.3956 25.0922C71.3956 25.5471 71.3046 25.9906 71.134 26.3962C70.9596 26.8207 70.7057 27.1998 70.3948 27.5106C70.084 27.8214 69.7049 28.0754 69.2804 28.2498C68.8748 28.4204 68.4313 28.5113 67.9764 28.5113C67.5177 28.5113 67.078 28.4204 66.6724 28.2498C66.2441 28.0754 65.8688 27.8214 65.558 27.5106C65.2434 27.1998 64.9932 26.8207 64.815 26.3962C64.6482 25.9906 64.5535 25.5471 64.5535 25.0922C64.5535 24.6336 64.6482 24.1938 64.815 23.7883C64.9894 23.3675 65.2434 22.9884 65.558 22.6738V22.67C65.8688 22.363 66.2441 22.1052 66.6724 21.9309Z" fill="#A05148"/>
<path d="M66.606 68.6236V27.4994H69.3466V68.6236H66.606Z" fill="#A05148"/>
<path d="M40.3701 65.8906H61.2906V58.9803L58.0686 55.7583H55.6122V53.0253H59.202L64.0237 57.8507V68.6236H40.3701V65.8906Z" fill="#A05148"/>
<path d="M53.2054 52.9677C53.0121 52.9677 52.8301 53.0056 52.6709 53.0739C52.5041 53.1383 52.3525 53.2444 52.2198 53.3771C52.0872 53.5098 51.981 53.6614 51.9128 53.8282C51.8484 53.9874 51.8105 54.1693 51.8105 54.3627C51.8105 54.5598 51.8484 54.7379 51.9128 54.9009C51.981 55.0639 52.0872 55.2156 52.2198 55.3482C52.3525 55.4809 52.5041 55.587 52.6709 55.6553C52.8301 55.7197 53.0121 55.7576 53.2054 55.7576C53.4025 55.7576 53.5807 55.7197 53.7437 55.6553C53.9067 55.587 54.0583 55.4809 54.191 55.3482C54.3236 55.2156 54.4298 55.0639 54.498 54.9009C54.5625 54.7379 54.6004 54.5598 54.6004 54.3627C54.6004 54.1693 54.5625 53.9874 54.498 53.8282C54.4298 53.6614 54.3236 53.5098 54.191 53.3771C54.0583 53.2444 53.9067 53.1383 53.7437 53.0739C53.5807 53.0056 53.4025 52.9677 53.2054 52.9677ZM51.9014 51.2013C52.307 51.0345 52.7467 50.9398 53.2054 50.9398C53.6641 50.9398 54.1038 51.0345 54.5094 51.2013C54.9339 51.3795 55.313 51.6334 55.6238 51.9443C55.9347 52.2551 56.1886 52.6342 56.3668 53.0587C56.5336 53.4643 56.6284 53.9078 56.6284 54.3627C56.6284 54.8213 56.5336 55.261 56.3668 55.6666C56.1886 56.095 55.9347 56.4702 55.6238 56.7811C55.313 57.0919 54.9339 57.3459 54.5094 57.524C54.1038 57.6908 53.6641 57.7856 53.2054 57.7856C52.7467 57.7856 52.307 57.6908 51.9014 57.524C51.4769 57.3459 51.0978 57.0919 50.787 56.7811C50.4762 56.4702 50.2222 56.095 50.044 55.6666C49.8772 55.261 49.7825 54.8213 49.7825 54.3627C49.7825 53.9078 49.8772 53.4643 50.044 53.0587C50.2222 52.6342 50.4762 52.2551 50.787 51.9443C51.0978 51.6334 51.4769 51.3795 51.9014 51.2013Z" fill="#A05148"/>
<path d="M66.9838 55.3377L60.1 48.0256L59.7285 47.0931V39.3565L56.3359 34.5652L58.5572 32.9959L62.4616 38.5112V46.5548L68.9701 53.4689L66.9838 55.3377Z" fill="#A05148"/>
<path d="M52.9375 43.1954L55.1512 45.7237H61.0949V48.4567H53.923L50.8867 44.9883L52.9375 43.1954Z" fill="#A05148"/>
<path d="M50.5517 38.8659C51.0141 38.8962 51.4501 39.0213 51.8405 39.2146C52.2461 39.4155 52.6024 39.6922 52.8981 40.0296C53.19 40.3632 53.4212 40.7574 53.5652 41.1895C53.7055 41.6027 53.7699 42.05 53.7396 42.5086C53.7093 42.9673 53.5842 43.4032 53.3909 43.7937C53.1899 44.1992 52.9132 44.5594 52.5759 44.8512C52.2385 45.1469 51.8481 45.3781 51.4197 45.5222H51.4159C51.0028 45.6586 50.5555 45.7231 50.0968 45.6927C49.6381 45.6624 49.2022 45.5411 48.8118 45.3478C48.4062 45.1469 48.0461 44.8664 47.7542 44.529C47.4585 44.1955 47.2311 43.805 47.087 43.3729L47.0832 43.3767C46.943 42.9597 46.8823 42.5124 46.9127 42.0538C46.943 41.5913 47.0643 41.1554 47.2576 40.765C47.4585 40.3594 47.739 39.9993 48.0726 39.7074C48.41 39.4117 48.8042 39.1843 49.2287 39.0403H49.2325C49.6495 38.9 50.093 38.8356 50.5517 38.8659ZM50.9459 41.0265C50.7867 40.9507 50.6085 40.8976 50.419 40.8863C50.2295 40.8749 50.0475 40.8976 49.8807 40.9545C49.7026 41.0151 49.5396 41.1099 49.4069 41.2274C49.2704 41.3487 49.1567 41.4928 49.0733 41.6595C48.9937 41.8187 48.9444 41.9969 48.9331 42.1864C48.9217 42.376 48.9444 42.5579 49.0013 42.7247V42.7285C49.062 42.9029 49.1529 43.0621 49.2742 43.1985C49.3917 43.335 49.5396 43.4487 49.7064 43.5321C49.8656 43.6117 50.0437 43.661 50.2333 43.6723C50.4228 43.6837 50.6047 43.661 50.7715 43.6041C50.9497 43.5435 51.1089 43.4487 51.2454 43.3312C51.3818 43.2137 51.4955 43.0659 51.5789 42.8991C51.6547 42.7399 51.704 42.5617 51.7192 42.3722C51.7306 42.1826 51.704 41.9969 51.6472 41.8301C51.5903 41.6558 51.4955 41.4966 51.378 41.3601C51.2567 41.2236 51.1127 41.1099 50.9459 41.0265Z" fill="#A05148"/>
<path d="M56.6316 28.4442C57.0865 28.52 57.5073 28.6868 57.8787 28.9218C58.2578 29.1606 58.5876 29.4752 58.8454 29.8429C59.1031 30.2068 59.2926 30.6237 59.3912 31.0597C59.4898 31.488 59.5049 31.9391 59.4291 32.3902C59.3495 32.845 59.1827 33.2658 58.9515 33.6373C58.7089 34.0201 58.3943 34.3461 58.0342 34.6039H58.0304C57.6627 34.8616 57.2495 35.0512 56.8098 35.1497C56.3852 35.2483 55.9341 35.2634 55.4793 35.1876C55.0244 35.108 54.6036 34.9412 54.2359 34.7062C53.8493 34.4636 53.5195 34.149 53.2617 33.7851H53.2655C53.0078 33.425 52.822 33.008 52.7197 32.5683C52.6249 32.14 52.606 31.6889 52.6856 31.2378C52.7614 30.7829 52.9282 30.3622 53.1632 29.9907C53.402 29.6117 53.7166 29.2819 54.0843 29.0241V29.0203C54.4444 28.7664 54.8576 28.5806 55.3011 28.4783C55.7295 28.3835 56.1805 28.3646 56.6316 28.4442ZM56.8022 30.6313C56.6544 30.5366 56.48 30.4721 56.2943 30.438C56.1009 30.4077 55.919 30.4115 55.7484 30.4532C55.5702 30.4911 55.3997 30.5707 55.248 30.6768L55.2443 30.673C55.1002 30.7754 54.9751 30.9118 54.8728 31.071C54.7818 31.2189 54.7136 31.3895 54.6832 31.579C54.6491 31.7685 54.6567 31.9543 54.6946 32.1248C54.7325 32.303 54.8083 32.4698 54.9145 32.6176L54.9183 32.6214C55.0244 32.773 55.1571 32.8981 55.3125 32.9967C55.4603 33.0914 55.6309 33.1559 55.8204 33.19C56.01 33.2203 56.1957 33.2165 56.3663 33.1786C56.5482 33.1369 56.715 33.0611 56.8628 32.9588V32.955C57.0107 32.8488 57.1396 32.7124 57.2381 32.557C57.3329 32.4091 57.4011 32.2385 57.4314 32.049C57.4656 31.8595 57.458 31.6737 57.4201 31.5032C57.3784 31.3212 57.3026 31.1506 57.1964 31.0066C57.0941 30.8588 56.9614 30.7299 56.8022 30.6313Z" fill="#A05148"/>
<path d="M4.68892 87.7315V94.3044H0.845215V75.647H8.11943C9.51818 75.647 10.7539 75.9048 11.8153 76.4165C12.8767 76.9283 13.6955 77.6599 14.2678 78.5999C14.8402 79.5438 15.1245 80.6203 15.1245 81.8219C15.1245 83.649 14.4991 85.0932 13.2482 86.147C11.9973 87.2008 10.2687 87.7315 8.05499 87.7315H4.68892ZM4.68892 84.6156H8.11943C9.13532 84.6156 9.91241 84.3768 10.4469 83.8992C10.9814 83.4216 11.2467 82.7355 11.2467 81.8485C11.2467 80.9349 10.9776 80.1958 10.4393 79.631C9.90103 79.0662 9.15807 78.7781 8.20662 78.7629H4.68892V84.6156ZM23.9036 94.5621C21.8681 94.5621 20.2153 93.9367 18.9379 92.6896C17.6605 91.4425 17.0236 89.7822 17.0236 87.7049V87.3448C17.0236 85.9537 17.289 84.7104 17.8272 83.6111C18.3655 82.5118 19.1312 81.6665 20.1168 81.0752C21.1024 80.4801 22.2282 80.1844 23.4904 80.1844C25.3896 80.1844 26.8793 80.7833 27.971 81.9773C29.0589 83.1752 29.6047 84.8658 29.6047 87.0605V88.573H20.7764C20.8977 89.4789 21.2578 90.2067 21.8605 90.7526C22.4632 91.2984 23.2251 91.5751 24.1462 91.5751C25.5715 91.5751 26.6897 91.0596 27.4896 90.021L29.3091 92.0603C28.7518 92.845 28.0051 93.4591 27.0536 93.8988C26.106 94.3423 25.056 94.5621 23.9036 94.5621ZM23.4791 83.1827C22.7437 83.1827 22.1486 83.4329 21.6937 83.9257C21.235 84.4185 20.9431 85.1273 20.8143 86.0522H25.9657V85.7566C25.9506 84.9378 25.7269 84.301 25.2986 83.8575C24.874 83.4064 24.2637 83.1827 23.4791 83.1827ZM38.0844 94.5621C36.0526 94.5621 34.3961 93.9367 33.1187 92.6896C31.845 91.4425 31.2044 89.7822 31.2044 87.7049V87.3448C31.2044 85.9537 31.4735 84.7104 32.0118 83.6111C32.5463 82.5118 33.312 81.6665 34.2975 81.0752C35.2869 80.4801 36.4089 80.1844 37.6712 80.1844C39.5703 80.1844 41.0638 80.7833 42.1517 81.9773C43.2396 83.1752 43.7855 84.8658 43.7855 87.0605V88.573H34.9571C35.0784 89.4789 35.4385 90.2067 36.0412 90.7526C36.6439 91.2984 37.4059 91.5751 38.327 91.5751C39.756 91.5751 40.8705 91.0596 41.6703 90.021L43.4898 92.0603C42.9326 92.845 42.1858 93.4591 41.2382 93.8988C40.2867 94.3423 39.2367 94.5621 38.0844 94.5621ZM37.6598 83.1827C36.9244 83.1827 36.3293 83.4329 35.8744 83.9257C35.4158 84.4185 35.1239 85.1273 34.995 86.0522H40.1465V85.7566C40.1313 84.9378 39.9077 84.301 39.4793 83.8575C39.0548 83.4064 38.4483 83.1827 37.6598 83.1827ZM58.3643 87.5002C58.3643 89.6381 57.8791 91.3477 56.9087 92.6327C55.9421 93.9177 54.6305 94.5621 52.9816 94.5621C51.5828 94.5621 50.4494 94.0769 49.5889 93.099V99.6339H45.8855V80.4422H49.3198L49.4487 81.7992C50.3471 80.7189 51.5146 80.1844 52.955 80.1844C54.6646 80.1844 55.9951 80.8174 56.9428 82.0797C57.8904 83.3457 58.3643 85.0856 58.3643 87.3069V87.5002ZM54.6608 87.2273C54.6608 85.9385 54.4334 84.9454 53.9747 84.2403C53.5198 83.5429 52.8565 83.1903 51.9846 83.1903C50.8209 83.1903 50.0249 83.6376 49.5889 84.5246V90.2029C50.04 91.1165 50.8474 91.5751 52.0112 91.5751C53.7776 91.5751 54.6608 90.1271 54.6608 87.2273ZM68.9591 92.8942C68.0417 94.0049 66.7795 94.5621 65.1647 94.5621C63.6787 94.5621 62.5453 94.1338 61.7645 93.2809C60.9836 92.428 60.5818 91.1733 60.5666 89.5244V80.4422H64.2701V89.3955C64.2701 90.8398 64.9296 91.56 66.2412 91.56C67.4959 91.56 68.3639 91.124 68.8302 90.2522V80.4422H72.5488V94.3044H69.0614L68.9591 92.8942ZM79.2469 94.3044H75.5282V74.6236H79.2469V94.3044ZM99.6025 90.4607H92.8628L91.5816 94.3044H87.4991L94.4397 75.647H98.0029L104.985 94.3044H100.899L99.6025 90.4607ZM93.9014 87.3448H98.5677L96.2213 80.3625L93.9014 87.3448ZM105.944 87.2728C105.944 85.1425 106.452 83.4291 107.461 82.129C108.476 80.8288 109.841 80.1844 111.554 80.1844C113.074 80.1844 114.261 80.7037 115.106 81.7499L115.258 80.4422H118.616V93.8381C118.616 95.0549 118.34 96.1087 117.79 97.0071C117.24 97.9016 116.463 98.5839 115.463 99.0578C114.462 99.524 113.294 99.759 111.952 99.759C110.937 99.759 109.943 99.5581 108.984 99.1525C108.018 98.7469 107.286 98.2238 106.793 97.5832L108.431 95.3316C109.356 96.3626 110.47 96.8782 111.786 96.8782C112.771 96.8782 113.533 96.6166 114.083 96.0897C114.629 95.5666 114.898 94.8199 114.898 93.8571V93.1141C114.045 94.0807 112.923 94.5621 111.532 94.5621C109.868 94.5621 108.518 93.9101 107.487 92.6062C106.46 91.3022 105.944 89.5775 105.944 87.4244V87.2728ZM109.648 87.5381C109.648 88.7928 109.902 89.7784 110.402 90.491C110.906 91.2037 111.596 91.56 112.476 91.56C113.605 91.56 114.413 91.1354 114.898 90.2939V84.4602C114.405 83.6149 113.605 83.1903 112.502 83.1903C111.615 83.1903 110.914 83.5542 110.41 84.282C109.902 85.006 109.648 86.0901 109.648 87.5381ZM129.249 83.9068C128.745 83.8423 128.298 83.8082 127.919 83.8082C126.512 83.8082 125.595 84.282 125.163 85.2297V94.3044H121.459V80.4422H124.958L125.057 82.0948C125.8 80.8212 126.827 80.1844 128.146 80.1844C128.555 80.1844 128.942 80.2412 129.298 80.3474L129.249 83.9068ZM134.935 94.3044H131.22V80.4422H134.935V94.3044ZM131 76.8562C131 76.299 131.19 75.8404 131.561 75.4803C131.933 75.1239 132.441 74.9458 133.078 74.9458C133.711 74.9458 134.215 75.1239 134.59 75.4803C134.965 75.8404 135.155 76.299 135.155 76.8562C135.155 77.4135 134.962 77.8797 134.582 78.236C134.203 78.5961 133.703 78.7743 133.078 78.7743C132.452 78.7743 131.956 78.5961 131.573 78.236C131.194 77.8797 131 77.4135 131 76.8562Z" fill="#05A155"/>
</svg>
