<svg width="20" height="20" viewBox="0 0 20 20" fill="none" xmlns="http://www.w3.org/2000/svg">
<g id="mail 1">
<path id="Vector" d="M17.8469 6.97912L10.3469 1.97912C10.2441 1.91059 10.1235 1.87402 10 1.87402C9.8765 1.87402 9.75586 1.91059 9.65314 1.97912L2.15313 6.97912C2.06751 7.03624 1.99732 7.11362 1.94881 7.20435C1.90029 7.29514 1.87494 7.39649 1.875 7.49942V15.6244C1.875 15.9559 2.00669 16.2739 2.24111 16.5083C2.47554 16.7427 2.79348 16.8744 3.125 16.8744H16.875C17.2065 16.8744 17.5244 16.7427 17.7589 16.5083C17.9933 16.2739 18.125 15.9559 18.125 15.6244V7.49942C18.1251 7.39649 18.0997 7.29514 18.0512 7.20435C18.0026 7.11362 17.9325 7.03624 17.8469 6.97912ZM10 3.25021L16.3992 7.51664L11.1649 11.2494H8.83671L3.60234 7.51664L10 3.25021ZM3.125 15.6244V8.71271L8.27343 12.3846C8.37943 12.4603 8.50643 12.501 8.63671 12.501H11.3633C11.4936 12.501 11.6206 12.4603 11.7266 12.3846L16.875 8.71271V15.6244H3.125Z" fill="#35353D"/>
</g>
</svg>
