<svg width="454" height="420" viewBox="0 0 454 420" fill="none" xmlns="http://www.w3.org/2000/svg">
<path d="M228.31 212.892L172.54 213.161L144.658 213.237L130.714 213.274C126.125 213.392 121.236 213.146 116.624 212.09C111.958 211.118 107.524 209.2 103.43 206.797C99.3242 204.391 95.5858 201.337 92.468 197.731C89.3426 194.148 86.6561 190.141 84.7604 185.755C82.8761 181.37 81.6539 176.716 81.0977 171.971C80.7269 167.151 80.8858 162.576 80.848 157.914L80.8404 143.971L80.8215 116.088C80.8479 97.4797 80.7155 78.9543 80.8669 60.2775C80.9463 55.4948 81.949 50.7462 83.5572 46.2511C85.1463 41.7446 87.4507 37.4765 90.4172 33.723C93.3572 29.9619 96.8042 26.5678 100.758 23.8624C104.716 21.1721 109.064 19.0759 113.634 17.6419C118.213 16.2305 123.045 15.7197 127.778 15.6516L141.721 15.644L169.604 15.6251L225.373 15.5911L336.908 15.523C341.57 15.5419 346.174 15.47 350.878 15.5608C355.687 15.5721 360.451 16.5673 364.999 18.0619C369.57 19.5527 373.834 21.9062 377.671 24.7743C381.5 27.6538 384.962 31.0743 387.686 35.0321C390.433 38.9597 392.647 43.277 394.111 47.8554C395.515 52.4489 396.211 57.2354 396.279 62.0256L396.245 89.9084L396.177 145.678L396.158 159.621L396.151 166.591C396.166 167.745 396.052 168.967 396.003 170.151L395.908 171.941L395.647 173.715C395.057 178.464 393.585 183.088 391.493 187.379C389.408 191.669 386.718 195.699 383.365 199.112C380.051 202.548 376.248 205.514 372.063 207.834C367.844 210.081 363.304 211.693 358.619 212.632C353.916 213.585 349.08 213.445 344.494 213.46L330.551 213.441L274.782 213.369C274.154 213.369 273.647 212.858 273.647 212.234C273.647 211.606 274.154 211.099 274.782 211.099L330.551 211.027L344.494 211.008C349.183 210.981 353.716 211.099 358.154 210.187C362.581 209.287 366.868 207.754 370.856 205.62C374.806 203.418 378.39 200.603 381.519 197.349C384.682 194.118 387.21 190.3 389.166 186.247C391.133 182.195 392.511 177.832 393.052 173.348L393.298 171.676L393.381 169.985C393.419 168.849 393.528 167.752 393.513 166.583L393.506 159.613L393.487 145.67L393.415 89.9008C392.533 71.5948 396.896 51.5711 385.272 36.7462C382.714 33.0457 379.46 29.8559 375.877 27.1657C372.29 24.4792 368.306 22.2657 364.034 20.8732C359.781 19.4732 355.331 18.5273 350.825 18.5159C346.243 18.4175 341.547 18.4857 336.916 18.4592L225.381 18.3911L169.612 18.357L141.729 18.3381L127.786 18.3305C123.238 18.3986 118.75 18.8678 114.418 20.1921C110.116 21.5392 106.018 23.5067 102.283 26.0381C98.5523 28.5808 95.302 31.7857 92.5209 35.3235C89.7172 38.8576 87.5415 42.8835 86.0393 47.1289C84.5182 51.3629 83.5609 55.8354 83.4853 60.3532C83.315 78.8484 83.4172 97.5062 83.3718 116.073L83.3528 143.956L83.3453 157.899C83.368 162.531 83.2393 167.256 83.5496 171.714C84.0566 176.209 85.188 180.621 86.9474 184.791C88.7182 188.96 91.2534 192.774 94.2009 196.199C97.1409 199.642 100.686 202.567 104.58 204.879C108.466 207.183 112.673 209.04 117.116 209.986C121.565 211.012 126.026 211.28 130.722 211.19L144.665 211.228L172.548 211.303L228.317 211.572C228.677 211.572 228.968 211.867 228.964 212.227C228.964 212.582 228.673 212.873 228.317 212.873L228.31 212.892Z" fill="#84C06F"/>
<path d="M188.777 161.713C215.795 161.713 237.698 139.81 237.698 112.793C237.698 85.7746 215.795 63.8722 188.777 63.8722C161.759 63.8722 139.856 85.7746 139.856 112.793C139.856 139.81 161.759 161.713 188.777 161.713Z" fill="#84C06F"/>
<path d="M227.651 118.427C227.735 131.428 222.43 144.368 213.209 153.574C204.056 162.852 191.123 168.255 178.061 168.248C164.999 168.331 151.998 163.004 142.747 153.737C133.428 144.542 127.998 131.549 128.005 118.423C127.998 105.301 133.428 92.3035 142.747 83.1089C151.998 73.8424 164.999 68.5149 178.061 68.5981C191.126 68.5906 204.056 73.9976 213.209 83.2716C222.433 92.4814 227.735 105.418 227.651 118.419V118.427ZM226.308 118.427C226.308 105.77 221.083 93.257 212.092 84.3916C203.166 75.4581 190.65 70.3311 178.057 70.4106C165.461 70.4106 153.012 75.6133 144.185 84.5581C135.297 93.4387 130.192 105.895 130.272 118.431C130.192 130.966 135.297 143.422 144.185 152.303C153.009 161.248 165.461 166.451 178.057 166.451C190.65 166.53 203.17 161.403 212.092 152.469C221.079 143.6 226.308 131.087 226.308 118.434V118.427Z" fill="#15181A"/>
<path d="M144.575 154.891C144.408 146.12 147.882 137.266 154.151 130.985C160.334 124.625 169.169 120.95 178.057 120.973C182.492 120.973 186.942 121.832 191.043 123.546C195.137 125.268 198.879 127.806 201.993 130.955C208.248 137.258 211.703 146.146 211.4 154.891C211.392 155.19 211.143 155.425 210.844 155.417C210.556 155.409 210.329 155.175 210.318 154.891C210.072 146.426 206.466 138.258 200.51 132.438C194.589 126.577 186.363 123.221 178.057 123.206C169.741 123.172 161.511 126.558 155.574 132.408C149.633 138.246 146.046 146.457 145.937 154.891C145.933 155.265 145.623 155.568 145.248 155.565C144.881 155.561 144.582 155.258 144.575 154.891Z" fill="#15181A"/>
<path d="M160.315 105.373C160.3 100.722 162.214 96.1062 165.514 92.8333C168.802 89.5489 173.422 87.6646 178.053 87.7025C182.7 87.7441 187.199 89.8138 190.313 93.1133C193.453 96.3825 195.341 100.825 195.391 105.373C195.455 109.906 193.726 114.507 190.494 117.814C187.309 121.147 182.734 123.157 178.053 123.225C173.384 123.236 168.704 121.34 165.442 117.98C162.15 114.662 160.27 110.019 160.311 105.369L160.315 105.373ZM162.362 105.373C162.373 109.493 164.091 113.546 167.024 116.406C169.945 119.271 173.959 120.973 178.057 120.954C182.144 121.053 186.268 119.464 189.257 116.573C192.25 113.705 194.123 109.607 194.153 105.373C194.233 101.15 192.519 96.9008 189.439 93.9873C186.374 91.0662 182.178 89.5338 178.057 89.6057C173.922 89.6133 169.843 91.3273 166.952 94.2673C164.031 97.1733 162.343 101.252 162.358 105.373H162.362Z" fill="#15181A"/>
<path d="M261.785 76.3359C262.72 75.8024 263.658 75.9272 264.593 75.9235L267.4 75.9575L273.015 76.0256L284.246 76.1656L306.706 76.5629C314.194 76.7105 321.679 76.7862 329.167 76.8505C336.655 76.9413 344.139 76.9867 351.627 76.3359C352.255 76.2829 352.808 76.7445 352.861 77.3726C352.917 78.0007 352.452 78.5532 351.824 78.6062C351.76 78.6099 351.688 78.6099 351.627 78.6062C344.139 77.9516 336.651 78.0008 329.167 78.0916C321.679 78.1521 314.19 78.2278 306.706 78.3791L284.246 78.7764L273.015 78.9164L267.4 78.9845L264.593 79.0186C263.658 79.0186 262.72 79.1397 261.785 78.6062C261.157 78.2505 260.937 77.4521 261.297 76.824C261.418 76.6159 261.588 76.4494 261.785 76.3359Z" fill="#84C06F"/>
<path d="M261.785 116.633C262.807 116.172 263.824 116.126 264.846 116.134L267.907 116.145L274.029 116.168L286.274 116.232C294.435 116.308 302.601 116.433 310.766 116.633C311.088 116.641 311.341 116.906 311.334 117.227C311.326 117.538 311.072 117.784 310.766 117.795C302.601 117.992 294.439 118.12 286.274 118.196L274.029 118.26L267.907 118.283L264.846 118.294C263.824 118.302 262.807 118.256 261.785 117.795C261.463 117.651 261.323 117.272 261.467 116.951C261.535 116.803 261.649 116.694 261.785 116.633Z" fill="#84C06F"/>
<path d="M261.785 156.348C263.325 155.905 264.865 155.939 266.409 155.958L271.033 155.996L280.276 156.072L298.764 156.219C311.091 156.291 323.415 156.427 335.743 156.651C335.909 156.651 336.042 156.791 336.042 156.957C336.042 157.12 335.906 157.252 335.743 157.256C323.415 157.479 311.091 157.619 298.764 157.687L280.276 157.835L271.033 157.911L266.409 157.948C264.869 157.967 263.329 158.001 261.785 157.559C261.452 157.464 261.259 157.116 261.354 156.783C261.414 156.571 261.584 156.412 261.785 156.352V156.348Z" fill="#84C06F"/>
<path d="M411.407 145.946C414.226 151.353 416.712 156.938 418.839 162.666C419.062 163.268 418.755 163.942 418.154 164.165C417.552 164.388 416.879 164.082 416.655 163.48C416.655 163.473 416.648 163.461 416.648 163.458C414.676 157.778 412.349 152.223 409.682 146.828C409.443 146.347 409.64 145.768 410.121 145.534C410.594 145.299 411.165 145.488 411.407 145.954V145.946Z" fill="#15181A"/>
<path d="M424.026 180.227C425.369 186.187 426.338 192.233 426.917 198.318C426.985 199.052 426.448 199.706 425.714 199.774C424.979 199.842 424.329 199.305 424.257 198.571V198.56C423.731 192.585 422.83 186.641 421.551 180.776C421.404 180.091 421.835 179.417 422.52 179.266C423.201 179.118 423.875 179.546 424.026 180.227Z" fill="#15181A"/>
<path d="M427.492 216.631C427.295 222.741 426.72 228.841 425.752 234.88C425.623 235.682 424.87 236.227 424.068 236.099C423.266 235.97 422.721 235.217 422.849 234.414V234.407C423.829 228.497 424.45 222.522 424.685 216.533C424.715 215.757 425.369 215.155 426.141 215.186C426.913 215.216 427.515 215.863 427.492 216.635V216.631Z" fill="#15181A"/>
<path d="M421.635 252.739C419.89 258.597 417.779 264.344 415.32 269.937C415.013 270.633 414.199 270.951 413.503 270.644C412.807 270.338 412.485 269.532 412.792 268.832C415.179 263.334 417.223 257.685 418.903 251.933C419.122 251.177 419.913 250.745 420.67 250.965C421.427 251.184 421.858 251.975 421.638 252.732V252.739H421.635Z" fill="#15181A"/>
<path d="M406.904 286.2C403.764 291.436 400.29 296.476 396.518 301.274C396.079 301.834 395.269 301.929 394.709 301.49C394.149 301.051 394.051 300.245 394.49 299.685C398.175 294.952 401.558 289.987 404.615 284.834C404.99 284.202 405.811 283.99 406.443 284.368C407.075 284.743 407.286 285.56 406.908 286.196V286.204L406.904 286.2Z" fill="#15181A"/>
<path d="M384.308 314.913C379.96 319.2 375.329 323.199 370.448 326.866C369.937 327.252 369.21 327.146 368.824 326.635C368.446 326.128 368.541 325.413 369.04 325.027C373.777 321.338 378.295 317.372 382.56 313.146C383.048 312.662 383.835 312.665 384.319 313.153C384.803 313.642 384.8 314.429 384.311 314.913H384.308Z" fill="#15181A"/>
<path d="M355.173 336.931L347.745 340.904C347.276 341.157 346.689 340.979 346.436 340.506C346.186 340.041 346.356 339.462 346.818 339.205L346.867 339.178L354.14 335.152L354.193 335.122C354.688 334.846 355.313 335.028 355.589 335.523C355.865 336.019 355.683 336.643 355.188 336.919C355.188 336.919 355.176 336.923 355.173 336.927V336.931Z" fill="#15181A"/>
<path d="M265.637 258.768C279.107 255.489 287.371 241.909 284.094 228.437C280.814 214.965 267.234 206.702 253.763 209.981C240.29 213.26 232.027 226.84 235.306 240.312C238.585 253.784 252.167 262.047 265.637 258.768Z" fill="#84C06F"/>
<path d="M263.136 303.775C256.957 324.52 268.766 346.345 289.512 352.524C310.259 358.703 332.084 346.893 338.263 326.147C338.263 326.147 327.853 323.048 322.802 304.704C319.904 294.18 321.342 245.645 321.342 245.645C321.342 245.645 297.246 285.784 290.008 292.802C275.414 306.956 263.136 303.775 263.136 303.775Z" fill="#84C06F"/>
<path d="M257.184 305.4C257.259 306.384 257.297 307.073 257.025 307.886L256.382 311.47C256.257 312.692 256.219 313.925 256.128 315.155C256.121 316.385 256.208 317.618 256.242 318.856C256.688 323.778 258.115 328.637 260.472 333.011C265.179 341.778 273.465 348.498 283.008 351.302C292.532 354.166 303.142 353.069 311.867 348.301C320.649 343.605 327.256 335.228 329.988 325.731L330.971 327.551H330.968C327.002 325.977 324.361 323.279 321.977 320.331C319.696 317.331 317.974 313.993 316.653 310.546C315.98 308.825 315.454 307.062 314.951 305.295C314.716 304.398 314.572 303.446 314.383 302.526L314.069 299.791C313.744 296.155 313.577 292.537 313.502 288.924C313.206 274.47 313.592 260.058 314.133 245.645V245.63L314.754 245.811C307.47 258.317 300.084 270.75 292.131 282.885C290.091 285.897 288.094 288.916 285.774 291.811C283.326 294.788 280.518 297.101 277.488 299.329C274.445 301.498 271.085 303.302 267.453 304.481C265.644 305.083 263.756 305.503 261.83 305.718C260.869 305.839 259.893 305.889 258.905 305.873C258.414 305.877 257.914 305.843 257.415 305.805L256.65 305.718L256.253 305.658L256.052 305.624C255.897 305.597 256.321 305.684 256.518 305.639C256.764 305.609 257.006 305.514 257.188 305.389L257.184 305.4ZM255.349 302.148C255.583 302.034 255.882 301.952 256.181 301.936C256.431 301.902 256.911 302.004 256.813 301.989L256.945 302.016L257.218 302.069L257.797 302.156C258.198 302.198 258.595 302.243 259.011 302.25C259.829 302.292 260.665 302.281 261.501 302.205C263.17 302.08 264.85 301.773 266.484 301.289C269.769 300.351 272.913 298.814 275.819 296.892C278.672 294.959 281.57 292.707 283.799 290.161C286.099 287.493 288.207 284.55 290.322 281.647C298.646 269.876 306.475 257.7 314.186 245.479C314.285 245.32 314.489 245.274 314.648 245.368C314.75 245.433 314.807 245.547 314.807 245.66V245.675C314.641 260.076 314.633 274.504 315.303 288.867C315.473 292.454 315.734 296.038 316.139 299.572L316.51 302.197C316.71 303.033 316.85 303.87 317.092 304.704C317.622 306.392 318.167 308.068 318.852 309.688C320.191 312.93 321.898 316.01 324.055 318.7C325.163 320.013 326.344 321.255 327.664 322.318C328.939 323.355 330.51 324.3 331.811 324.755L331.94 324.808C332.644 325.088 333.011 325.863 332.795 326.578C329.726 336.802 322.424 345.558 313.093 350.579C303.777 355.66 292.434 356.83 282.278 353.761C272.099 350.764 263.253 343.579 258.243 334.229C255.719 329.575 254.058 324.444 253.449 319.162C253.351 317.838 253.196 316.513 253.146 315.185C253.177 313.857 253.162 312.518 253.237 311.19C253.396 309.846 253.491 308.579 253.688 307.156C254.021 305.476 254.668 303.677 255.349 302.167V302.148Z" fill="#15181A"/>
<path d="M298.215 302.901C295.253 310.997 293.156 319.404 291.317 327.842C289.501 336.291 288.007 344.812 286.747 353.364C285.502 361.919 284.529 370.508 283.799 379.105C283.095 387.698 282.634 396.34 283.008 404.876V404.903C283.042 405.686 282.437 406.352 281.654 406.386C280.87 406.42 280.204 405.811 280.17 405.028C280.17 405.028 280.17 405.012 280.17 405.009C279.89 396.227 280.466 387.531 281.275 378.874C282.104 370.217 283.319 361.613 284.722 353.042C286.164 344.48 287.836 335.955 289.834 327.502C291.855 319.06 294.129 310.652 297.288 302.534C297.387 302.277 297.678 302.152 297.931 302.251C298.185 302.349 298.306 302.64 298.215 302.893V302.901Z" fill="#15181A"/>
<path d="M224.144 330.676C224.64 331.709 225.139 332.977 225.415 334.191C225.593 335.213 225.699 336.125 225.843 337.101C225.922 338.066 225.934 339.038 225.979 340.003C225.964 340.972 225.881 341.94 225.832 342.909C225.446 346.769 224.288 350.552 222.449 353.969C218.79 360.829 212.308 366.119 204.839 368.332C197.389 370.599 189.049 369.759 182.193 366.032C175.311 362.362 170.002 355.857 167.781 348.362C167.576 347.665 167.913 346.943 168.549 346.64L168.765 346.538C169.597 346.254 170.744 345.584 171.633 344.862C172.564 344.12 173.407 343.242 174.198 342.315C175.738 340.412 176.968 338.221 177.936 335.902C178.432 334.744 178.829 333.544 179.212 332.337C179.389 331.739 179.488 331.153 179.632 330.559L179.908 328.678C180.211 326.139 180.411 323.551 180.544 320.959C181.073 310.584 181.111 300.15 181.032 289.737V289.722C181.032 289.507 181.202 289.333 181.414 289.329C181.554 289.329 181.679 289.401 181.747 289.51C187.286 298.372 192.916 307.198 198.902 315.734C200.424 317.838 201.941 319.976 203.598 321.913C205.206 323.763 207.295 325.402 209.357 326.809C211.457 328.213 213.731 329.333 216.111 330.025C217.299 330.381 218.514 330.612 219.728 330.706C220.334 330.763 220.943 330.775 221.541 330.748C221.844 330.744 222.135 330.71 222.426 330.684L222.85 330.623L223.051 330.585L223.145 330.566C223.081 330.578 223.402 330.51 223.569 330.532C223.773 330.544 223.974 330.6 224.133 330.672L224.144 330.676ZM222.918 332.848C223.035 332.931 223.198 332.996 223.361 333.018C223.489 333.049 223.773 332.992 223.667 333.011L223.524 333.037L223.24 333.083L222.691 333.147C222.332 333.173 221.972 333.2 221.62 333.2C220.909 333.211 220.209 333.177 219.516 333.094C218.128 332.946 216.769 332.647 215.46 332.216C212.838 331.376 210.405 330.082 208.203 328.523C206.008 326.919 203.973 325.254 202.194 323.112C200.507 321.024 199.054 318.844 197.571 316.672C191.781 307.917 186.405 298.943 181.096 289.919L181.811 289.711V289.726C182.246 300.154 182.572 310.577 182.401 321.043C182.356 323.661 182.246 326.279 182.023 328.924L181.8 330.918C181.663 331.596 181.561 332.303 181.391 332.958C181.028 334.248 180.653 335.535 180.165 336.795C179.212 339.315 177.959 341.763 176.291 343.976C174.527 346.156 172.639 348.142 169.612 349.353L170.596 347.533C172.571 354.306 177.324 360.193 183.544 363.55C189.742 366.951 197.279 367.75 204.064 365.725C210.859 363.743 216.769 358.971 220.141 352.728C221.832 349.618 222.911 346.175 223.285 342.652C223.331 341.766 223.418 340.885 223.436 339.999C223.395 339.114 223.391 338.229 223.327 337.347L222.967 334.747C222.805 334.157 222.865 333.624 222.922 332.856L222.918 332.848Z" fill="#15181A"/>
<path d="M193.987 330.82C198.762 342.633 202.534 354.805 205.838 367.11C207.442 373.274 208.944 379.479 210.045 385.783C211.108 392.087 212.047 398.459 211.786 405.016C211.756 405.799 211.093 406.412 210.31 406.378C209.534 406.348 208.929 405.701 208.948 404.929V404.88C209.077 398.731 208.354 392.443 207.359 386.233C206.337 380.017 205.115 373.808 203.673 367.648C202.232 361.484 200.62 355.358 198.857 349.273C197.074 343.197 195.228 337.131 193.06 331.183C192.965 330.926 193.094 330.638 193.351 330.544C193.601 330.449 193.885 330.578 193.987 330.824V330.82Z" fill="#15181A"/>
<path d="M251.868 231.717C248.829 245.899 246.763 260.285 244.94 274.686C243.146 289.091 241.682 303.541 240.456 318.004C239.218 332.47 238.333 346.962 237.576 361.45C236.838 375.938 236.434 390.449 236.638 404.907V404.922C236.649 405.705 236.021 406.352 235.238 406.363C234.462 406.375 233.823 405.758 233.796 404.986C233.35 390.388 233.955 375.828 234.708 361.298C235.491 346.765 236.74 332.269 238.151 317.792C239.601 303.321 241.281 288.871 243.297 274.466C245.341 260.069 247.63 245.687 250.895 231.494C250.956 231.225 251.224 231.059 251.493 231.119C251.758 231.18 251.924 231.452 251.868 231.717Z" fill="#84C06F"/>
<path d="M282.546 217.223C290.504 209.264 290.504 196.361 282.546 188.402C274.585 180.443 261.682 180.443 253.725 188.402C245.765 196.361 245.765 209.264 253.725 217.223C261.682 225.182 274.585 225.182 282.546 217.223Z" fill="#84C06F"/>
<path d="M242.317 208.14C241.931 208.409 242.219 209.177 242.056 208.632L241.825 207.891C241.685 207.391 241.557 206.892 241.451 206.388C241.239 205.378 241.076 204.36 241 203.339C240.929 202.317 240.894 201.288 241 200.274L241.129 198.753L241.405 197.251C242.23 193.281 244.114 189.524 246.914 186.645C252.427 180.772 261.259 178.456 268.838 180.935C276.417 183.322 282.334 190.224 283.326 198.125C284.544 205.991 280.707 214.278 274.029 218.618L274.214 217.698C280.393 226.405 280.227 239.02 273.76 247.647C270.646 252.009 266.079 255.286 260.99 257.031C258.429 257.859 255.75 258.336 253.052 258.393C250.354 258.396 247.656 258.041 245.049 257.292C239.877 255.691 235.166 252.52 231.878 248.176C230.194 246.042 228.866 243.625 227.961 241.055C227.042 238.498 226.456 235.796 226.399 233.068C226.145 227.623 227.67 222.099 230.674 217.524C232.169 215.235 234.019 213.176 236.142 211.444C237.205 210.577 238.337 209.801 239.51 209.094L241.322 208.118C241.647 207.951 241.848 208.068 242.321 208.14H242.317ZM245.231 209.385C244.523 209.972 243.532 210.592 242.684 210.955L241.076 211.799C240.032 212.416 239.025 213.089 238.079 213.842C236.187 215.356 234.526 217.165 233.179 219.181C230.474 223.211 229.063 228.096 229.24 232.969C229.259 235.41 229.766 237.828 230.565 240.125C231.348 242.433 232.517 244.612 234.012 246.546C236.933 250.473 241.129 253.391 245.779 254.949C248.129 255.672 250.573 256.043 253.04 256.088C255.507 256.081 257.963 255.691 260.328 254.98C265.02 253.47 269.307 250.538 272.273 246.538C275.319 242.603 277.018 237.665 277.181 232.671C277.382 227.668 275.921 222.621 273.132 218.44C272.928 218.141 273.007 217.732 273.306 217.528L273.321 217.52C276.443 215.504 279.054 212.628 280.605 209.222C282.16 205.832 282.77 201.988 282.225 198.284C281.328 190.829 275.72 184.166 268.493 182.085C264.91 181.056 261.047 180.961 257.471 181.994C255.685 182.49 253.952 183.216 252.412 184.249C250.842 185.229 249.431 186.452 248.235 187.852C245.802 190.602 244.179 194.065 243.698 197.659L243.539 199.01L243.52 200.368C243.483 201.269 243.577 202.173 243.698 203.059C243.831 203.948 244.016 204.826 244.281 205.681C244.413 206.108 244.561 206.528 244.72 206.945L244.973 207.561C244.973 207.471 245.446 208.681 245.238 209.396L245.231 209.385Z" fill="#15181A"/>
<path d="M130.677 200.86C68.1082 175.607 9.04712 234.668 34.3001 297.237C41.0163 313.872 54.3239 327.18 70.9612 333.896C133.53 359.149 192.591 300.09 167.338 237.521C160.622 220.884 147.314 207.576 130.677 200.86ZM121.066 269.752L143.931 292.617C145.244 293.93 145.244 296.057 143.931 297.366L130.809 310.486C129.496 311.799 127.37 311.799 126.061 310.486L103.195 287.622C101.882 286.309 99.7558 286.309 98.4466 287.622L75.5812 310.486C74.2682 311.799 72.1417 311.799 70.8325 310.486L57.7104 297.366C56.3974 296.053 56.3974 293.926 57.7104 292.617L80.5758 269.752C81.8888 268.439 81.8888 266.312 80.5758 265.003L57.7104 242.138C56.3974 240.825 56.3974 238.698 57.7104 237.389L70.8325 224.267C72.1455 222.954 74.272 222.954 75.5812 224.267L98.4466 247.132C99.7596 248.445 101.886 248.445 103.195 247.132L126.061 224.267C127.374 222.954 129.5 222.954 130.809 224.267L143.931 237.389C145.244 238.702 145.244 240.828 143.931 242.138L121.066 265.003C119.753 266.316 119.753 268.442 121.066 269.752Z" fill="#8FCB8F"/>
<path d="M95.1734 344.786C102.215 344.608 109.242 343.689 115.996 341.661C122.697 339.504 129.125 336.522 135.005 332.636C140.798 328.633 146.039 323.869 150.576 318.489C154.98 312.991 158.582 306.899 161.359 300.442C164.016 293.919 165.646 287.036 166.475 280.051C166.853 273.028 166.649 265.983 165.355 259.062C163.887 252.199 161.605 245.501 158.329 239.269C154.942 233.109 150.742 227.415 145.85 222.352C140.81 217.433 135.134 213.207 128.978 209.786C122.753 206.475 116.056 204.156 109.177 202.654C102.249 201.333 95.1658 201.023 88.1356 201.572C81.1356 202.381 74.2188 203.974 67.6766 206.642C66.0496 207.312 64.4869 208.14 62.8864 208.882C62.1031 209.287 61.2631 209.586 60.5064 210.036L58.2172 211.364C55.0502 212.961 52.1669 215.034 49.3102 217.142C43.888 221.732 39.1507 227.074 35.1588 232.928C31.2956 238.88 28.3442 245.369 26.2329 252.115C24.2199 258.915 23.4896 265.994 23.4139 273.032V273.066C23.4102 273.471 23.0772 273.796 22.6723 273.793C22.2675 273.789 21.942 273.456 21.9458 273.051C21.9458 273.047 21.9458 273.036 21.9458 273.032C22.2031 265.843 23.3156 258.722 25.3815 251.858C27.6064 245.055 30.6712 238.539 34.648 232.587C38.7345 226.719 43.6118 221.448 49.068 216.847C51.921 214.713 54.5961 212.314 57.6723 210.456C60.6161 208.386 63.9572 207.001 67.1923 205.469C73.8367 202.722 80.8745 201.065 88.0069 200.209C95.1658 199.615 102.389 199.899 109.465 201.212C116.491 202.714 123.347 205.049 129.719 208.405C136.027 211.871 141.854 216.166 147.03 221.175C152.063 226.329 156.387 232.141 159.887 238.441C163.274 244.809 165.65 251.665 167.186 258.707C168.526 265.79 168.912 273.051 168.151 280.218C167.319 287.361 165.696 294.433 162.941 301.1C160.08 307.705 156.372 313.933 151.851 319.541C147.197 325.035 141.824 329.889 135.891 333.964C129.871 337.918 123.294 340.949 116.442 343.132C109.537 345.187 102.359 346.106 95.1772 346.262C94.7723 346.269 94.4356 345.948 94.428 345.543C94.4204 345.138 94.7421 344.801 95.1469 344.794H95.1772L95.1734 344.786Z" fill="#D83F3F"/>
<path d="M52.7649 241.562L60.552 233.503L64.4455 229.473L65.4179 228.467C65.6903 228.16 66.2087 227.672 66.7082 227.434C67.7449 226.885 69.0125 226.798 70.1249 227.206C70.6811 227.407 71.1957 227.729 71.6233 228.141L72.6336 229.117L74.6352 231.078L78.6347 235.001L86.6336 242.849L94.6325 250.696C95.5368 251.646 96.9557 251.642 97.8487 250.639L101.799 246.666L117.596 230.767L119.571 228.781L120.582 227.77C121.051 227.316 121.622 226.961 122.243 226.738C123.48 226.287 124.895 226.378 126.064 226.999C126.624 227.267 127.222 227.842 127.48 228.115L128.467 229.106L136.371 237.048L140.337 241.036C141.249 241.971 141.733 243.31 141.638 244.608C141.597 245.259 141.419 245.898 141.112 246.477C140.848 247.03 140.276 247.628 140 247.885L132.058 255.789L124.116 263.693L120.147 267.647L118.16 269.623C117.865 269.926 117.422 270.346 117.244 270.546C117.051 270.769 116.911 271.026 116.824 271.306C116.658 271.866 116.737 272.502 117.04 273.002C117.112 273.127 117.203 273.244 117.305 273.354L117.77 273.827L118.758 274.818L122.712 278.787L130.616 286.729L138.521 294.671L139.508 295.663C139.837 296.011 140.144 296.253 140.575 296.806C141.34 297.816 141.638 299.147 141.396 300.381C141.275 300.998 141.022 301.592 140.662 302.107C140.257 302.667 139.887 302.966 139.58 303.287L137.594 305.261L129.651 313.165L127.665 315.14C127.131 315.708 126.095 316.771 124.854 316.99C123.643 317.278 122.315 317.036 121.293 316.317C121.043 316.15 120.786 315.912 120.604 315.734L120.109 315.238L119.121 314.247L103.309 298.368L99.3547 294.399L98.3671 293.408L97.8714 292.912C97.7428 292.787 97.6292 292.693 97.493 292.594C96.9595 292.235 96.2671 292.118 95.639 292.276C94.9768 292.416 94.5909 292.836 93.8568 293.585L91.8703 295.561L87.9011 299.515L72.0206 315.325C71.733 315.617 71.2828 316.082 70.753 316.373C70.2309 316.672 69.6482 316.858 69.0541 316.918C67.866 317.047 66.6325 316.638 65.7509 315.836L61.7703 311.822L53.8963 303.847C53.2493 303.124 52.5757 302.678 51.8909 301.618C51.3082 300.616 51.172 299.375 51.5314 298.278C51.7055 297.729 52.0006 297.218 52.3828 296.794C52.7649 296.382 53.0601 296.113 53.4044 295.769L55.3984 293.801L63.3747 285.927L71.3509 278.053L75.339 274.118C76.6671 273.055 76.7503 271.046 75.5963 269.907C75.3919 269.702 75.3882 269.369 75.5963 269.161C75.8006 268.957 76.1374 268.96 76.3417 269.161C77.1136 269.918 77.5411 271.015 77.4882 272.098C77.473 273.172 76.8714 274.269 76.1336 274.913L72.1984 278.9L64.3244 286.877L56.4503 294.853L54.4828 296.847C54.1725 297.169 53.7865 297.54 53.5406 297.816C53.3022 298.088 53.1282 298.406 53.0222 298.747C52.8028 299.432 52.9049 300.207 53.272 300.812C53.586 301.342 54.4411 302.046 55.0541 302.693L63.0303 310.565L66.9882 314.459C67.4952 314.909 68.1914 315.129 68.8611 315.045C69.1941 315.004 69.5195 314.898 69.8071 314.728C70.0984 314.561 70.3066 314.345 70.6736 313.975L86.486 298.096L90.4401 294.126L92.4152 292.14C92.7747 291.796 92.9941 291.52 93.5125 291.085C93.9893 290.706 94.553 290.43 95.1433 290.282C96.3238 289.976 97.633 290.188 98.6546 290.873C98.9044 291.043 99.1503 291.247 99.3547 291.448L99.8503 291.943L100.842 292.931L104.811 296.885L120.695 312.696L121.687 313.683L122.182 314.179C122.337 314.326 122.424 314.402 122.561 314.501C123.071 314.86 123.741 314.977 124.347 314.83C124.997 314.682 125.338 314.33 126.08 313.566L128.055 311.579L135.959 303.639L137.934 301.653C138.275 301.305 138.619 300.987 138.748 300.779C138.922 300.529 139.043 300.245 139.1 299.946C139.213 299.345 139.062 298.701 138.695 298.22C138.558 298.031 138.154 297.653 137.84 297.332L136.848 296.344L128.906 288.44L120.964 280.535L116.995 276.581L116.003 275.594L115.485 275.067C115.265 274.837 115.069 274.58 114.902 274.307C114.229 273.21 114.051 271.836 114.414 270.607C114.596 269.99 114.91 269.415 115.326 268.927C115.769 268.431 116.018 268.219 116.37 267.852L118.345 265.865L122.3 261.896L130.208 253.954L138.112 246.012C139.24 245.081 139.175 243.753 138.396 242.902L134.442 238.963L126.5 231.058C125.837 230.434 125.118 229.591 124.751 229.432C124.271 229.171 123.665 229.125 123.147 229.314C122.886 229.405 122.648 229.553 122.443 229.746L121.467 230.711L119.481 232.686L103.581 248.483L99.6082 252.433C98.8438 253.277 97.5082 253.935 96.2444 253.913C94.9806 253.947 93.6525 253.326 92.8617 252.459L85.0141 244.461L77.1665 236.462L73.2428 232.462L71.2828 230.461L70.3141 229.458C70.0757 229.212 69.7882 229.019 69.4703 228.891C68.8346 228.633 68.0817 228.652 67.4536 228.954C66.886 229.197 66.239 229.999 65.5465 230.62L61.5168 234.513L53.4574 242.3C53.2568 242.497 52.9352 242.489 52.7384 242.289C52.5455 242.092 52.5493 241.778 52.7384 241.581L52.7649 241.562Z" fill="#D32424"/>
</svg>
