<svg width="629" height="420" viewBox="0 0 629 420" fill="none" xmlns="http://www.w3.org/2000/svg">
<g clip-path="url(#clip0_1129_9759)">
<path d="M197.062 178.939C196.442 193.745 183.919 205.204 169.119 204.563C154.308 203.921 142.831 191.42 143.446 176.602C144.11 161.807 156.628 150.348 171.41 150.973C186.228 151.611 197.698 164.122 197.062 178.939Z" fill="#CBE9F4"/>
<path d="M263.573 162.87C255.129 155.349 250.649 142.561 252.329 131.722C253.382 124.946 272.438 113.145 272.438 113.145L244.003 82.2444C244.003 82.2444 230.66 100.326 223.84 100.795C213.405 101.556 201.604 96.1977 195.255 87.4831C191.218 81.937 196.441 60.132 196.441 60.132L154.438 58.3254C154.438 58.3254 157.729 80.5222 153.267 85.6694C147.068 92.7918 136.028 96.4119 127.008 94.6053C120.284 93.2733 109.419 73.6651 109.419 73.6651L77.2403 100.691C77.2403 100.691 94.6571 114.806 94.8399 121.631C95.1158 133.103 89.023 145.759 79.4034 152.613C73.8186 156.595 52.0315 151.091 52.0315 151.091L49.6785 193.063C49.6785 193.063 71.875 190.014 76.959 194.557C85.4082 202.117 89.8983 214.903 88.2201 225.726C87.1797 232.492 68.0847 244.287 68.0847 244.287L96.5199 275.188C96.5199 275.188 109.853 257.123 116.694 256.648C127.102 255.903 138.945 261.272 145.307 269.948C149.331 275.506 144.147 297.292 144.147 297.292L186.119 299.105C186.119 299.105 182.789 276.919 187.263 271.761C193.478 264.655 204.544 261.019 213.566 262.83C220.262 264.185 231.145 283.776 231.145 283.776L263.313 256.745C263.313 256.745 245.912 242.625 245.701 235.794C245.442 224.335 251.523 211.687 261.148 204.818C266.732 200.862 288.535 206.366 288.535 206.366L290.855 164.405C290.852 164.408 268.687 167.418 263.573 162.87ZM167.294 247.306C128.9 245.649 99.1049 213.174 100.773 174.769C102.435 136.375 134.9 106.59 173.304 108.237C211.677 109.905 241.515 142.375 239.826 180.774C238.174 219.173 205.722 248.962 167.294 247.306Z" fill="#CBE9F4"/>
<path d="M223.435 181.017C222.177 210.369 197.359 233.137 167.995 231.854C138.66 230.587 115.901 205.783 117.17 176.448C118.426 147.069 143.242 124.32 172.593 125.573C201.949 126.851 224.713 151.669 223.435 181.017Z" fill="#CBE9F4"/>
<path d="M612.519 15.8159H503.89V415.782H612.519V15.8159Z" fill="#64B4D7"/>
<path d="M503.89 15.8159H312.094V415.782H503.89V15.8159Z" fill="#C1E4FA"/>
<path d="M583.695 311.297H532.701V397.308H583.695V311.297Z" fill="#848FB7"/>
<path d="M577.406 320.464H539.005V324.198H577.406V320.464Z" fill="#464F72"/>
<path d="M577.406 326.992H539.005V330.732H577.406V326.992Z" fill="#464F72"/>
<path d="M577.406 333.677H539.005V337.416H577.406V333.677Z" fill="#464F72"/>
<path d="M577.406 340.205H539.005V343.95H577.406V340.205Z" fill="#464F72"/>
<path d="M577.406 346.859H539.005V350.593H577.406V346.859Z" fill="#464F72"/>
<path d="M577.406 353.387H539.005V357.127H577.406V353.387Z" fill="#464F72"/>
<path d="M577.406 360.072H539.005V363.806H577.406V360.072Z" fill="#464F72"/>
<path d="M577.406 366.602H539.005V370.347H577.406V366.602Z" fill="#464F72"/>
<path d="M577.406 374.543H539.005V378.283H577.406V374.543Z" fill="#464F72"/>
<path d="M577.406 381.228H539.005V384.963H577.406V381.228Z" fill="#464F72"/>
<path d="M577.406 387.757H539.005V391.501H577.406V387.757Z" fill="#464F72"/>
<path d="M532.06 123.689H584.347L558.202 71.4L532.06 123.689Z" fill="#6D76A1"/>
<path d="M579.286 120.143L558.202 79.0778L537.116 120.143H579.286Z" fill="#FFCF03"/>
<path d="M562.49 116.728L562.89 98.1885L558.109 104.647L556.815 88.3264L556.734 109.595L560.597 104.227L562.49 116.728Z" fill="#6D76A1"/>
<path d="M480.133 48.8851H333.649V110.059H480.133V48.8851Z" fill="#6D76A1"/>
<path d="M447.246 56.1044H341.116V86.6976H447.246V56.1044Z" fill="#464F72"/>
<path d="M480.133 125.118H333.649V141.73H480.133V125.118Z" fill="#6D76A1"/>
<path d="M480.133 161.516H469.164V222.394H480.133V161.516Z" fill="#6D76A1"/>
<path d="M460.628 161.516H449.648V222.394H460.628V161.516Z" fill="#6D76A1"/>
<path d="M441.108 161.516H430.139V222.394H441.108V161.516Z" fill="#6D76A1"/>
<path d="M421.602 161.516H410.622V222.394H421.602V161.516Z" fill="#6D76A1"/>
<path d="M405.141 161.516H394.161V222.394H405.141V161.516Z" fill="#6D76A1"/>
<path d="M385.629 161.516H374.649V222.394H385.629V161.516Z" fill="#6D76A1"/>
<path d="M366.114 161.516H355.145V222.394H366.114V161.516Z" fill="#6D76A1"/>
<path d="M346.61 161.516H335.63V222.394H346.61V161.516Z" fill="#6D76A1"/>
<path d="M341.807 215.796H340.426V337.416H341.807V215.796Z" fill="#6D76A1"/>
<path d="M361.318 215.796H359.937V337.416H361.318V215.796Z" fill="#6D76A1"/>
<path d="M380.828 215.796H379.447V337.416H380.828V215.796Z" fill="#6D76A1"/>
<path d="M400.343 215.796H398.962V337.416H400.343V215.796Z" fill="#6D76A1"/>
<path d="M416.806 215.796H415.425V337.416H416.806V215.796Z" fill="#6D76A1"/>
<path d="M436.316 215.796H434.934V337.416H436.316V215.796Z" fill="#6D76A1"/>
<path d="M455.826 215.796H454.444V337.416H455.826V215.796Z" fill="#6D76A1"/>
<path d="M475.335 215.796H473.954V337.416H475.335V215.796Z" fill="#6D76A1"/>
<path d="M480.133 336.105H333.649V343.476H480.133V336.105Z" fill="#6D76A1"/>
<path d="M475.132 168.854L475.051 158.187C475.04 156.871 474.522 155.607 473.627 154.724C472.84 153.947 471.824 153.52 470.761 153.52C470.751 153.52 470.74 153.52 470.729 153.52L452.46 153.655C450.761 153.681 448.97 152.931 447.696 151.588C446.445 150.267 445.749 148.513 445.737 146.645L445.64 133.411L448.403 133.39L448.499 146.624C448.505 147.789 448.937 148.879 449.703 149.689C450.438 150.466 451.397 150.893 452.411 150.893C452.422 150.893 452.427 150.893 452.437 150.893L470.707 150.757C470.729 150.757 470.745 150.757 470.766 150.757C472.552 150.757 474.256 151.464 475.569 152.754C476.982 154.151 477.803 156.121 477.813 158.166L477.894 168.833L475.132 168.854Z" fill="#6D76A1"/>
<path d="M435.737 168.838L435.662 158.166C435.651 156.892 435.182 155.7 434.346 154.815C433.542 153.962 432.485 153.499 431.372 153.499C431.356 153.499 431.346 153.499 431.335 153.499L413.071 153.634C413.05 153.634 413.035 153.634 413.012 153.634C411.237 153.634 409.564 152.899 408.3 151.567C407.054 150.251 406.358 148.497 406.341 146.631L406.25 133.389L409.012 133.368L409.103 146.61C409.114 147.775 409.541 148.859 410.307 149.669C411.047 150.457 412.184 150.959 413.049 150.873L431.312 150.738C431.333 150.738 431.349 150.738 431.372 150.738C433.249 150.738 435.02 151.509 436.352 152.917C437.674 154.309 438.409 156.171 438.424 158.145L438.5 168.817L435.737 168.838Z" fill="#6D76A1"/>
<path d="M398.742 168.828L398.667 158.155C398.646 155.576 396.929 153.488 394.83 153.488C394.825 153.488 394.815 153.488 394.809 153.488L378.062 153.613C378.046 153.613 378.03 153.613 378.018 153.613C376.507 153.613 375.055 152.998 373.924 151.88C372.574 150.553 371.792 148.626 371.776 146.598L371.672 133.367L374.435 133.346L374.539 146.575C374.549 147.875 375.029 149.089 375.86 149.91C376.298 150.341 377.02 150.849 378.018 150.849C378.023 150.849 378.029 150.849 378.039 150.849L394.786 150.724C394.802 150.724 394.82 150.724 394.83 150.724C398.44 150.724 401.397 154.036 401.429 158.131L401.505 168.803L398.742 168.828Z" fill="#6D76A1"/>
<path d="M360.508 168.843L360.433 158.176C360.422 156.866 360.034 155.597 359.359 154.708C359.02 154.254 358.301 153.506 357.292 153.506C357.287 153.506 357.282 153.506 357.276 153.506L342.773 153.607C342.757 153.607 342.747 153.607 342.729 153.607C341.483 153.607 340.264 153.079 339.287 152.119C337.937 150.79 337.155 148.773 337.145 146.589L337.037 133.36L339.8 133.339L339.907 146.573C339.912 148.007 340.408 149.346 341.229 150.156C341.547 150.469 342.07 150.847 342.733 150.847C342.738 150.847 342.743 150.847 342.749 150.847L357.252 150.745C357.268 150.745 357.278 150.745 357.296 150.745C358.904 150.745 360.462 151.581 361.563 153.049C362.599 154.425 363.176 156.238 363.193 158.159L363.269 168.826L360.508 168.843Z" fill="#6D76A1"/>
<path d="M480.133 355.25H333.649V378.283H480.133V355.25Z" fill="#6D76A1"/>
<path d="M480.133 246.863H469.164V262.699H480.133V246.863Z" fill="#6D76A1"/>
<path d="M460.628 291.733H449.648V307.568H460.628V291.733Z" fill="#6D76A1"/>
<path d="M441.108 254.778H430.139V270.613H441.108V254.778Z" fill="#6D76A1"/>
<path d="M421.601 314.415H410.627V330.25H421.601V314.415Z" fill="#6D76A1"/>
<path d="M405.141 238.943H394.161V254.778H405.141V238.943Z" fill="#6D76A1"/>
<path d="M367.383 246.863H356.403V262.699H367.383V246.863Z" fill="#6D76A1"/>
<path d="M346.61 306.495H335.63V322.33H346.61V306.495Z" fill="#6D76A1"/>
<path d="M505.639 54.3998H498.608V151.082H505.639V54.3998Z" fill="#C1E4FA"/>
<path d="M505.639 276.107H498.608V372.79H505.639V276.107Z" fill="#C1E4FA"/>
<path d="M258.419 149.404C260.339 146.926 268.207 141.856 276.036 146.058C286.497 151.68 299.879 171.875 316.254 171.342C332.704 170.787 337.857 160.988 342.201 154.897C346.517 148.773 345.362 144.311 348.292 141.041C351.21 137.75 354.945 141.38 350.358 152.847C348.174 158.34 340.587 186.724 321.174 190.982C295.735 196.571 247.175 164.134 258.419 149.404Z" fill="#FBC6B4"/>
<path d="M260.966 143.77C260.966 143.77 251.185 152.349 263.546 167.267C275.912 182.187 283.358 186.983 283.358 186.983C283.358 186.983 295.06 182.106 304.627 164.677C304.627 164.677 273.002 129.71 260.966 143.77Z" fill="#45A845"/>
<path d="M221.341 173.608C228.597 200.435 224.593 219.293 221.341 229.512C228.911 231.945 224.4 236.003 224.195 236.514C213.489 258.734 280.039 245.568 291.73 227.579C295.754 221.395 291.908 213.539 292.626 201.663C292.885 198.992 292.955 196.289 292.983 193.639C293.312 181.473 292.491 169.597 290.781 161.514C285.559 136.996 262.497 135.799 248.463 137.757C242.091 138.637 233.783 139.716 227.398 143.47L227.367 143.519C219.928 148.028 215.946 153.66 221.341 173.608Z" fill="#45A845"/>
<path d="M237.83 160.454C240.705 172.632 250.99 209.796 221.341 228.383C221.341 228.383 270.435 264.333 298.524 233.234C298.524 233.234 292.874 180.173 285.024 159.104C282.775 153.05 276.786 134.463 266.01 137.15C266.01 137.15 284.954 166.988 276.31 174.866C267.666 182.755 259.508 176.122 255.693 170.188C249.579 160.639 243.051 138.554 243.051 138.554L231.591 141.468C231.591 141.468 235.38 150.074 237.83 160.454Z" fill="#1C2745"/>
<path d="M247.282 119.986C247.282 119.986 253.573 129.871 246.883 136.459C240.003 143.204 271.616 155.122 270.083 149.052C268.124 141.213 263.458 137.025 266.161 127.39L247.282 119.986Z" fill="#F7B2A0"/>
<path d="M261.494 97.8267C269.096 103.336 279.963 130.437 273.662 137.532C270.878 140.623 257.751 139.215 248.114 127.923C244.147 123.315 238.828 114.337 242.712 104.15C244.494 99.5208 252.674 91.4285 261.494 97.8267Z" fill="#FBC6B4"/>
<path d="M268.827 100.326C270.769 103.654 270.446 104.513 260.06 107.49C249.695 110.469 247.769 109.994 249.172 112.367C253.294 119.398 245.557 118.911 250.574 127.242C255.57 135.606 245.993 131.376 241.158 124.636C240.209 123.271 234.83 116.737 238.573 105.077C242.914 91.4618 261.629 88.1264 268.827 100.326Z" fill="#1D1B3A"/>
<path d="M247.774 118.54C247.774 118.54 279.921 109.46 278.427 99.4398C277.505 93.261 258.847 95.6844 258.847 95.6844L247.774 118.54Z" fill="#1D801D"/>
<path d="M268.827 100.326C266.258 109.994 258.673 115.314 238.968 121.605C238.968 121.605 228.307 102.499 242.124 92.3773C254.329 83.4694 270.468 94.1363 268.827 100.326Z" fill="#45A845"/>
<path d="M204.145 331.74C197.482 357.812 189.669 413.488 202.472 413.807C215.26 414.099 222.414 410.219 215.039 408.159C207.658 406.077 207.361 405.272 207.588 403.2C210.76 376.308 252.807 334.38 256.38 302.418C257.582 291.503 258.408 281.521 258.976 272.758C263.761 296.169 260.244 321.015 260.659 329.233C262.009 358.455 268.256 413.695 282.262 413.807C297.181 413.911 304.508 409.776 294.974 407.808C286.731 406.065 287.075 405.681 287.226 403.643C289.233 374.134 303.543 319.585 306.283 284.532C309.456 244.075 209.946 308.944 204.145 331.74Z" fill="#FBC6B4"/>
<path d="M274.407 407.159C274.407 407.159 285.532 411.568 292.402 407.159C292.402 407.159 304.945 408.848 297.074 411.902C289.158 414.962 273.937 417.487 274.407 407.159Z" fill="#313131"/>
<path d="M197.039 408.157C197.039 408.157 208.175 412.549 215.039 408.157C215.039 408.157 227.59 409.867 219.673 412.9C211.786 415.96 196.575 418.496 197.039 408.157Z" fill="#313131"/>
<path d="M296.387 215.796C270.883 232.808 235.224 231.076 221.341 228.383C217.585 258.722 194.789 372.547 192.215 388.166C203.411 391.878 207.135 392.661 210.371 392.661C264.43 322.945 258.225 293.044 258.796 284.282C260.829 294.409 254.155 344.01 265.826 392.661C269.737 395.187 281.591 398.468 290.073 392.661C290.498 389.547 306.362 333.677 306.017 289.941C305.782 260.126 300.796 239.66 296.387 215.796Z" fill="#1C2745"/>
<path d="M223.121 254.082C238.974 249.053 240.371 233.374 240.387 233.223L238.283 233.067C238.245 233.634 236.962 247.484 222.474 252.086L223.121 254.082Z" fill="white"/>
<path d="M297.336 250.176L297.978 248.164C283.453 243.567 282.179 229.295 282.169 229.15L280.06 229.311C280.083 229.478 281.48 245.153 297.336 250.176Z" fill="white"/>
<path d="M133.107 356.107H21.9058V420.341H133.107V356.107Z" fill="#C1E4FA"/>
<path d="M176.25 356.107H133.107V420.341H176.25V356.107Z" fill="#4CA1BF"/>
<path d="M44.5877 335.975H28.6172V367.291H44.5877V335.975Z" fill="#C1E4FA"/>
<path d="M155.478 340.449H36.6023V344.286H155.478V340.449Z" fill="#464F72"/>
<path d="M163.462 335.975H147.491V367.291H163.462V335.975Z" fill="#4CA1BF"/>
<path d="M271.298 236.019H180.206V288.631H271.298V236.019Z" fill="#C1E4FA"/>
<path d="M306.634 236.019H271.298V288.631H306.634V236.019Z" fill="#4CA1BF"/>
<path d="M198.787 219.53H185.704V245.18H198.787V219.53Z" fill="#C1E4FA"/>
<path d="M289.622 223.192H192.249V226.332H289.622V223.192Z" fill="#464F72"/>
<path d="M296.16 219.53H283.077V245.18H296.16V219.53Z" fill="#4CA1BF"/>
<path d="M231.771 145.875C234.624 146.798 239.891 151.437 238.536 159.8C236.74 170.996 222.712 189.362 228.317 203.957C233.944 218.595 244.39 220.187 251.243 222.199C258.108 224.185 261.759 221.767 265.627 223.359C269.506 224.972 267.397 229.489 255.63 228.928C249.998 228.652 222.042 230.692 212.136 214.516C199.155 193.339 214.995 140.338 231.771 145.875Z" fill="#FBC6B4"/>
<path d="M231.593 141.466C231.593 141.466 223.834 140.015 214.247 155.846C204.68 171.634 202.683 179.841 202.683 179.841C202.683 179.841 210.734 188.872 229.423 192.061C229.423 192.061 250.483 150.72 231.593 141.466Z" fill="#45A845"/>
<path d="M255.816 22.8452L249.356 29.406L280.408 59.9783L286.868 53.4175L255.816 22.8452Z" fill="#FF0000"/>
<path d="M280.058 22.948L249.623 53.4708L256.139 59.9693L286.576 29.4468L280.058 22.948Z" fill="#FF0000"/>
<path d="M119.957 306.262H72.1262V309.958H119.957V306.262Z" fill="#27355C"/>
<path d="M117.17 294.183H90.8018V297.879H117.17V294.183Z" fill="#27355C"/>
</g>
<defs>
<clipPath id="clip0_1129_9759">
<rect width="627.364" height="420" fill="white" transform="translate(0.817871)"/>
</clipPath>
</defs>
</svg>
