<svg width="445" height="380" viewBox="0 0 445 380" fill="none" xmlns="http://www.w3.org/2000/svg">
<path d="M436.28 0.0150657H272.474C268.121 0.0150657 264.595 3.52848 264.595 7.89404V236.515C264.595 240.855 268.108 244.394 272.474 244.394H436.28C440.62 244.394 444.159 240.868 444.159 236.515V7.88093C444.159 3.52849 440.633 0.00195312 436.28 0.00195312V0.0150657ZM442.796 236.515C442.796 240.094 439.872 243.031 436.28 243.031H272.474C268.869 243.031 265.945 240.108 265.945 236.515V7.88093C265.945 4.27574 268.869 1.36537 272.474 1.36537H436.28C439.859 1.36537 442.796 4.27574 442.796 7.88093V236.502V236.515Z" fill="#05A155" fill-opacity="0.1"/>
<path d="M436.28 0.0146484H272.474C268.121 0.0146484 264.595 3.52806 264.595 7.89362V30.4424H444.159V7.89362C444.159 3.54117 440.633 0.0146484 436.28 0.0146484ZM383.212 18.9714C381.141 18.9714 379.463 17.2802 379.463 15.2089C379.463 13.1375 381.154 11.4333 383.212 11.4333C385.27 11.4333 386.988 13.1244 386.988 15.2089C386.988 17.2933 385.296 18.9714 383.212 18.9714ZM403.322 18.9714C401.251 18.9714 399.56 17.2802 399.56 15.2089C399.56 13.1375 401.251 11.4333 403.322 11.4333C405.394 11.4333 407.098 13.1244 407.098 15.2089C407.098 17.2933 405.407 18.9714 403.322 18.9714ZM423.446 18.9714C421.361 18.9714 419.67 17.2802 419.67 15.2089C419.67 13.1375 421.361 11.4333 423.446 11.4333C425.53 11.4333 427.195 13.1244 427.195 15.2089C427.195 17.2933 425.504 18.9714 423.446 18.9714Z" fill="#05A155" fill-opacity="0.1"/>
<path d="M409.523 60.8574H299.218V66.5995H409.523V60.8574Z" fill="#05A155" fill-opacity="0.1"/>
<path d="M409.523 85.0322H299.218V90.7743H409.523V85.0322Z" fill="#05A155" fill-opacity="0.1"/>
<path d="M409.523 109.193H299.218V114.935H409.523V109.193Z" fill="#05A155" fill-opacity="0.1"/>
<path d="M377.208 49.3721H154.106C149.508 49.3721 145.781 53.0992 145.781 57.6968V269.564C145.781 274.162 149.508 277.889 154.106 277.889H377.208C381.806 277.889 385.533 274.162 385.533 269.564V57.6968C385.533 53.0992 381.806 49.3721 377.208 49.3721Z" fill="white" stroke="#263156" stroke-width="1.4683" stroke-miterlimit="10"/>
<path d="M373.97 85.5547H157.344V266.339H373.97V85.5547Z" fill="#45A845" fill-opacity="0.6"/>
<path d="M162.483 70.7284C164.597 70.7284 166.311 69.0145 166.311 66.9003C166.311 64.7862 164.597 63.0723 162.483 63.0723C160.369 63.0723 158.655 64.7862 158.655 66.9003C158.655 69.0145 160.369 70.7284 162.483 70.7284Z" fill="#263156"/>
<path d="M189.017 70.7284C191.131 70.7284 192.845 69.0145 192.845 66.9003C192.845 64.7862 191.131 63.0723 189.017 63.0723C186.903 63.0723 185.189 64.7862 185.189 66.9003C185.189 69.0145 186.903 70.7284 189.017 70.7284Z" fill="#263156"/>
<path d="M175.75 70.7284C177.864 70.7284 179.578 69.0145 179.578 66.9003C179.578 64.7862 177.864 63.0723 175.75 63.0723C173.636 63.0723 171.922 64.7862 171.922 66.9003C171.922 69.0145 173.636 70.7284 175.75 70.7284Z" fill="#263156"/>
<path d="M315.303 110.241H215.997C212.522 110.241 209.704 113.059 209.704 116.534V231.467C209.704 234.943 212.522 237.76 215.997 237.76H315.303C318.779 237.76 321.596 234.943 321.596 231.467V116.534C321.596 113.059 318.779 110.241 315.303 110.241Z" fill="white"/>
<path d="M265.657 153.805C273.737 153.805 280.287 147.255 280.287 139.174C280.287 131.094 273.737 124.544 265.657 124.544C257.577 124.544 251.026 131.094 251.026 139.174C251.026 147.255 257.577 153.805 265.657 153.805Z" fill="#263156"/>
<path d="M248.981 156.57H282.332C286.383 156.57 289.674 159.861 289.674 163.912V176.301H241.64V163.912C241.64 159.861 244.93 156.57 248.981 156.57Z" fill="#263156"/>
<path d="M305.471 186.016H225.829C224.845 186.016 224.046 186.811 224.046 187.792C224.046 188.773 224.845 189.568 225.829 189.568H305.471C306.456 189.568 307.254 188.773 307.254 187.792C307.254 186.811 306.456 186.016 305.471 186.016Z" fill="#B2C2FD"/>
<path d="M305.471 198.339H225.829C224.845 198.339 224.046 199.134 224.046 200.115C224.046 201.096 224.845 201.892 225.829 201.892H305.471C306.456 201.892 307.254 201.096 307.254 200.115C307.254 199.134 306.456 198.339 305.471 198.339Z" fill="#B2C2FD"/>
<path d="M305.471 212.327H225.829C224.845 212.327 224.046 213.122 224.046 214.104C224.046 215.085 224.845 215.88 225.829 215.88H305.471C306.456 215.88 307.254 215.085 307.254 214.104C307.254 213.122 306.456 212.327 305.471 212.327Z" fill="#B2C2FD"/>
<path d="M265.657 195.559C291.686 195.559 312.786 174.458 312.786 148.429C312.786 122.4 291.686 101.3 265.657 101.3C239.628 101.3 218.527 122.4 218.527 148.429C218.527 174.458 239.628 195.559 265.657 195.559Z" stroke="#D94841" stroke-width="7.34148" stroke-miterlimit="10"/>
<path d="M298.969 115.104L232.332 181.755" stroke="#D94841" stroke-width="7.34148" stroke-miterlimit="10"/>
<path d="M39.4475 375.741C39.4475 375.741 34.0463 380.566 28.8811 373.893C23.7158 367.22 20.9759 361.976 19.4813 357.794C17.9868 353.612 17.8557 350.833 15.1158 347.162C12.3758 343.491 8.2987 340.542 9.04596 337.369C9.66212 334.773 14.9847 333.476 14.9847 333.476L28.1862 354.871L39.4475 375.741Z" fill="#263156"/>
<path d="M28.9334 327.602L40.2472 323.551L45.5566 342.586L38.3856 345.077L31.0441 341.957L25.5905 333.068L28.9334 327.602Z" fill="#ECC351"/>
<path d="M38.3856 345.078C38.3856 345.078 37.6384 357.296 38.1759 362.737C38.7265 368.177 43.5115 372.687 39.4475 375.742C35.3835 378.796 28.999 366.46 25.3414 359.197C21.6838 351.921 21.356 345.432 18.0524 342.495C14.7356 339.559 13.949 334.485 14.9847 333.489C16.0203 332.492 27.3603 327.314 28.9335 327.602C28.9335 327.602 27.3603 329.779 31.3981 336.661C35.449 343.544 38.3725 345.078 38.3725 345.078H38.3856Z" fill="#84C06F"/>
<path d="M34.5707 358.398V358.542C34.5707 358.817 34.8067 359.027 35.0688 359.014L38.0579 358.935C38.3332 358.935 38.5429 358.699 38.5429 358.437V358.293C38.5429 358.018 38.307 357.808 38.0448 357.821L35.0557 357.9C34.7804 357.9 34.5707 358.136 34.5707 358.398Z" fill="white"/>
<path d="M34.7411 355.63V355.774C34.7411 356.05 34.9771 356.259 35.2393 356.246L38.2283 356.168C38.5036 356.168 38.7134 355.932 38.7134 355.669V355.525C38.7134 355.25 38.4774 355.04 38.2152 355.053L35.2262 355.132C34.9508 355.132 34.7411 355.368 34.7411 355.63Z" fill="white"/>
<path d="M34.7805 352.497V352.642C34.7805 352.917 35.0165 353.127 35.2787 353.113L38.2677 353.035C38.543 353.035 38.7528 352.799 38.7528 352.537V352.392C38.7528 352.117 38.5168 351.907 38.2546 351.921L35.2656 351.999C34.9903 351.999 34.7805 352.235 34.7805 352.497Z" fill="white"/>
<path d="M34.8329 349.39V349.534C34.8329 349.809 35.0689 350.019 35.3311 350.006L38.3201 349.927C38.5954 349.927 38.8051 349.691 38.8051 349.429V349.285C38.8051 349.01 38.5692 348.8 38.307 348.813L35.318 348.892C35.0426 348.892 34.8329 349.128 34.8329 349.39Z" fill="white"/>
<path d="M172.341 369.489C172.341 369.489 173.574 376.621 165.183 377.473C156.78 378.325 150.894 377.88 146.554 376.936C142.215 375.992 139.777 374.628 135.214 375.009C130.652 375.389 125.985 377.29 123.691 374.969C121.816 373.068 123.534 367.877 123.534 367.877L148.678 367.995L172.341 369.489Z" fill="#263156"/>
<path d="M125.933 352.931L125.303 341.735L146.2 342.352L145.755 354.163L140.904 360.443L129.984 359.827L125.933 352.931Z" fill="#ECC351"/>
<path d="M145.755 354.164C145.755 354.164 155.718 361.269 160.634 363.694C165.537 366.107 171.909 364.429 172.341 369.502C172.774 374.575 158.943 373.448 150.828 372.714C142.726 371.967 137.037 368.807 132.789 370.053C128.541 371.311 123.822 369.292 123.52 367.889C123.219 366.487 124.831 354.124 125.92 352.944C125.92 352.944 126.942 355.435 134.913 355.645C142.884 355.855 145.742 354.177 145.742 354.177L145.755 354.164Z" fill="#84C06F"/>
<path d="M155.05 364.455L155.168 364.534C155.404 364.678 155.705 364.599 155.836 364.363L157.357 361.794C157.501 361.558 157.422 361.256 157.186 361.112L157.068 361.033C156.832 360.889 156.531 360.968 156.4 361.204L154.879 363.773C154.735 364.009 154.814 364.311 155.05 364.455Z" fill="white"/>
<path d="M152.781 362.842L152.899 362.92C153.135 363.065 153.437 362.986 153.568 362.75L155.089 360.18C155.233 359.944 155.154 359.643 154.918 359.499L154.8 359.42C154.564 359.276 154.263 359.354 154.132 359.59L152.611 362.16C152.467 362.396 152.545 362.697 152.781 362.842Z" fill="white"/>
<path d="M150.146 361.15L150.264 361.229C150.5 361.373 150.802 361.294 150.933 361.059L152.454 358.489C152.598 358.253 152.519 357.951 152.283 357.807L152.165 357.729C151.929 357.584 151.628 357.663 151.497 357.899L149.976 360.469C149.832 360.705 149.91 361.006 150.146 361.15Z" fill="white"/>
<path d="M147.537 359.46L147.655 359.539C147.891 359.683 148.193 359.604 148.324 359.368L149.845 356.799C149.989 356.563 149.91 356.261 149.674 356.117L149.556 356.038C149.32 355.894 149.019 355.973 148.888 356.209L147.367 358.778C147.223 359.014 147.302 359.316 147.537 359.46Z" fill="white"/>
<path d="M96.0818 232.111C96.0818 232.111 144.614 241.17 151.064 257.596C157.514 274.023 148.875 311.582 149.491 347.569C149.491 347.569 133.353 349.968 123.573 347.267L119.627 281.6L95.9245 273.485C95.9245 273.485 113.347 312.395 110.647 329.451C108.825 340.935 42.6464 348.578 42.6464 348.578L34.3217 325.282C34.3217 325.282 69.9278 314.244 71.383 313.405C71.383 313.405 44.3506 277.641 39.3558 265.777C34.361 253.925 35.6064 234.995 35.6064 234.995L96.0687 232.098L96.0818 232.111Z" fill="#263156"/>
<path d="M85.1614 137.904C85.2794 137.628 90.8511 115.945 90.9428 115.683L92.3718 116.01C97.052 119.93 102.388 125.567 107.068 129.5L104.459 141.365C104.459 141.365 109.532 148.824 109.205 150.017C108.051 154.212 82.7754 159.849 85.1483 137.891L85.1614 137.904Z" fill="#ECC351"/>
<path d="M118.539 121.727C115.248 130.799 110.345 139.7 101.457 137.183C95.256 135.426 90.2349 125.895 89.8679 117.676C89.6843 113.441 89.4746 109.731 89.8285 107.004C90.1038 104.841 90.3791 103.504 90.3791 103.504L92.516 99.0073L93.7746 96.3722C93.7746 96.3722 96.0164 94.9695 98.5203 93.4094C101.64 91.443 105.587 95.3366 105.691 95.1923C105.836 94.9564 118.775 94.7597 122.144 100.345C122.157 100.358 122.17 100.371 122.157 100.384C122.459 100.895 122.682 101.406 122.8 101.905C122.905 102.324 122.918 102.73 122.865 103.137C122.76 103.923 122.59 105.09 122.354 106.572C122.236 107.188 122.131 107.87 122 108.577C121.777 109.784 121.515 111.095 121.2 112.484C120.545 115.381 119.666 118.593 118.526 121.727H118.539Z" fill="#ECC351"/>
<path d="M104.459 137.616C103.515 137.616 102.519 137.485 101.457 137.183C97.7992 136.148 94.561 132.411 92.4373 127.836" stroke="#263156" stroke-width="0.288415" stroke-linecap="round" stroke-linejoin="round"/>
<path d="M89.4089 106.86C89.4089 106.86 90.4184 86.2123 102.348 87.6805C102.348 87.6805 114.711 81.9385 122.616 91.0629C126.405 95.4415 124.53 104.264 123.507 107.004C122.865 108.722 121.961 110.111 121.738 109.98C121.121 109.639 121.266 107.843 118.814 108.106C108.838 109.128 101.968 100.266 99.0577 101.511C96.1474 102.757 89.8809 118.829 89.8809 118.829C89.8809 118.829 90.4184 111.226 89.422 106.847L89.4089 106.86Z" fill="#263156"/>
<path d="M108.033 102.622C109.055 99.4671 107.427 96.1138 104.396 95.132C101.365 94.1502 98.0802 95.9116 97.0582 99.0663C96.0362 102.221 97.6646 105.574 100.695 106.556C103.726 107.538 107.011 105.776 108.033 102.622Z" fill="#263156"/>
<path d="M130.16 101.119C131.968 95.5402 129.083 89.6083 123.718 87.87C118.352 86.1318 112.537 89.2455 110.73 94.8247C108.922 100.404 111.807 106.336 117.172 108.074C122.538 109.812 128.353 106.699 130.16 101.119Z" fill="#263156"/>
<path d="M121.336 94.5061C123.143 88.9269 120.259 82.995 114.893 81.2567C109.527 79.5185 103.712 82.6322 101.905 88.2114C100.098 93.7906 102.982 99.7226 108.348 101.461C113.713 103.199 119.528 100.085 121.336 94.5061Z" fill="#263156"/>
<path d="M104.33 95.4647C105.783 90.9807 103.465 86.2133 99.1531 84.8165C94.8413 83.4196 90.1683 85.9223 88.7157 90.4063C87.263 94.8904 89.5809 99.6578 93.8927 101.055C98.2045 102.451 102.878 99.9488 104.33 95.4647Z" fill="#263156"/>
<path d="M116.143 106.622C117.165 103.467 115.537 100.114 112.506 99.132C109.475 98.1502 106.19 99.9116 105.168 103.066C104.146 106.221 105.774 109.574 108.805 110.556C111.836 111.538 115.121 109.776 116.143 106.622Z" fill="#263156"/>
<path d="M121.974 109.862C120.44 111.776 117.346 113.559 111.814 108.59C103.253 100.895 96.2784 103.111 97.0126 100.777C97.7598 98.4435 104.105 98.378 111.197 100.633C118.29 102.888 123.429 108.027 121.96 109.862H121.974Z" fill="#263156"/>
<path d="M92.1489 109.115C92.1489 109.115 87.259 104.592 86.4986 110.164C85.7382 115.735 90.5889 119.039 90.5889 119.039L92.1489 109.115Z" fill="#ECC351"/>
<path d="M90.4972 110.674C90.4972 110.674 86.407 108.642 89.75 115.342L90.4972 110.674Z" fill="#263156"/>
<path d="M114.707 118.967C115.039 118.187 114.941 117.399 114.488 117.206C114.035 117.013 113.399 117.489 113.067 118.268C112.735 119.048 112.833 119.836 113.286 120.029C113.739 120.222 114.376 119.746 114.707 118.967Z" fill="#263156"/>
<path d="M104.619 116.003C104.951 115.223 104.852 114.435 104.399 114.242C103.946 114.05 103.31 114.525 102.978 115.305C102.647 116.084 102.745 116.872 103.198 117.065C103.651 117.258 104.287 116.782 104.619 116.003Z" fill="#263156"/>
<path d="M114.029 113.599C114.029 113.599 116.926 112.196 118.88 113.756L114.029 113.599Z" fill="#263156"/>
<path d="M101.339 109.574C101.549 109.574 104.892 109.64 106.439 112.091L101.339 109.574Z" fill="#263156"/>
<path d="M108.733 118.423C108.733 118.423 107.671 120.743 108.615 121.661C109.559 122.566 109.532 125.148 106.753 123.667" stroke="#263156" stroke-width="0.288415" stroke-linecap="round" stroke-linejoin="round"/>
<path d="M109.454 128.413C109.454 128.413 109.244 128.741 108.851 129.147C108.156 129.882 106.897 130.865 105.324 130.537C103.777 130.209 103.056 128.741 102.715 127.718C102.532 127.142 102.479 126.709 102.479 126.709L109.441 128.4L109.454 128.413Z" fill="white"/>
<path d="M117.765 150.083C117.765 150.083 129.853 189.216 130.744 193.621L146.974 181.245L155.023 189.543C155.023 189.543 139.868 220.05 119.116 218.057C109.611 217.14 101.26 172.383 101.26 172.383L108.733 165.067L111.355 155.458L117.778 150.083H117.765Z" fill="#ECC351"/>
<path d="M146.961 181.232C146.961 181.232 149.084 178.518 152.034 176.25C154.984 173.982 157.999 171.858 161.25 171.753C164.502 171.649 170.611 171.924 172.394 173.89C174.177 175.857 175.409 179.921 174.976 181.127C174.531 182.333 173.574 182.189 173.574 182.189C173.574 182.189 174.544 183.932 174.373 185.047C174.203 186.161 173.298 186.227 173.298 186.227C173.298 186.227 174.36 188.324 173.77 189.176C173.18 190.042 171.633 189.871 170.938 188.586C170.244 187.302 166.888 184.286 165.17 184.588C163.453 184.889 158.038 189.032 154.079 189.793C151.536 190.278 149.91 189.635 149.91 189.635L146.987 181.219L146.961 181.232Z" fill="#ECC351"/>
<path d="M173.574 182.189C173.574 182.189 171.017 178.19 170.021 177.548C169.024 176.905 165.131 176.84 165.131 176.84" stroke="#263156" stroke-width="0.471952" stroke-linecap="round" stroke-linejoin="round"/>
<path d="M173.285 186.24C173.285 186.24 170.532 182.058 167.176 181.521" stroke="#263156" stroke-width="0.471952" stroke-linecap="round" stroke-linejoin="round"/>
<path d="M187.457 116.246C178.359 125.58 172.367 140.525 174.085 149.623C175.789 158.721 184.546 158.525 193.645 149.177C202.743 139.843 208.721 124.898 207.017 115.8C205.312 106.702 196.555 106.898 187.457 116.246Z" fill="#263156"/>
<path d="M152.559 201.013C154.119 201.878 156.072 201.288 156.898 199.715L180.01 154.5L177.349 153.031L151.352 196.647C150.461 198.181 150.998 200.148 152.559 201.013Z" fill="#263156"/>
<path d="M184.73 115.38C175.632 124.714 169.641 139.66 171.358 148.758C173.062 157.856 181.82 157.659 190.918 148.312C200.016 138.978 205.994 124.033 204.29 114.935C202.585 105.836 193.828 106.033 184.73 115.38ZM202.638 116.626C204.172 124.806 198.784 138.244 190.603 146.66C182.423 155.064 174.544 155.247 173.01 147.054C171.476 138.873 176.864 125.422 185.045 117.019C193.225 108.616 201.104 108.432 202.638 116.626Z" fill="#DE5469"/>
<path d="M185.044 117.032C176.864 125.435 171.476 138.873 173.01 147.066C174.544 155.247 182.423 155.076 190.603 146.673C198.784 138.269 204.172 124.819 202.638 116.638C201.104 108.458 193.225 108.628 185.044 117.032Z" fill="white"/>
<path d="M152.034 187.17L155.6 178.085L156.859 177.35C156.793 177.39 156.714 177.429 156.649 177.468C155.967 177.849 155.6 178.098 155.6 178.098C155.6 178.098 155.941 177.809 156.583 177.364C157.239 176.931 158.17 176.302 159.428 175.777C160.057 175.528 160.765 175.279 161.578 175.2C162.391 175.122 163.282 175.358 164.043 175.817C164.777 176.302 165.524 176.97 165.708 178.032C165.799 178.57 165.459 179.212 164.974 179.435C164.475 179.697 164.03 179.736 163.649 179.881C161.998 180.366 160.674 181.572 159.638 182.83C159.1 183.46 158.681 184.102 158.156 184.731C157.619 185.334 156.99 185.754 156.387 186.082C155.403 186.593 154.499 186.816 153.778 186.96H153.752C153.581 186.986 153.424 187.025 153.28 187.052C152.506 187.17 152.06 187.183 152.06 187.183L152.034 187.17Z" fill="#ECC351"/>
<path d="M155.6 178.085C155.6 178.085 155.941 177.797 156.583 177.351C157.239 176.918 158.17 176.289 159.428 175.765C160.057 175.516 160.765 175.266 161.578 175.188C162.391 175.109 163.282 175.345 164.043 175.804C164.777 176.289 165.524 176.958 165.708 178.02C165.799 178.557 165.459 179.199 164.974 179.422C164.475 179.684 164.03 179.724 163.649 179.868C161.998 180.353 160.674 181.559 159.638 182.818C159.1 183.447 158.681 184.089 158.157 184.719C157.619 185.322 156.99 185.741 156.387 186.069C155.403 186.58 154.499 186.803 153.778 186.947H153.752C153.581 186.973 153.424 187.013 153.28 187.039" stroke="#263156" stroke-width="0.471952" stroke-linecap="round" stroke-linejoin="round"/>
<path d="M129.053 186.056C129.053 186.056 126.746 188.573 120.361 190.92C116.874 192.192 105.796 193.791 105.796 193.791L104.905 190.802L103.764 186.921C103.764 186.921 102.991 191.982 102.348 195.613C101.286 201.578 97.7336 225.084 97.7336 232.098C97.7336 233.618 89.6579 234.025 78.4884 235.218C59.3481 237.276 35.6063 234.995 35.6063 234.995C35.6063 234.995 36.2487 192.559 43.4197 168.017C46.2252 158.421 50.5515 146.137 57.4603 140.028C64.4872 133.814 86.1707 133.591 86.1707 133.591C89.4351 137.865 92.3979 145.429 97.1698 146.504C104.38 148.116 104.629 141.457 104.629 141.457C104.629 141.457 118.526 146.701 121.279 156.31C123.363 163.573 126.732 176.814 128.253 182.87C128.738 184.837 129.04 186.056 129.04 186.056H129.053Z" fill="#84C06F"/>
<path d="M60.7902 166.338C60.7902 166.338 49.4503 185.544 49.175 186.632C48.9128 187.72 57.0277 214.765 57.0277 214.765L45.1634 220.783C45.1634 220.783 32.3551 199.23 28.3304 190.027C24.3057 180.811 37.1271 164.083 37.1271 164.083L60.7902 166.338Z" fill="#ECC351"/>
<path d="M69.7574 152.088L54.9958 177.796L53.8683 179.776C41.1125 166.299 33.6924 169.577 33.3646 169.721C33.404 169.642 34.007 168.58 35.0164 166.889C39.3165 159.679 50.9842 141.168 58.129 139.935C63.2942 139.044 69.7705 152.088 69.7705 152.088H69.7574Z" fill="#84C06F"/>
<path d="M54.9958 177.81L53.8683 179.789C41.1125 166.312 33.6924 169.59 33.3646 169.734C33.404 169.655 34.007 168.594 35.0164 166.902C38.661 166.902 48.8735 167.82 55.0089 177.823L54.9958 177.81Z" fill="#263156"/>
<path d="M58.9419 234.365C58.9419 234.365 58.2733 235.794 56.7526 235.623C55.2581 235.453 53.8291 232.333 52.2035 231.415C50.5517 230.498 49.5029 228.754 49.5029 228.754C48.2968 226.774 48.7032 225.778 47.3529 224.441L54.9435 217.755C59.2697 218.174 65.7721 218.987 67.5026 220.01C68.9709 220.875 70.413 223.445 71.3962 225.595C72.2484 227.338 72.7597 228.806 72.7597 228.806C71.8682 231.835 68.3679 230.707 68.3679 230.707C67.4371 234.509 63.6352 233.382 63.6352 233.382C62.0096 235.519 58.9419 234.378 58.9419 234.378V234.365Z" fill="#ECC351"/>
<path d="M57.0278 214.766L59.3351 218.843L47.3528 224.428L45.1635 220.783L57.0278 214.766Z" fill="#ECC351"/>
<path d="M68.3679 230.68C68.3679 230.68 67.3978 227.35 65.392 224.453" stroke="#263156" stroke-width="0.471952" stroke-linecap="round" stroke-linejoin="round"/>
<path d="M63.6352 233.382C63.6352 233.382 62.5733 228.557 60.7772 226.276" stroke="#263156" stroke-width="0.471952" stroke-linecap="round" stroke-linejoin="round"/>
<path d="M58.9419 234.364C58.9419 234.364 58.2339 230.615 55.5333 228.15" stroke="#263156" stroke-width="0.471952" stroke-linecap="round" stroke-linejoin="round"/>
<path d="M95.9245 273.472L81.9495 247.292" stroke="#05A155" stroke-opacity="0.1" stroke-width="0.471952" stroke-miterlimit="10"/>
<path d="M103.777 186.934L106.308 171.845" stroke="#263156" stroke-width="0.471952" stroke-linecap="round" stroke-linejoin="round"/>
<path d="M53.8552 179.776L61.6031 169.406" stroke="#263156" stroke-width="0.471952" stroke-linecap="round" stroke-linejoin="round"/>
<path d="M129.053 186.055C129.053 186.055 126.746 188.572 120.361 190.919C116.874 192.19 105.796 193.79 105.796 193.79L104.905 190.801C108.156 190.224 123.075 187.34 128.253 182.869C128.738 184.836 129.04 186.055 129.04 186.055H129.053Z" fill="#263156"/>
<path d="M50.2237 28.0947C67.7777 28.0947 80.0485 38.0319 80.0485 55.4679C80.0485 72.904 67.5286 81.4122 50.3548 81.4122L49.8435 91.3494H33.9676L33.3252 69.4036H39.1328C52.5572 69.4036 62.6256 66.9521 62.5076 55.3368C62.5076 47.8512 57.8536 43.1972 50.2368 43.1972C42.62 43.1972 37.717 47.7201 37.717 55.3368H20.6743C20.4121 39.71 31.385 28.0947 50.2368 28.0947H50.2237ZM41.8335 122.223C35.2523 122.223 30.5984 117.582 30.5984 111.643C30.5984 105.705 35.2523 101.051 41.8335 101.051C48.4146 101.051 52.8063 105.691 52.8063 111.643C52.8063 117.595 48.1524 122.223 41.8335 122.223Z" fill="#05A155" fill-opacity="0.1"/>
<path d="M370.391 250.7C366.982 254.096 358.225 253.951 345.01 248.406C340.055 246.322 335.414 243.844 331.442 241.392L336.279 236.542L327.732 238.98C321.99 235.034 318.411 231.56 318.594 230.446C318.922 228.44 331.166 226.316 353.637 231.062C354.397 231.219 355.131 231.39 355.826 231.56C357.084 233.71 359.09 237.132 359.09 237.132L358.972 232.465C375.569 237.879 372.777 248.301 370.378 250.7H370.391Z" fill="#68B19C"/>
<path d="M416.406 244.879C415.58 245.377 414.571 245.993 413.404 246.688L405.525 247.593C405.525 247.593 408.213 248.052 410.402 248.445C404.122 251.984 395.129 256.14 385.979 255.839C385.979 255.839 386.582 246.072 400.006 240.88C413.43 235.702 434.59 234.509 435.284 237.052C435.966 239.609 421.69 241.733 416.419 244.879H416.406Z" fill="#68B19C"/>
<path d="M427.681 282.583C427.209 283.055 422.987 282.164 416.839 282.478L412.814 279.175L414.545 282.649C412.5 282.845 410.284 283.199 407.964 283.763C397.253 286.398 383.239 292.18 381.193 277.982C381.193 277.982 380.433 263.627 393.005 264.295C395.588 264.439 397.974 264.649 400.189 264.951L399.206 267.782L403.913 265.567C410.664 266.891 415.816 269.237 420.365 272.961C427.078 278.48 428.349 281.888 427.681 282.57V282.583Z" fill="#68B19C"/>
<path d="M420.667 278.217C420.667 278.217 394.985 268.556 381.193 277.995C367.389 287.434 369.775 341.407 369.775 341.407" stroke="#263156" stroke-width="0.694818" stroke-miterlimit="10"/>
<path d="M319.931 302.511C320.495 302.878 324.428 301.095 330.498 300.098L333.736 296.008L332.779 299.771C334.811 299.522 337.053 299.391 339.439 299.456C350.464 299.731 365.396 302.38 364.36 288.077C364.36 288.077 362.04 273.879 349.887 277.235C347.396 277.917 345.115 278.638 343.005 279.411L344.578 281.968L339.504 280.814C333.199 283.554 328.649 286.949 325.018 291.564C319.643 298.394 319.119 301.986 319.931 302.511Z" fill="#68B19C"/>
<path d="M426.252 238.259C426.252 238.259 403.546 239.78 385.978 255.839C368.411 271.898 373.367 340.043 373.367 340.043" stroke="#263156" stroke-width="0.694818" stroke-miterlimit="10"/>
<path d="M336.279 263.325C337.105 263.823 338.115 264.44 339.282 265.134L347.16 266.039C347.16 266.039 344.473 266.498 342.284 266.891C348.563 270.431 357.557 274.587 366.707 274.285C366.707 274.285 366.104 264.518 352.68 259.327C339.255 254.148 318.096 252.955 317.401 255.499C316.72 258.055 330.996 260.179 336.266 263.325H336.279Z" fill="#68B19C"/>
<path d="M326.434 256.705C326.434 256.705 349.14 258.226 366.707 274.285C384.274 290.345 380.027 344.147 380.027 344.147" stroke="#263156" stroke-width="0.694818" stroke-miterlimit="10"/>
<path d="M328.794 232.622C328.794 232.622 362.46 239.57 370.391 250.7C378.322 261.831 377.641 339.703 377.641 339.703" stroke="#263156" stroke-width="0.694818" stroke-miterlimit="10"/>
<path d="M328.112 295.443C328.112 295.443 353.047 280.734 364.046 289.924C375.045 299.114 372.842 347.542 372.842 347.542" stroke="#263156" stroke-width="0.694818" stroke-miterlimit="10"/>
<path d="M394.998 324.103L394.618 328.639V328.704L394.461 330.435L394.107 334.603L393.975 336.19V336.334L393.792 338.405L393.622 340.49L393.556 341.407V341.473L393.49 342.194L393.294 344.475L393.136 346.363L392.992 348.093L392.638 352.262L392.494 353.993L392.14 358.162L391.996 359.879L391.642 364.048L391.498 365.778L391.144 369.947L391.026 371.324C391.013 371.455 391.013 371.56 391 371.678C390.646 374.706 389.282 376.922 387.67 376.922H363.81C362.21 376.922 360.821 374.706 360.48 371.678C360.467 371.56 360.467 371.455 360.454 371.324L360.336 369.947L359.982 365.778L359.838 364.048L359.484 359.879L359.339 358.162L358.985 353.993L358.841 352.262L358.487 348.093L358.343 346.363L358.186 344.475L357.989 342.194L357.937 341.473V341.407L357.871 340.49L357.688 338.405L357.517 336.334V336.19L357.373 334.603L357.019 330.435L356.875 328.704V328.639L356.495 324.103H394.867H394.998Z" fill="#ECC351"/>
<path d="M394.631 328.704L394.474 330.435H357.137L357.006 328.704H394.631Z" fill="#D7AB42"/>
<path d="M394.12 334.604L394.002 336.19L393.989 336.334H357.635L357.622 336.19L357.491 334.604H394.12Z" fill="#D7AB42"/>
<path d="M393.648 340.503L393.582 341.421L393.569 341.486L393.517 342.22H358.107L358.055 341.486V341.421L357.976 340.503H393.648Z" fill="#D7AB42"/>
<path d="M393.163 346.39L393.019 348.107H358.592L358.448 346.39H393.163Z" fill="#D7AB42"/>
<path d="M392.678 352.276L392.533 354.007H359.077L358.946 352.276H392.678Z" fill="#D7AB42"/>
<path d="M392.193 358.176L392.048 359.893H359.562L359.431 358.176H392.193Z" fill="#D7AB42"/>
<path d="M391.694 364.061L391.563 365.791H360.06L359.916 364.061H391.694Z" fill="#D7AB42"/>
<path d="M391.209 369.96L391.091 371.337C391.078 371.468 391.078 371.572 391.065 371.69H360.532C360.519 371.572 360.519 371.468 360.506 371.337L360.388 369.96H391.196H391.209Z" fill="#D7AB42"/>
<path d="M435.664 375.688H0.000244141V380.002H435.664V375.688Z" fill="#263156"/>
<path d="M200.396 35.7776C210.25 35.7776 218.239 27.7893 218.239 17.9352C218.239 8.08109 210.25 0.0927734 200.396 0.0927734C190.542 0.0927734 182.554 8.08109 182.554 17.9352C182.554 27.7893 190.542 35.7776 200.396 35.7776Z" fill="#D94841"/>
<path d="M204.859 25.285C205.663 26.0888 206.964 26.0909 207.765 25.2896C208.566 24.4884 208.564 23.1873 207.76 22.3835L195.95 10.5735C195.147 9.76968 193.846 9.76761 193.044 10.5688C192.243 11.3701 192.245 12.6712 193.049 13.475L204.859 25.285Z" fill="white"/>
<path d="M207.76 13.4858C208.564 12.682 208.566 11.3809 207.764 10.5797C206.963 9.77843 205.662 9.78051 204.858 10.5843L193.048 22.3943C192.244 23.1981 192.242 24.4992 193.044 25.3004C193.845 26.1017 195.146 26.0996 195.95 25.2958L207.76 13.4858Z" fill="white"/>
</svg>
