<svg width="20" height="20" viewBox="0 0 20 20" fill="none" xmlns="http://www.w3.org/2000/svg">
<g id="phone 1">
<path id="Vector" d="M17.3726 12.3796L13.6922 10.7303L13.6821 10.7256C13.491 10.6439 13.2826 10.6111 13.0756 10.6302C12.8686 10.6493 12.6698 10.7197 12.4969 10.835C12.4765 10.8484 12.4569 10.8631 12.4383 10.8788L10.5367 12.4998C9.33207 11.9147 8.08829 10.6803 7.50314 9.49127L9.12657 7.56077C9.14221 7.54127 9.15707 7.5217 9.17107 7.50063C9.28393 7.3282 9.35243 7.13057 9.37036 6.92529C9.38836 6.72002 9.35536 6.51348 9.27421 6.32407V6.31469L7.62029 2.62797C7.51307 2.38052 7.32871 2.17439 7.09469 2.04034C6.86067 1.9063 6.58958 1.85153 6.32188 1.88422C5.26326 2.02352 4.29155 2.54342 3.58824 3.34679C2.88492 4.15017 2.49809 5.1821 2.50001 6.24985C2.50001 12.453 7.54686 17.4998 13.75 17.4998C14.8177 17.5018 15.8496 17.1149 16.6531 16.4116C17.4564 15.7083 17.9764 14.7366 18.1156 13.678C18.1484 13.4103 18.0937 13.1393 17.9599 12.9053C17.8259 12.6713 17.62 12.4869 17.3726 12.3796ZM13.75 16.2498C11.0987 16.2469 8.55686 15.1924 6.68214 13.3177C4.8074 11.443 3.7529 8.90113 3.75001 6.24985C3.74707 5.48694 4.02192 4.74906 4.52324 4.17399C5.02456 3.59892 5.71806 3.22599 6.47423 3.12484C6.47392 3.12796 6.47392 3.1311 6.47423 3.13422L8.11486 6.8061L6.50001 8.73892C6.48361 8.75777 6.46873 8.77784 6.45548 8.79906C6.33791 8.97949 6.26894 9.1872 6.25525 9.40206C6.24156 9.61699 6.28362 9.83177 6.37735 10.0256C7.08516 11.4733 8.54379 12.9209 10.0071 13.628C10.2024 13.7208 10.4184 13.7614 10.634 13.7458C10.8497 13.7302 11.0576 13.6589 11.2375 13.5389C11.2576 13.5254 11.2769 13.5108 11.2953 13.4951L13.1946 11.8748L16.8664 13.5193C16.8664 13.5193 16.8726 13.5193 16.875 13.5193C16.7751 14.2766 16.4027 14.9715 15.8276 15.4741C15.2524 15.9766 14.5138 16.2524 13.75 16.2498Z" fill="#35353D"/>
</g>
</svg>
