<svg width="17" height="17" viewBox="0 0 17 17" fill="none" xmlns="http://www.w3.org/2000/svg">
<g id="power 1" clip-path="url(#clip0_2916_3736)">
<path id="Vector" d="M14.446 7.18594C14.3658 7.00264 14.1846 6.88425 13.9845 6.88425H9.79646L11.8137 1.22896C11.8942 1.0034 11.8047 0.752303 11.5998 0.628402C11.3947 0.504434 11.1309 0.541927 10.9685 0.717968L2.97916 9.38155C2.8435 9.52863 2.80775 9.7421 2.88811 9.9254C2.96834 10.1087 3.14956 10.2271 3.34965 10.2271H6.07231C6.35069 10.2271 6.57625 10.0015 6.57625 9.72315C6.57625 9.44484 6.35069 9.21922 6.07231 9.21922H4.49983L10.034 3.21802L8.6069 7.2188C8.55194 7.37313 8.57788 7.54461 8.67235 7.67852C8.76675 7.81243 8.92297 7.89205 9.08685 7.89205H12.8342L7.30084 13.8926L8.72818 9.89247C8.78328 9.73813 8.7599 9.56666 8.66543 9.43275C8.57096 9.29884 8.41742 9.21915 8.25354 9.21915H8.24857C8.01172 9.21915 7.81485 9.38256 7.76143 9.60274L5.52074 15.8822C5.44024 16.1077 5.52967 16.3588 5.73461 16.4827C5.81557 16.5317 5.90574 16.5555 5.99518 16.5555C6.13218 16.5555 6.26764 16.4997 6.36587 16.3932L14.3549 7.72965C14.4906 7.58264 14.5263 7.36924 14.446 7.18594Z" fill="#45A845"/>
</g>
<defs>
<clipPath id="clip0_2916_3736">
<rect width="16" height="16" fill="white" transform="translate(0.666992 0.555664)"/>
</clipPath>
</defs>
</svg>
