<svg width="20" height="20" viewBox="0 0 20 20" fill="none" xmlns="http://www.w3.org/2000/svg">
<g clip-path="url(#clip0_685_3150)">
<path d="M18.1838 -0.00164795H1.82015C0.817366 -0.00164795 0.00195312 0.813764 0.00195312 1.81655V4.54382C0.00195312 5.54657 0.817366 6.36202 1.82015 6.36202H18.1838C19.1865 6.36202 20.002 5.54661 20.002 4.54382V1.81655C20.002 0.813764 19.1865 -0.00164795 18.1838 -0.00164795ZM3.63831 4.08926C3.63831 4.34051 3.435 4.54382 3.18375 4.54382C2.93249 4.54382 2.72923 4.34051 2.72923 4.08926V2.27107C2.72923 2.01982 2.93254 1.81651 3.18379 1.81651C3.43504 1.81651 3.63835 2.01982 3.63835 2.27107L3.63831 4.08926ZM5.4565 4.08926C5.4565 4.34051 5.25319 4.54382 5.00194 4.54382C4.75069 4.54382 4.54738 4.34051 4.54738 4.08926V2.27107C4.54738 2.01982 4.75069 1.81651 5.00194 1.81651C5.25319 1.81651 5.4565 2.01982 5.4565 2.27107V4.08926ZM7.2747 4.08926C7.2747 4.34051 7.07139 4.54382 6.82014 4.54382C6.56889 4.54382 6.36558 4.34051 6.36558 4.08926V2.27107C6.36558 2.01982 6.56889 1.81651 6.82014 1.81651C7.07139 1.81651 7.2747 2.01982 7.2747 2.27107V4.08926ZM13.6383 4.08926C13.1372 4.08926 12.7292 3.68132 12.7292 3.18019C12.7292 2.67905 13.1372 2.27107 13.6383 2.27107C14.1395 2.27107 14.5474 2.67901 14.5474 3.18014C14.5474 3.68128 14.1395 4.08926 13.6383 4.08926ZM16.3656 4.08926C15.8645 4.08926 15.4565 3.68132 15.4565 3.18019C15.4565 2.67905 15.8645 2.27107 16.3656 2.27107C16.8667 2.27107 17.2747 2.67901 17.2747 3.18014C17.2747 3.68128 16.8667 4.08926 16.3656 4.08926Z" fill="white"/>
<path d="M18.1838 6.8165H1.82015C0.817366 6.8165 0.00195312 7.63191 0.00195312 8.6347V11.362C0.00195312 12.3647 0.817366 13.1802 1.82015 13.1802H18.1838C19.1865 13.1802 20.002 12.3648 20.002 11.362V8.6347C20.002 7.63191 19.1865 6.8165 18.1838 6.8165ZM3.63831 10.9074C3.63831 11.1587 3.435 11.362 3.18375 11.362C2.93249 11.362 2.72923 11.1587 2.72923 10.9074V9.08921C2.72923 8.83796 2.93254 8.63465 3.18379 8.63465C3.43504 8.63465 3.63835 8.83796 3.63835 9.08921L3.63831 10.9074ZM5.4565 10.9074C5.4565 11.1587 5.25319 11.362 5.00194 11.362C4.75069 11.362 4.54738 11.1587 4.54738 10.9074V9.08921C4.54738 8.83796 4.75069 8.63465 5.00194 8.63465C5.25319 8.63465 5.4565 8.83796 5.4565 9.08921V10.9074ZM7.2747 10.9074C7.2747 11.1587 7.07139 11.362 6.82014 11.362C6.56889 11.362 6.36558 11.1587 6.36558 10.9074V9.08921C6.36558 8.83796 6.56889 8.63465 6.82014 8.63465C7.07139 8.63465 7.2747 8.83796 7.2747 9.08921V10.9074ZM13.6383 10.9074C13.1372 10.9074 12.7292 10.4995 12.7292 9.99833C12.7292 9.4972 13.1372 9.08926 13.6383 9.08926C14.1395 9.08926 14.5474 9.4972 14.5474 9.99833C14.5474 10.4995 14.1395 10.9074 13.6383 10.9074ZM16.3656 10.9074C15.8645 10.9074 15.4565 10.4995 15.4565 9.99833C15.4565 9.4972 15.8645 9.08926 16.3656 9.08926C16.8667 9.08926 17.2747 9.4972 17.2747 9.99833C17.2747 10.4995 16.8667 10.9074 16.3656 10.9074Z" fill="white"/>
<path d="M18.1838 13.6346H1.82015C0.817366 13.6346 0.00195312 14.4501 0.00195312 15.4528V18.1801C0.00195312 19.1829 0.817366 19.9983 1.82015 19.9983H18.1838C19.1865 19.9983 20.002 19.1829 20.002 18.1801V15.4528C20.002 14.4501 19.1865 13.6346 18.1838 13.6346ZM3.63831 17.7256C3.63831 17.9768 3.435 18.1801 3.18375 18.1801C2.93249 18.1801 2.72923 17.9768 2.72923 17.7256V15.9074C2.72923 15.6561 2.93254 15.4528 3.18379 15.4528C3.43504 15.4528 3.63835 15.6561 3.63835 15.9074L3.63831 17.7256ZM5.4565 17.7256C5.4565 17.9768 5.25319 18.1801 5.00194 18.1801C4.75069 18.1801 4.54738 17.9768 4.54738 17.7256V15.9074C4.54738 15.6561 4.75069 15.4528 5.00194 15.4528C5.25319 15.4528 5.4565 15.6561 5.4565 15.9074V17.7256ZM7.2747 17.7256C7.2747 17.9768 7.07139 18.1801 6.82014 18.1801C6.56889 18.1801 6.36558 17.9768 6.36558 17.7256V15.9074C6.36558 15.6561 6.56889 15.4528 6.82014 15.4528C7.07139 15.4528 7.2747 15.6561 7.2747 15.9074V17.7256ZM13.6383 17.7256C13.1372 17.7256 12.7292 17.3176 12.7292 16.8165C12.7292 16.3153 13.1372 15.9074 13.6383 15.9074C14.1395 15.9074 14.5474 16.3153 14.5474 16.8165C14.5474 17.3176 14.1395 17.7256 13.6383 17.7256ZM16.3656 17.7256C15.8645 17.7256 15.4565 17.3176 15.4565 16.8165C15.4565 16.3153 15.8645 15.9074 16.3656 15.9074C16.8667 15.9074 17.2747 16.3153 17.2747 16.8165C17.2747 17.3176 16.8667 17.7256 16.3656 17.7256Z" fill="white"/>
</g>
<defs>
<clipPath id="clip0_685_3150">
<rect width="20" height="20" fill="white" transform="translate(0 -0.00109863)"/>
</clipPath>
</defs>
</svg>
