<svg width="20" height="20" viewBox="0 0 20 20" fill="none" xmlns="http://www.w3.org/2000/svg">
<path d="M16.9582 5.59054C16.958 6.24903 16.7466 6.89009 16.3551 7.41957C15.9636 7.94904 15.4127 8.33902 14.7832 8.53222C14.9273 8.0624 15.0003 7.57366 14.9998 7.08222C14.9999 6.21658 14.7748 5.36581 14.3468 4.61342C13.9187 3.86103 13.3023 3.23289 12.5582 2.79066C12.9707 2.59914 13.42 2.49959 13.8748 2.4989C14.6936 2.50033 15.4783 2.82678 16.0564 3.4065C16.6346 3.98623 16.9589 4.77179 16.9582 5.59054ZM16.3332 9.41562C15.9831 9.31754 15.6084 9.3625 15.2915 9.54062C14.9352 9.73819 14.5397 9.85481 14.1332 9.88218C13.9649 10.1387 13.7693 10.3762 13.5498 10.5906C14.3371 10.8497 15.038 11.3202 15.5759 11.9507C16.1138 12.5812 16.468 13.3474 16.5998 14.1657H17.1748C17.3595 14.1682 17.5415 14.1208 17.7014 14.0284C17.8613 13.936 17.9932 13.802 18.0832 13.6407C18.2486 13.3304 18.3345 12.9839 18.3332 12.6322V12.0405C18.3332 10.7989 17.5082 9.72382 16.3332 9.41562ZM7.44152 2.79066C7.02895 2.59914 6.57969 2.49959 6.12484 2.4989C5.38651 2.49941 4.67285 2.76467 4.11343 3.24652C3.55401 3.72837 3.18592 4.39485 3.07601 5.12495C2.9661 5.85505 3.12164 6.60036 3.51441 7.22555C3.90717 7.85074 4.51111 8.31436 5.21656 8.53222C5.07239 8.06241 4.99934 7.57366 4.99984 7.08222C4.9998 6.21658 5.22486 5.36581 5.65293 4.61342C6.081 3.86103 6.69736 3.23289 7.44152 2.79066ZM6.44984 10.5905C6.23038 10.3761 6.03479 10.1386 5.86648 9.8821C5.45998 9.85473 5.06451 9.73811 4.7082 9.54054C4.39128 9.36242 4.01659 9.31746 3.66652 9.41554C2.49148 9.72374 1.66652 10.7988 1.66652 12.0405V12.6321C1.66518 12.9838 1.75108 13.3303 1.91652 13.6407C2.00553 13.801 2.13609 13.9343 2.29448 14.0267C2.45286 14.1191 2.63321 14.167 2.81656 14.1656H3.39984C3.53166 13.3473 3.88588 12.5811 4.42379 11.9506C4.9617 11.3201 5.66258 10.8496 6.44984 10.5905ZM12.9832 11.7239C12.8387 11.6876 12.6905 11.668 12.5415 11.6656C12.2525 11.6662 11.9685 11.7408 11.7165 11.8823C11.1907 12.172 10.6002 12.3239 9.99984 12.3239C9.39951 12.3239 8.80894 12.172 8.28316 11.8823C8.03118 11.7408 7.74718 11.6662 7.4582 11.6656C7.30921 11.668 7.161 11.6876 7.01648 11.7239C6.31614 11.9138 5.69805 12.3296 5.25808 12.9066C4.81812 13.4836 4.58087 14.1897 4.58316 14.9153V15.6404C4.58343 16.0653 4.6894 16.4834 4.89152 16.8571C5.09984 17.257 5.51652 17.4987 5.98316 17.4987H14.0165C14.4832 17.4987 14.8998 17.257 15.1082 16.8571C15.3103 16.4834 15.4162 16.0653 15.4165 15.6404V14.9155C15.4188 14.1899 15.1816 13.4837 14.7416 12.9067C14.3017 12.3296 13.6836 11.9139 12.9832 11.7239ZM13.7498 7.08222C13.7498 6.34054 13.5299 5.61552 13.1179 4.99883C12.7058 4.38215 12.1201 3.9015 11.4349 3.61767C10.7497 3.33384 9.99568 3.25958 9.26825 3.40428C8.54082 3.54897 7.87264 3.90612 7.34819 4.43057C6.82374 4.95502 6.46659 5.6232 6.3219 6.35063C6.1772 7.07806 6.25146 7.83206 6.53529 8.51728C6.81912 9.20251 7.29977 9.78818 7.91645 10.2002C8.53314 10.6123 9.25816 10.8322 9.99984 10.8322C10.9944 10.8322 11.9482 10.4371 12.6515 9.73387C13.3548 9.03061 13.7498 8.07678 13.7498 7.08222Z" fill="#35353D"/>
</svg>
