<svg xmlns="http://www.w3.org/2000/svg" width="32" height="33" viewBox="0 0 32 33" fill="none">
  <path d="M23.5154 4.05566H8.48511C7.65086 4.05566 6.97461 4.73191 6.97461 5.56629V27.5452C6.97461 28.3794 7.65086 29.0557 8.48511 29.0557H23.5154C24.3496 29.0557 25.026 28.3794 25.026 27.545V5.56629C25.026 4.73191 24.3496 4.05566 23.5154 4.05566Z" fill="#AFAFAF"/>
  <path d="M23.5435 27.8867H10.801C10.6284 27.8867 10.4885 27.7468 10.4885 27.5742C10.4885 27.4015 10.6284 27.2617 10.801 27.2617H23.2309V5.56641C23.2309 5.39378 23.3708 5.25391 23.5434 5.25391C23.716 5.25391 23.8559 5.39378 23.8559 5.56641V27.574C23.856 27.7467 23.7161 27.8867 23.5435 27.8867ZM9.551 27.8867H8.48438C8.31175 27.8867 8.17188 27.7468 8.17188 27.5742C8.17188 27.4015 8.31175 27.2617 8.48438 27.2617H9.551C9.72362 27.2617 9.8635 27.4015 9.8635 27.5742C9.8635 27.7468 9.72362 27.8867 9.551 27.8867Z" fill="#EFEFEF"/>
  <path d="M20.4672 15.2724H16.3263L18.4869 7.75702C18.57 7.46702 18.1819 7.28489 18.0122 7.53514L11.3137 17.4259C11.1943 17.6018 11.3208 17.8396 11.5329 17.8396H15.6738L13.5132 25.355C13.43 25.645 13.8182 25.8271 13.9879 25.5769L20.6864 15.6861C20.8058 15.5101 20.6793 15.2724 20.4672 15.2724Z" fill="#F0C020"/>
  <path d="M4.4834 7.8418C4.27627 7.8418 4.1084 8.00967 4.1084 8.2168V11.209C4.1084 11.4162 4.27627 11.584 4.4834 11.584H6.9749V7.8418H4.4834Z" fill="#7C7B7A"/>
  <path d="M4.4834 14.6855C4.27627 14.6855 4.1084 14.8534 4.1084 15.0605V18.0528C4.1084 18.2599 4.27627 18.4278 4.4834 18.4278H6.9749V14.6855H4.4834Z" fill="#7C7B7A"/>
  <path d="M4.4834 21.5303C4.27627 21.5303 4.1084 21.6981 4.1084 21.9053V24.8975C4.1084 25.1046 4.27627 25.2725 4.4834 25.2725H6.9749V21.5303H4.4834Z" fill="#7C7B7A"/>
  <path d="M0.577148 8.57227H4.1069V10.8508H0.577148V8.57227Z" fill="#FC5D3D"/>
  <path d="M0.577148 15.416H4.1069V17.6945H0.577148V15.416Z" fill="#FC5D3D"/>
  <path d="M0.577148 22.2598H4.1069V24.5383H0.577148V22.2598Z" fill="#FC5D3D"/>
  <path d="M27.5168 21.5293H25.0254V25.2715H27.5168C27.7239 25.2715 27.8918 25.1037 27.8918 24.8965V21.9043C27.8918 21.6972 27.7239 21.5293 27.5168 21.5293Z" fill="#7C7B7A"/>
  <path d="M27.8906 22.2598H31.4204V24.5384H27.8906V22.2598Z" fill="#72C1E8"/>
  <path d="M27.5168 14.6855H25.0254V18.4278H27.5168C27.7239 18.4278 27.8918 18.2599 27.8918 18.0528V15.0605C27.8918 14.8534 27.7239 14.6855 27.5168 14.6855Z" fill="#7C7B7A"/>
  <path d="M27.8906 15.416H31.4204V17.6946H27.8906V15.416Z" fill="#72C1E8"/>
  <path d="M27.5168 7.8418H25.0254V11.584H27.5168C27.7239 11.584 27.8918 11.4162 27.8918 11.209V8.2168C27.8918 8.00967 27.7239 7.8418 27.5168 7.8418Z" fill="#7C7B7A"/>
  <path d="M27.8906 8.57227H31.4204V10.8509H27.8906V8.57227Z" fill="#72C1E8"/>
  <path d="M14.5854 21.6224C14.7667 21.6718 14.9285 21.5609 14.9717 21.4087C15.0192 21.2424 14.9229 21.0687 14.7579 21.0212C14.5954 20.9749 14.4179 21.0737 14.3716 21.2349C14.3241 21.4012 14.419 21.5749 14.5854 21.6224Z" fill="black"/>
  <path d="M17.7511 7.36085L11.0536 17.2509C10.7949 17.6244 11.065 18.1485 11.5311 18.1521H15.2574L14.7162 20.0346C14.6686 20.2009 14.7637 20.3734 14.93 20.4221C15.0925 20.4696 15.27 20.3684 15.3162 20.2071L15.9725 17.9259C16.0302 17.7287 15.8834 17.5271 15.6725 17.5271H11.6212L18.1037 7.95585L16.025 15.1859C15.9664 15.386 16.1184 15.5846 16.3249 15.5846H20.3761L13.8937 25.1558L14.6261 22.6109C14.6736 22.4427 14.5766 22.2721 14.4124 22.2234C14.2486 22.1771 14.0712 22.2771 14.0249 22.4384L13.2111 25.2683C13.031 25.9278 13.895 26.278 14.2449 25.7533L20.9436 15.8609C21.2045 15.4799 20.9256 14.9632 20.4662 14.9596H16.7399L18.7861 7.84335C18.9626 7.18248 18.096 6.8331 17.7511 7.36085Z" fill="black"/>
  <path d="M12.2646 4.36816C12.4372 4.36816 12.5771 4.22825 12.5771 4.05566C12.5771 3.88308 12.4372 3.74316 12.2646 3.74316C12.0921 3.74316 11.9521 3.88308 11.9521 4.05566C11.9521 4.22825 12.0921 4.36816 12.2646 4.36816Z" fill="black"/>
  <path d="M27.5169 11.8957C27.8956 11.8957 28.2031 11.5869 28.2044 11.2082V11.1632H31.4219C31.5931 11.1632 31.7344 11.0232 31.7344 10.8507C31.7344 10.6782 31.5931 10.5382 31.4219 10.5382H28.2044V8.88441H31.4219C31.5931 8.88441 31.7344 8.74441 31.7344 8.57191C31.7344 8.40066 31.5931 8.25941 31.4219 8.25941H28.2044V8.21566C28.2031 7.83691 27.8956 7.52816 27.5169 7.52816H25.337V5.56566C25.337 4.56066 24.5195 3.74316 23.5145 3.74316H13.5145C13.342 3.74316 13.202 3.88316 13.202 4.05566C13.202 4.22816 13.342 4.36816 13.5145 4.36816H23.5145C24.1744 4.36941 24.712 4.90691 24.712 5.56566V27.5457C24.712 28.2044 24.1744 28.7419 23.5145 28.7432H8.48438C7.82438 28.7419 7.28687 28.2044 7.28562 27.5457C7.28562 25.256 7.28562 8.31629 7.28562 5.56566C7.28687 4.90691 7.82438 4.36941 8.48438 4.36816H11.0144C11.1869 4.36816 11.3269 4.22816 11.3269 4.05566C11.3269 3.88441 11.1881 3.74441 11.0169 3.74316C11.0156 3.74316 11.0156 3.74316 11.0144 3.74316H8.48438C7.47937 3.74316 6.66187 4.56066 6.66062 5.56566V7.52816H4.48175C4.10313 7.52816 3.79425 7.83691 3.79425 8.21566V8.25941H0.576875C0.405625 8.25941 0.265625 8.40066 0.265625 8.57316C0.265625 8.74441 0.405625 8.88441 0.576875 8.88441H3.79425V10.5382H0.576875C0.405625 10.5382 0.265625 10.6794 0.265625 10.8507C0.265625 11.0232 0.405625 11.1632 0.576875 11.1632H3.79425V11.2082C3.79425 11.5869 4.10313 11.8957 4.48175 11.8957H6.66062V14.3719H4.48175C4.10313 14.3719 3.79425 14.6807 3.79425 15.0594V15.1044H0.576875C0.405625 15.1044 0.265625 15.2444 0.265625 15.4169C0.265625 15.5882 0.405625 15.7294 0.576875 15.7294H3.79425V17.3819H0.576875C0.405625 17.3819 0.265625 17.5232 0.265625 17.6944C0.265625 17.8669 0.405625 18.0082 0.576875 18.0082C0.578125 18.0082 0.578125 18.0069 0.579375 18.0069H3.79437V18.0519C3.79437 18.4307 4.10325 18.7394 4.48187 18.7394H6.66075V21.2157H4.48175C4.10313 21.2157 3.79425 21.5244 3.79425 21.9032V21.9482H0.576875C0.405625 21.9482 0.265625 22.0882 0.265625 22.2607C0.265625 22.4332 0.405625 22.5732 0.576875 22.5732H3.79425V24.2257H0.576875C0.405625 24.2257 0.265625 24.3669 0.265625 24.5394C0.265625 24.7107 0.405625 24.8507 0.576875 24.8507H3.79425V24.8957C3.79425 25.2744 4.10313 25.5832 4.48175 25.5832H6.66062V27.5457C6.66187 28.5507 7.47937 29.3682 8.48438 29.3682H23.5144C24.5194 29.3682 25.3369 28.5507 25.3369 27.5457V25.5832H27.5168C27.8955 25.5832 28.203 25.2744 28.2043 24.8957V24.8519H31.4217C31.593 24.8519 31.7342 24.7107 31.7342 24.5394C31.7342 24.3669 31.5942 24.2269 31.423 24.2269L31.4217 24.2257H28.2043V22.5732H31.4217C31.593 22.5732 31.7342 22.4332 31.7342 22.2607C31.7342 22.0882 31.593 21.9482 31.4217 21.9482H28.2043V21.9032C28.203 21.5244 27.8955 21.2157 27.5168 21.2157H25.3369V18.7394H27.5168C27.8955 18.7394 28.203 18.4307 28.2043 18.0519V18.0069H31.4217C31.593 18.0069 31.7342 17.8669 31.7342 17.6944C31.7342 17.5232 31.593 17.3819 31.4217 17.3819H28.2043V15.7294H31.4217C31.593 15.7294 31.7342 15.5882 31.7342 15.4169C31.7342 15.2444 31.593 15.1044 31.4217 15.1044H28.2043C28.2043 14.6352 27.8631 14.3719 27.5168 14.3719H25.3369V11.8957H27.5169ZM4.48175 11.2707C4.448 11.2707 4.41925 11.2419 4.41925 11.2082C4.41925 10.5869 4.41925 8.90054 4.41925 8.21566C4.41925 8.18066 4.448 8.15316 4.48175 8.15316H6.66062V11.2707H4.48175ZM4.48175 18.1144C4.448 18.1144 4.41925 18.0857 4.41925 18.0519C4.41925 17.4307 4.41925 15.7443 4.41925 15.0594C4.41925 15.0257 4.448 14.9969 4.48175 14.9969H6.66062V18.1144H4.48175ZM4.48175 24.9582C4.448 24.9582 4.41925 24.9307 4.41925 24.8957C4.41925 24.3425 4.41925 22.9775 4.41925 21.9032C4.41925 21.8694 4.448 21.8407 4.48175 21.8407H6.66062V24.9582H4.48175ZM27.5169 8.15316C27.5507 8.15316 27.5794 8.18066 27.5794 8.21566V11.2082C27.5794 11.2419 27.5507 11.2707 27.5169 11.2707H25.337V8.15316H27.5169ZM27.5169 21.8407C27.5507 21.8407 27.5794 21.8694 27.5794 21.9032V24.8957C27.5794 24.9294 27.5507 24.9582 27.5169 24.9582H25.337V21.8407H27.5169ZM27.5169 14.9969C27.5507 14.9969 27.5794 15.0257 27.5794 15.0594V18.0519C27.5794 18.0869 27.5507 18.1144 27.5169 18.1144H25.337V14.9969H27.5169Z" fill="black"/>
</svg>