<svg xmlns="http://www.w3.org/2000/svg" width="33" height="33" viewBox="0 0 33 33" fill="none">
  <g clip-path="url(#clip0_2186_8609)">
    <path d="M25.5441 5.32367C29.3228 5.68667 32.0608 9.16573 32.2744 12.6083C32.4881 16.0509 30.717 18.6224 28.5058 21.4265C26.0285 24.5679 22.5676 27.4769 18.3251 27.7953C13.3435 28.1692 8.95988 24.9077 5.66388 21.4976C3.87426 19.646 2.18238 18.3592 1.41263 15.9975C-0.209367 11.0209 3.67876 6.44229 9.43763 7.18948C11.6378 7.47492 13.4521 8.05592 15.7265 7.68117C19.0542 7.13279 22.0423 4.98729 25.5441 5.32367Z" fill="#E5F2FF"/>
    <path d="M15.2295 23.5538V17.0725H11.8135L18.1027 9.55957V16.0408H21.5188L15.2295 23.5538Z" fill="#62A1FD"/>
    <path d="M15.2285 17.0732H16.1636V22.4362L15.2285 23.554V17.0732Z" fill="white"/>
    <path d="M18.1044 9.55859V10.6716L12.7462 17.073H11.8135L18.1044 9.55859Z" fill="white"/>
    <path d="M15.1058 23.8918C15.146 23.9065 15.1875 23.9135 15.2288 23.9135C15.3335 23.9135 15.4354 23.8678 15.5054 23.7844L21.7946 16.2715C21.8845 16.1641 21.904 16.0143 21.8448 15.8875C21.7855 15.7606 21.6582 15.6795 21.5181 15.6795H18.4626V9.55883C18.4626 9.40721 18.3678 9.27171 18.225 9.21996C18.083 9.16821 17.9232 9.21089 17.8255 9.32733L11.5362 16.8403C11.4463 16.9476 11.4268 17.0975 11.486 17.2243C11.5453 17.3512 11.6726 17.4323 11.8127 17.4323H14.8682V23.553C14.8683 23.7046 14.9632 23.8401 15.1058 23.8918ZM12.5848 16.7112L17.7414 10.5513V16.04C17.7414 16.2392 17.9029 16.4006 18.102 16.4006H20.746L15.5894 22.5605V17.0718C15.5894 16.8726 15.4279 16.7112 15.2288 16.7112H12.5848Z" fill="#3E3159"/>
    <path d="M4.6467 16.9173C4.84576 16.9173 5.00726 16.756 5.00726 16.5568C5.00726 10.1275 10.2378 4.89697 16.6671 4.89697C20.4851 4.89697 23.9973 6.73053 26.1851 9.82809L22.0751 10.0914C21.8763 10.1042 21.7255 10.2756 21.7382 10.4743C21.7504 10.6653 21.9091 10.8118 22.0978 10.8118C22.1053 10.8118 22.1133 10.8116 22.1211 10.8112L26.8581 10.5076C27.0565 10.4949 27.2074 10.3163 27.195 10.1247L26.8914 5.38778C26.8788 5.18897 26.7034 5.03903 26.5086 5.05091C26.3098 5.06372 26.159 5.23509 26.1717 5.43378L26.3942 8.90565C24.0558 5.92522 20.5081 4.17578 16.6671 4.17578C9.84032 4.17578 4.28613 9.72984 4.28613 16.5568C4.28613 16.756 4.44763 16.9173 4.6467 16.9173Z" fill="#3E3159"/>
    <path d="M28.5523 14.7295C28.3546 14.7535 28.2141 14.9332 28.238 15.131C28.2953 15.6011 28.3244 16.081 28.3244 16.5572C28.3244 22.9851 23.0948 28.2147 16.6669 28.2147C12.1908 28.2147 8.1462 25.6708 6.19426 21.6847L10.2664 22.1646C10.4639 22.1872 10.6434 22.0464 10.6667 21.8486C10.6902 21.6509 10.5486 21.4717 10.3509 21.4483L5.63695 20.8929C5.43926 20.8703 5.25995 21.0111 5.2367 21.2089L4.68126 25.9229C4.65776 26.1206 4.79932 26.2998 4.99701 26.3232C5.01132 26.3248 5.02564 26.3256 5.03976 26.3256C5.22007 26.3256 5.3757 26.1906 5.39726 26.0072L5.80951 22.5091C7.96832 26.449 12.1068 28.9358 16.6669 28.9358C23.4925 28.9358 29.0455 23.3828 29.0455 16.5572C29.0455 16.052 29.0148 15.5428 28.9539 15.0437C28.9298 14.846 28.7495 14.7043 28.5523 14.7295Z" fill="#3E3159"/>
  </g>
  <defs>
    <clipPath id="clip0_2186_8609">
      <rect width="32" height="32" fill="white" transform="translate(0.666992 0.555664)"/>
    </clipPath>
  </defs>
</svg>