<svg xmlns="http://www.w3.org/2000/svg" width="33" height="33" viewBox="0 0 33 33" fill="none">
  <g clip-path="url(#clip0_2183_6939)">
    <path d="M30.0205 13.6086C29.6831 12.0898 29.083 10.646 28.2581 9.3335L29.4392 7.34595L25.7644 3.67114L23.7766 4.85229C22.4644 4.02734 21.0205 3.42725 19.5017 3.08984L18.9392 0.777344H13.7268L13.1643 3.08984C11.6455 3.42725 10.2017 4.02734 8.8894 4.85229L6.90161 3.67114L3.22681 7.34595L4.40796 9.3335C3.58301 10.646 2.98291 12.0898 2.64551 13.6086L0.333008 14.1711V19.3835L2.64551 19.946C2.98291 21.4648 3.58301 22.9084 4.40796 24.2209L3.22681 26.2085L6.90161 29.8835L8.8894 28.7024C10.2017 29.5273 11.6455 30.1274 13.1643 30.4648L13.7268 32.7773H18.9392L19.5017 30.4648C21.0205 30.1274 22.4644 29.5273 23.7766 28.7024L25.7644 29.8835L29.4392 26.2085L28.2581 24.2209C29.083 22.9084 29.6831 21.4648 30.0205 19.946L32.333 19.3835V14.1711L30.0205 13.6086ZM16.333 27.0898C10.6516 27.0898 6.02051 22.4585 6.02051 16.7773C6.02051 11.0959 10.6516 6.46484 16.333 6.46484C22.0144 6.46484 26.6455 11.0959 26.6455 16.7773C26.6455 22.4585 22.0144 27.0898 16.333 27.0898Z" fill="#E3EEFF"/>
    <path d="M22.7627 13.9653L16.3315 23.7341L15.394 25.1589V19.5903H9.90039L16.3315 9.82153L17.269 8.39648V13.9653H22.7627Z" fill="#FFDA2D"/>
    <path d="M22.7642 13.9653L16.333 23.7341V9.82153L17.2705 8.39648V13.9653H22.7642Z" fill="#FDBF00"/>
    <path d="M32.333 14.1711V19.3835L30.0205 19.946C29.6831 21.4648 29.083 22.9084 28.2581 24.2209L29.4392 26.2085L25.7644 29.8835L23.7766 28.7024C22.4644 29.5273 21.0205 30.1274 19.5017 30.4648L18.9392 32.7773H16.333V27.0898C22.0144 27.0898 26.6455 22.4585 26.6455 16.7773C26.6455 11.0959 22.0144 6.46484 16.333 6.46484V0.777344H18.9392L19.5017 3.08984C21.0205 3.42725 22.4644 4.02734 23.7766 4.85229L25.7644 3.67114L29.4392 7.34595L28.2581 9.3335C29.083 10.646 29.6831 12.0898 30.0205 13.6086L32.333 14.1711Z" fill="#C4D9F2"/>
  </g>
  <defs>
    <clipPath id="clip0_2183_6939">
      <rect width="32" height="32" fill="white" transform="translate(0.333008 0.777344)"/>
    </clipPath>
  </defs>
</svg>