<svg xmlns="http://www.w3.org/2000/svg" width="16" height="17" viewBox="0 0 16 17" fill="none">
  <g clip-path="url(#clip0_1984_21100)">
    <path d="M11.75 13.4264C12.3005 13.4264 12.7484 12.9785 12.7484 12.428V8.80376H13.753C13.8638 9.22257 14.2459 9.53226 14.699 9.53226C15.2386 9.53226 15.6775 9.09332 15.6775 8.55376C15.6775 8.01419 15.2386 7.57526 14.699 7.57526C14.2458 7.57526 13.8638 7.88494 13.753 8.30376H12.7484V4.67954C12.7484 4.12901 12.3005 3.6811 11.75 3.6811H11.0669V2.56063H13.4437C13.5545 2.97945 13.9366 3.28913 14.3897 3.28913C14.9293 3.28913 15.3682 2.85016 15.3682 2.31063C15.3682 1.7711 14.9293 1.33213 14.3897 1.33213C13.9366 1.33213 13.5545 1.64182 13.4437 2.06063H10.8169C10.6789 2.06063 10.5669 2.17257 10.5669 2.31063V3.68107H8.30846V2.73013C8.72727 2.61935 9.03696 2.23729 9.03696 1.78413C9.03693 1.2446 8.59799 0.805664 8.05846 0.805664C7.51893 0.805664 7.07996 1.2446 7.07996 1.78416C7.07996 2.23732 7.38965 2.61938 7.80843 2.73013V3.6811H5.51827V2.31063C5.51827 2.17257 5.40634 2.06063 5.26827 2.06063H3.31662C3.2059 1.64185 2.8238 1.3322 2.37068 1.3322C1.83115 1.3322 1.39218 1.77113 1.39218 2.31066C1.39218 2.85023 1.83112 3.28916 2.37068 3.28916C2.82384 3.28916 3.2059 2.97948 3.31668 2.56066H5.0183V3.6811H4.36693C3.8164 3.6811 3.36849 4.12901 3.36849 4.67954V8.30379H2.24771C2.13693 7.88498 1.75487 7.57529 1.30174 7.57529C0.762211 7.57529 0.323242 8.01423 0.323242 8.55379C0.323242 9.09335 0.76218 9.53229 1.30174 9.53229C1.7549 9.53229 2.13696 9.2226 2.24771 8.80379H3.36849V12.428C3.36849 12.9785 3.8164 13.4264 4.36693 13.4264H5.0183V14.4848H3.31665C3.20587 14.0659 2.8238 13.7563 2.37068 13.7563C1.83115 13.7563 1.39218 14.1952 1.39218 14.7348C1.39218 15.2743 1.83112 15.7133 2.37068 15.7133C2.82384 15.7133 3.2059 15.4036 3.31665 14.9848H5.2683C5.40637 14.9848 5.5183 14.8728 5.5183 14.7348V13.4264H7.80846V14.3812C7.38965 14.492 7.07999 14.874 7.07999 15.3272C7.07999 15.8668 7.51893 16.3057 8.05846 16.3057C8.59802 16.3057 9.03696 15.8668 9.03696 15.3272C9.03696 14.874 8.72727 14.492 8.30846 14.3812V13.4264H10.9046V14.7348C10.9046 14.8728 11.0165 14.9848 11.1546 14.9848H13.1062C13.217 15.4036 13.599 15.7133 14.0522 15.7133C14.5917 15.7133 15.0307 15.2743 15.0307 14.7348C15.0307 14.1952 14.5917 13.7563 14.0522 13.7563C13.599 13.7563 13.217 14.0659 13.1062 14.4848H11.4046V13.4264L11.75 13.4264ZM14.699 8.07529C14.9628 8.07529 15.1775 8.28995 15.1775 8.55379C15.1775 8.81763 14.9629 9.03229 14.699 9.03229C14.4352 9.03229 14.2206 8.81763 14.2206 8.55379C14.2206 8.28995 14.4352 8.07529 14.699 8.07529ZM14.3897 1.83216C14.6536 1.83216 14.8682 2.04682 14.8682 2.31066C14.8682 2.57451 14.6536 2.78916 14.3897 2.78916C14.1259 2.78916 13.9112 2.57451 13.9112 2.31066C13.9112 2.04682 14.1259 1.83216 14.3897 1.83216ZM7.57996 1.78416C7.57996 1.52035 7.79462 1.30566 8.05846 1.30566C8.3223 1.30566 8.53696 1.52032 8.53696 1.78416C8.53696 2.04801 8.3223 2.26266 8.05846 2.26266C7.79462 2.26266 7.57996 2.04798 7.57996 1.78416ZM2.37068 2.78913C2.10684 2.78913 1.89218 2.57448 1.89218 2.31063C1.89218 2.04679 2.10684 1.83216 2.37068 1.83216C2.63452 1.83216 2.84918 2.04679 2.84918 2.31063C2.84918 2.57448 2.63452 2.78913 2.37068 2.78913ZM1.30171 9.03226C1.03787 9.03226 0.823211 8.8176 0.823211 8.55376C0.823211 8.28991 1.03787 8.07526 1.30171 8.07526C1.56552 8.07526 1.78018 8.28991 1.78018 8.55376C1.78018 8.8176 1.56555 9.03226 1.30171 9.03226ZM2.37068 15.2132C2.10684 15.2132 1.89218 14.9986 1.89218 14.7347C1.89218 14.4709 2.10684 14.2562 2.37068 14.2562C2.63449 14.2562 2.84915 14.4709 2.84915 14.7347C2.84915 14.9986 2.63449 15.2132 2.37068 15.2132ZM8.53693 15.3272C8.53693 15.591 8.32227 15.8057 8.05843 15.8057C7.79462 15.8057 7.57996 15.591 7.57996 15.3272C7.57996 15.0633 7.79462 14.8487 8.05843 14.8487C8.32227 14.8487 8.53693 15.0634 8.53693 15.3272ZM14.0521 14.2563C14.316 14.2563 14.5306 14.4709 14.5306 14.7348C14.5306 14.9986 14.316 15.2133 14.0521 15.2133C13.7883 15.2133 13.5736 14.9986 13.5736 14.7348C13.5736 14.4709 13.7883 14.2563 14.0521 14.2563ZM3.86849 12.428V4.67954C3.86849 4.4047 4.09209 4.1811 4.36693 4.1811H11.75C12.0248 4.1811 12.2484 4.4047 12.2484 4.67954V12.428C12.2484 12.7028 12.0248 12.9264 11.75 12.9264H4.36693C4.09209 12.9264 3.86849 12.7028 3.86849 12.428ZM11.8786 9.29191C11.9751 9.25479 12.0387 9.16204 12.0387 9.0586V8.04891C12.0387 7.94548 11.9751 7.85276 11.8786 7.8156L11.3805 7.62388C11.3063 7.35826 11.2006 7.1031 11.0649 6.86248L11.2816 6.37445C11.3236 6.27995 11.3031 6.16935 11.23 6.0962L10.516 5.38226C10.4429 5.30913 10.3323 5.28854 10.2377 5.33057L9.74949 5.54738C9.50887 5.41173 9.2538 5.30598 8.98834 5.23182L8.79655 4.7336C8.75943 4.6371 8.66668 4.57341 8.56324 4.57341H7.55359C7.45015 4.57341 7.35743 4.6371 7.32027 4.7336L7.12849 5.23182C6.86305 5.30598 6.60796 5.41173 6.36737 5.54738L5.87912 5.33057C5.78459 5.28857 5.67399 5.30913 5.60087 5.38226L4.8869 6.09623C4.81377 6.16938 4.79321 6.27998 4.83521 6.37448L5.05202 6.86263C4.91637 7.1032 4.81062 7.35829 4.7364 7.62385L4.23827 7.8156C4.14174 7.85273 4.07809 7.94548 4.07809 8.04891V9.0586C4.07809 9.16204 4.14177 9.25476 4.23827 9.29191L4.7363 9.48363C4.81052 9.74929 4.9163 10.0044 5.05196 10.245L4.83518 10.7331C4.79318 10.8276 4.81374 10.9382 4.88687 11.0113L5.60084 11.7253C5.67396 11.7984 5.78455 11.8189 5.87909 11.7769L6.36734 11.5601C6.60796 11.6958 6.86302 11.8015 7.12849 11.8757L7.32024 12.3739C7.35737 12.4704 7.45012 12.5341 7.55355 12.5341H8.56324C8.66668 12.5341 8.7594 12.4704 8.79655 12.3739L8.98824 11.8759C9.25387 11.8016 9.50905 11.6959 9.74965 11.5602L10.2377 11.7769C10.3322 11.8189 10.4428 11.7984 10.5159 11.7253L11.2299 11.0113C11.303 10.9381 11.3236 10.8275 11.2816 10.733L11.0648 10.2448C11.2004 10.0042 11.3062 9.74913 11.3803 9.4837L11.8786 9.29191ZM10.9274 9.23866C10.8551 9.54213 10.7353 9.83113 10.5712 10.0977C10.528 10.1679 10.5222 10.2549 10.5556 10.3302L10.755 10.7791L10.2838 11.2503L9.83509 11.051C9.75968 11.0175 9.67271 11.0234 9.60252 11.0666C9.33609 11.2307 9.04699 11.3505 8.7433 11.4228C8.66312 11.4419 8.59746 11.4992 8.56787 11.5762L8.39165 12.034H7.72527L7.54899 11.576C7.5194 11.4991 7.45374 11.4417 7.37355 11.4226C7.07009 11.3504 6.78105 11.2306 6.51455 11.0665C6.44437 11.0233 6.35737 11.0174 6.28199 11.0509L5.83309 11.2503L5.36187 10.7791L5.56115 10.3304C5.59462 10.255 5.58877 10.168 5.54552 10.0978C5.38146 9.83145 5.26162 9.54235 5.18934 9.23857C5.17024 9.15841 5.11287 9.09276 5.03593 9.06316L4.57812 8.88691V8.22057L5.03602 8.04429C5.11296 8.0147 5.17034 7.94904 5.18943 7.86885C5.26168 7.56523 5.38149 7.2762 5.54559 7.00982C5.58884 6.9396 5.59468 6.8526 5.56121 6.77726L5.36187 6.32841L5.83309 5.85723L6.28196 6.05657C6.3573 6.09004 6.44427 6.08423 6.51449 6.04098C6.78105 5.87688 7.07005 5.75707 7.37352 5.68485C7.45371 5.66579 7.51937 5.60841 7.54896 5.53148L7.72527 5.07348H8.39165L8.56793 5.53148C8.59752 5.60841 8.66318 5.66579 8.74337 5.68485C9.04687 5.7571 9.33587 5.87691 9.6024 6.04098C9.67262 6.0842 9.75959 6.09007 9.83493 6.05657L10.2838 5.85723L10.7551 6.32838L10.5558 6.7771C10.5223 6.85245 10.5281 6.93945 10.5714 7.00966C10.7355 7.2761 10.8553 7.56516 10.9276 7.86888C10.9467 7.94907 11.0041 8.01473 11.081 8.04432L11.5388 8.22057V8.88691L11.0808 9.06323C11.0039 9.09282 10.9465 9.15848 10.9274 9.23866ZM8.05843 6.23998C6.78262 6.23998 5.74468 7.27795 5.74468 8.55376C5.74468 9.82957 6.78262 10.8675 8.05843 10.8675C9.33424 10.8675 10.3722 9.82957 10.3722 8.55376C10.3722 7.27795 9.33424 6.23998 8.05843 6.23998ZM8.10143 8.6351C8.05399 8.58182 7.98605 8.55132 7.91468 8.55132H7.34293L7.98302 7.73173L7.95265 8.25345C7.94865 8.32213 7.97315 8.38948 8.02037 8.43954C8.06759 8.4896 8.13337 8.51798 8.20221 8.51798H8.76284L8.1044 9.33245L8.16299 8.83029C8.17127 8.75945 8.14887 8.68841 8.10143 8.6351ZM6.24468 8.55376C6.24468 7.55363 7.05834 6.73998 8.05843 6.73998C8.08443 6.73998 8.11021 6.74085 8.13596 6.74195C8.11602 6.75591 8.09771 6.7726 8.08215 6.79251L6.63346 8.64745C6.57465 8.72276 6.5639 8.82504 6.6058 8.91094C6.64771 8.99682 6.73493 9.05132 6.83049 9.05132H7.63384L7.50771 10.1321C7.50099 10.1898 7.51493 10.2459 7.54399 10.2928C6.79374 10.0704 6.24468 9.3752 6.24468 8.55376ZM8.05843 10.3675C8.00715 10.3675 7.95652 10.3649 7.9063 10.3607C7.9224 10.3485 7.9373 10.3345 7.9504 10.3183L9.4808 8.42516C9.54137 8.35026 9.55349 8.24723 9.51199 8.16026C9.47049 8.07335 9.38271 8.01798 9.2864 8.01798H8.46718L8.52874 6.96088C8.53249 6.89654 8.51084 6.83554 8.47187 6.78807C9.27334 6.97573 9.87218 7.69588 9.87218 8.55373C9.87221 9.55385 9.05855 10.3675 8.05843 10.3675Z" fill="#45A845"/>
  </g>
  <defs>
    <clipPath id="clip0_1984_21100">
      <rect width="16" height="16" fill="white" transform="translate(0 0.555664)"/>
    </clipPath>
  </defs>
</svg>