<svg xmlns="http://www.w3.org/2000/svg" width="16" height="16" viewBox="0 0 16 16" fill="none">
  <g clip-path="url(#clip0_2183_5912)">
    <path d="M8 10.9648C7.55269 10.9648 7.17773 11.3398 7.17773 11.7871C7.17773 12.2344 7.55269 12.6094 8 12.6094C8.43086 12.6094 8.82226 12.2344 8.80252 11.8068C8.82226 11.3365 8.4506 10.9648 8 10.9648Z" fill="#45A845"/>
    <path d="M15.6107 13.8789C16.127 12.9876 16.1303 11.9252 15.6172 11.0372L10.4666 2.11726C9.95679 1.21935 9.03585 0.686523 8.00309 0.686523C6.97033 0.686523 6.0494 1.22264 5.53959 2.11397L0.382367 11.0437C-0.130724 11.9416 -0.127435 13.0106 0.392235 13.9019C0.905326 14.7834 1.82297 15.3129 2.84915 15.3129H13.1373C14.1668 15.3129 15.091 14.7768 15.6107 13.8789ZM14.4924 13.2342C14.2062 13.7276 13.6997 14.0203 13.134 14.0203H2.84586C2.28673 14.0203 1.7835 13.7342 1.50393 13.2507C1.22107 12.7606 1.21779 12.1752 1.50064 11.6818L6.65787 2.75533C6.93744 2.26527 7.43737 1.97583 8.00309 1.97583C8.56552 1.97583 9.06874 2.26856 9.34831 2.75862L14.5022 11.6851C14.7785 12.1653 14.7752 12.7442 14.4924 13.2342Z" fill="#45A845"/>
    <path d="M7.79592 5.19216C7.40452 5.30399 7.16113 5.6592 7.16113 6.09007C7.18087 6.3499 7.19731 6.61303 7.21705 6.87286C7.27296 7.86287 7.32887 8.83314 7.38479 9.82314C7.40452 10.1586 7.66436 10.402 7.99984 10.402C8.33532 10.402 8.59845 10.1422 8.61489 9.8034C8.61489 9.59948 8.61489 9.41201 8.63463 9.2048C8.67081 8.57001 8.71027 7.93522 8.74645 7.30044C8.76619 6.88931 8.80237 6.47818 8.8221 6.06705C8.8221 5.91904 8.80237 5.78748 8.74645 5.65591C8.57871 5.28754 8.18732 5.10007 7.79592 5.19216Z" fill="#45A845"/>
  </g>
  <defs>
    <clipPath id="clip0_2183_5912">
      <rect width="16" height="16" fill="white"/>
    </clipPath>
  </defs>
</svg>