<svg xmlns="http://www.w3.org/2000/svg" width="33" height="33" viewBox="0 0 33 33" fill="none">
  <path d="M7.80099 16.8733C8.26182 17.0966 8.81481 16.9052 9.04167 16.4443C9.04876 16.416 10.3922 13.7042 12.4589 13.5128C14.1746 13.3426 15.8583 15.1008 16.9537 16.5897C18.8395 19.1384 20.7714 20.4322 22.7104 20.4322C22.8558 20.4322 22.994 20.4251 23.1252 20.411C26.2269 20.1167 27.9568 16.5897 28.0277 16.4408C28.2545 15.9764 28.056 15.427 27.5987 15.2072C27.1344 14.991 26.5885 15.1788 26.3651 15.6397C26.3545 15.6716 25.011 18.3833 22.9479 18.5712C21.2004 18.7307 19.5485 16.9867 18.4496 15.4908C16.429 12.7613 14.3518 11.4816 12.2781 11.6766C9.16929 11.9708 7.43942 15.4908 7.36852 15.6397C7.14875 16.104 7.3508 16.6535 7.80099 16.8733Z" fill="black"/>
  <path d="M29.1368 23.8772H5.46099V8.75502C5.46099 8.24457 5.04625 7.83691 4.53226 7.83691C4.01826 7.83691 3.60352 8.24811 3.60352 8.75502V24.9225C3.60352 25.3613 3.95918 25.7169 4.3979 25.7169H29.0933C29.5976 25.7169 30.0465 25.334 30.0649 24.83C30.0842 24.2996 29.6587 23.8772 29.1368 23.8772Z" fill="black"/>
</svg>