<svg xmlns="http://www.w3.org/2000/svg" width="16" height="17" viewBox="0 0 16 17" fill="none">
  <g clip-path="url(#clip0_2186_8443)">
    <path d="M13.779 7.18594C13.6988 7.00264 13.5176 6.88425 13.3175 6.88425H9.12947L11.1468 1.22896C11.2272 1.0034 11.1377 0.752303 10.9328 0.628402C10.7277 0.504434 10.4639 0.541927 10.3015 0.717968L2.31217 9.38155C2.17651 9.52863 2.14076 9.7421 2.22112 9.9254C2.30135 10.1087 2.48256 10.2271 2.68266 10.2271H5.40532C5.68369 10.2271 5.90925 10.0015 5.90925 9.72315C5.90925 9.44484 5.68369 9.21922 5.40532 9.21922H3.83284L9.36705 3.21802L7.93991 7.2188C7.88495 7.37313 7.91088 7.54461 8.00535 7.67852C8.09976 7.81243 8.25598 7.89205 8.41986 7.89205H12.1673L6.63385 13.8926L8.06119 9.89247C8.11629 9.73813 8.09291 9.56666 7.99843 9.43275C7.90396 9.29884 7.75043 9.21915 7.58655 9.21915H7.58158C7.34473 9.21915 7.14786 9.38256 7.09444 9.60274L4.85375 15.8822C4.77325 16.1077 4.86268 16.3588 5.06762 16.4827C5.14858 16.5317 5.23875 16.5555 5.32818 16.5555C5.46519 16.5555 5.60064 16.4997 5.69888 16.3932L13.6879 7.72965C13.8236 7.58264 13.8593 7.36924 13.779 7.18594Z" fill="#45A845"/>
  </g>
  <defs>
    <clipPath id="clip0_2186_8443">
      <rect width="16" height="16" fill="white" transform="translate(0 0.555664)"/>
    </clipPath>
  </defs>
</svg>