<svg xmlns="http://www.w3.org/2000/svg" width="16" height="17" viewBox="0 0 16 17" fill="none">
  <g clip-path="url(#clip0_1984_21088)">
    <path d="M15.7656 4.37835V12.7329C15.7656 14.7147 14.1591 16.3213 12.1773 16.3213H3.82269C1.84094 16.3213 0.234375 14.7148 0.234375 12.733V4.37835C0.234375 2.3966 1.84094 0.790039 3.82269 0.790039H12.1773C14.1591 0.790039 15.7656 2.3966 15.7656 4.37835Z" stroke="#45A845" stroke-width="0.46875" stroke-miterlimit="10" stroke-linecap="round" stroke-linejoin="round"/>
    <path d="M8.48366 5.56995H5.61863V2.05566C5.61863 1.82254 5.42988 1.63379 5.19675 1.63379C4.96363 1.63379 4.77488 1.82254 4.77488 2.05566V5.56995H1.90981C1.45122 5.56995 1.07812 5.94304 1.07812 6.40166V10.7096C1.07812 11.1683 1.45122 11.5414 1.90981 11.5414H4.77484V15.0557C4.77484 15.2888 4.96359 15.4775 5.19672 15.4775C5.42984 15.4775 5.61859 15.2888 5.61859 15.0557V11.5414H8.48363C8.94222 11.5414 9.31531 11.1683 9.31531 10.7097V6.40166C9.31534 5.94304 8.94222 5.56995 8.48366 5.56995ZM1.92188 6.4137H7.70084L1.92188 10.1935V6.4137ZM8.47159 10.6976H2.69259L8.47156 6.91779V10.6976H8.47159Z" stroke="#45A845" stroke-width="0.46875" stroke-miterlimit="10" stroke-linecap="round" stroke-linejoin="round"/>
    <path d="M11.7256 1.63379V5.37476" stroke="#45A845" stroke-width="0.46875" stroke-miterlimit="10" stroke-linecap="round" stroke-linejoin="round"/>
    <path d="M11.7256 15.4792V11.6201" stroke="#45A845" stroke-width="0.46875" stroke-miterlimit="10" stroke-linecap="round" stroke-linejoin="round"/>
    <path d="M11.7261 11.6201C12.1831 11.6201 12.5537 11.2496 12.5537 10.7925C12.5537 10.3354 12.1831 9.96484 11.7261 9.96484C11.269 9.96484 10.8984 10.3354 10.8984 10.7925C10.8984 11.2496 11.269 11.6201 11.7261 11.6201Z" stroke="#45A845" stroke-width="0.46875" stroke-miterlimit="10" stroke-linecap="round" stroke-linejoin="round"/>
    <path d="M11.7261 7.03025C12.1831 7.03025 12.5537 6.65971 12.5537 6.20262C12.5537 5.74554 12.1831 5.375 11.7261 5.375C11.269 5.375 10.8984 5.74554 10.8984 6.20262C10.8984 6.65971 11.269 7.03025 11.7261 7.03025Z" stroke="#45A845" stroke-width="0.46875" stroke-miterlimit="10" stroke-linecap="round" stroke-linejoin="round"/>
    <path d="M12.4487 6.60645L14.2409 9.31082C14.3696 9.50488 14.3165 9.76676 14.1221 9.89551C14.0506 9.94301 13.9696 9.96582 13.8896 9.96582C13.7528 9.96582 13.6187 9.89926 13.5375 9.77676L11.7178 7.0302" stroke="#45A845" stroke-width="0.46875" stroke-miterlimit="10" stroke-linecap="round" stroke-linejoin="round"/>
  </g>
  <defs>
    <clipPath id="clip0_1984_21088">
      <rect width="16" height="16" fill="white" transform="translate(0 0.555664)"/>
    </clipPath>
  </defs>
</svg>