<svg xmlns="http://www.w3.org/2000/svg" width="16" height="17" viewBox="0 0 16 17" fill="none">
  <path d="M0.492553 6.29322C0.337311 6.08183 0.38282 5.78463 0.594201 5.62939C0.594271 5.62933 0.59434 5.62928 0.59441 5.62923C1.33494 5.06034 2.1584 4.60848 3.03603 4.28945C3.69163 4.05552 4.39081 3.96934 5.0836 4.03706C6.30623 4.16725 7.2843 4.79752 8.22969 5.40709C9.97465 6.53169 11.6228 7.59389 14.8772 5.60681C15.1026 5.47264 15.3942 5.54665 15.5283 5.77211C15.6604 5.99397 15.591 6.28066 15.3722 6.41767C13.868 7.33595 12.6342 7.67437 11.5788 7.67437C9.99394 7.67437 8.81077 6.91183 7.71502 6.20561C5.91497 5.04573 4.36034 4.04384 1.15567 6.39525C0.944314 6.54992 0.647634 6.50427 0.492553 6.29322ZM14.8779 8.31819C11.6235 10.3051 9.97621 9.2429 8.23039 8.11847C7.2843 7.50872 6.30623 6.87846 5.08429 6.74844C4.39151 6.68064 3.6923 6.76682 3.03672 7.00083C2.15882 7.31974 1.33511 7.7716 0.59441 8.34061C0.382929 8.49579 0.337287 8.79303 0.492466 9.00451C0.647645 9.21599 0.944881 9.26163 1.15636 9.10645C4.36104 6.75505 5.91566 7.75693 7.71572 8.91699C8.81077 9.62304 9.99464 10.3858 11.5797 10.3856C12.6351 10.3856 13.8687 10.0473 15.3729 9.12888C15.5968 8.99218 15.6674 8.69988 15.5307 8.47602C15.394 8.25215 15.1017 8.18149 14.8779 8.31819ZM14.8779 11.0297C11.6235 13.0167 9.97621 11.9546 8.23039 10.83C7.2843 10.2204 6.30623 9.59001 5.08429 9.46C4.39151 9.39228 3.69232 9.47846 3.03672 9.71238C2.15887 10.0312 1.33517 10.483 0.59441 11.0518C0.382929 11.207 0.337287 11.5042 0.492466 11.7157C0.647645 11.9272 0.944881 11.9728 1.15636 11.8177C4.36104 9.46643 5.91566 10.4681 7.71572 11.6282C8.81077 12.3342 9.99464 13.097 11.5795 13.097C12.6349 13.097 13.8687 12.7585 15.3729 11.8403C15.5953 11.701 15.6627 11.4079 15.5234 11.1855C15.3864 10.9667 15.0997 10.8974 14.8779 11.0294V11.0297Z" fill="#45A845"/>
</svg>