<svg xmlns="http://www.w3.org/2000/svg" width="33" height="33" viewBox="0 0 33 33" fill="none">
  <g clip-path="url(#clip0_2186_8548)">
    <path d="M31.799 16.5549C31.8098 19.8933 30.727 23.1433 28.7163 25.8082L27.4683 23.8936V23.8882C30.6002 19.1349 30.3689 12.9175 26.8927 8.40986C23.4164 3.90226 17.4618 2.09871 12.0687 3.91988C6.67548 5.74105 3.03327 10.7852 3.00129 16.4775C2.96931 22.1698 6.5546 27.2546 11.927 29.1362L11.1803 30.2829C11.0263 30.5172 10.9672 30.8013 11.015 31.0776C3.64927 28.3809 -0.531573 20.5975 1.28714 12.9675C3.10586 5.33741 10.3482 0.276873 18.1384 1.1928C25.9285 2.10873 31.7996 8.71107 31.799 16.5549Z" fill="#9E9E9E"/>
    <path d="M29.6648 16.5562C29.6682 19.1633 28.904 21.7138 27.4674 23.8895L22.3528 16.0068C22.1419 15.6849 21.7829 15.491 21.3981 15.491C21.0133 15.491 20.6543 15.6849 20.4434 16.0068L11.9261 29.1375C5.52089 26.8953 1.82169 20.1998 3.33289 13.5839C4.84408 6.96792 11.0835 2.54256 17.827 3.30376C24.5705 4.06496 29.6664 9.76984 29.6648 16.5562Z" fill="#F5F5F5"/>
    <path d="M18.8441 16.0055L10.666 28.613C11.0769 28.8091 11.4978 28.9837 11.9268 29.1362L20.4441 16.0055C20.4889 15.9396 20.5408 15.8788 20.5988 15.8242C20.3566 15.5827 20.0186 15.4631 19.6784 15.4982C19.3382 15.5334 19.0319 15.7196 18.8441 16.0055Z" fill="#CFD8DC"/>
    <path d="M16.3322 3.22168C16.0656 3.22168 15.7989 3.23181 15.5322 3.24781C20.0172 3.51251 24.0666 6.02053 26.3015 9.918C28.5365 13.8155 28.656 18.5771 26.6192 22.5817L27.4682 23.8883C30.1654 19.7928 30.3967 14.5473 28.0705 10.2303C25.7443 5.91321 21.2361 3.22151 16.3322 3.22168Z" fill="#CFD8DC"/>
    <path d="M9.39968 10.1562H11.533V13.3563H9.39968C8.81057 13.3563 8.33301 12.8787 8.33301 12.2896V11.2229C8.33301 10.6338 8.81057 10.1562 9.39968 10.1562Z" fill="#00BCD4"/>
    <path d="M11.5332 10.1562H14.7332V13.3563H11.5332V10.1562Z" fill="#00BCD4"/>
    <path d="M14.7324 10.1562H17.9324V13.3563H14.7324V10.1562Z" fill="#00BCD4"/>
    <path d="M17.9326 10.1562H21.1326V13.3563H17.9326V10.1562Z" fill="#00BCD4"/>
    <path d="M21.1318 10.1562H23.2652C23.8543 10.1562 24.3318 10.6338 24.3318 11.2229V12.2896C24.3318 12.8787 23.8543 13.3563 23.2652 13.3563H21.1318V10.1562Z" fill="#00BCD4"/>
    <path d="M9.93216 19.2217H8.33216C8.03761 19.2217 7.79883 19.4605 7.79883 19.755V22.955C7.79883 23.2496 8.03761 23.4883 8.33216 23.4883H9.93216C10.2267 23.4883 10.4655 23.2496 10.4655 22.955V19.755C10.4655 19.4605 10.2267 19.2217 9.93216 19.2217Z" fill="#37474F"/>
    <path d="M15.2653 19.755C15.2653 19.4605 15.0265 19.2217 14.732 19.2217H13.132C12.8374 19.2217 12.5986 19.4605 12.5986 19.755V22.955C12.5986 23.2496 12.8374 23.4883 13.132 23.4883H14.732C15.0265 23.4883 15.2653 23.2496 15.2653 22.955V20.0697" fill="#37474F"/>
    <path d="M30.6632 32.0221H12.1352C11.5802 32.0265 11.1048 31.6258 11.0152 31.0781C10.9674 30.8018 11.0265 30.5177 11.1805 30.2834L11.9272 29.1367L20.4445 16.0061C20.6554 15.6842 21.0143 15.4902 21.3992 15.4902C21.784 15.4902 22.1429 15.6842 22.3538 16.0061L27.4685 23.8887V23.8941L28.7165 25.8087L31.6178 30.2834C31.8415 30.6315 31.8568 31.074 31.6577 31.4367C31.4585 31.7994 31.0769 32.024 30.6632 32.0221Z" fill="#FFDC00"/>
    <path d="M31.6173 30.2828L28.716 25.8082L27.468 23.8935V23.8882L22.3533 16.0055C22.1655 15.7196 21.8592 15.5334 21.519 15.4982C21.1788 15.4631 20.8409 15.5827 20.5986 15.8242C20.6567 15.8788 20.7085 15.9396 20.7533 16.0055L25.868 23.8882V23.8935L27.116 25.8082L30.0173 30.2828C30.241 30.6309 30.2563 31.0735 30.0572 31.4361C29.858 31.7988 29.4764 32.0234 29.0626 32.0215H30.6626C31.0764 32.0234 31.458 31.7988 31.6572 31.4361C31.8563 31.0735 31.841 30.6309 31.6173 30.2828Z" fill="#FEC108"/>
    <path d="M18.9993 30.4215L20.066 26.1549L17.9326 25.0882L22.7326 19.7549L21.666 24.0215L23.7993 25.0882L18.9993 30.4215Z" fill="#F5F5F5"/>
    <path d="M8.69986 30.624C8.95877 30.7646 9.28267 30.6687 9.42332 30.4098C9.56397 30.1509 9.4681 29.827 9.20919 29.6864C1.97272 25.7593 -0.719968 16.716 3.18966 9.4701C7.09928 2.22417 16.136 -0.490334 23.3913 3.40179C30.6467 7.29391 33.383 16.3241 29.5084 23.5888C29.4185 23.7568 29.425 23.9601 29.5256 24.122C29.6262 24.2839 29.8055 24.3799 29.996 24.3738C30.1865 24.3676 30.3593 24.2603 30.4492 24.0922C34.6011 16.3089 31.67 6.63347 23.8967 2.46281C16.1233 -1.70785 6.44089 1.19997 2.25153 8.96325C-1.93782 16.7265 0.94668 26.4159 8.69986 30.624Z" fill="black"/>
    <path d="M28.4119 22.2346C28.5423 22.2897 28.6893 22.2907 28.8205 22.2374C28.9516 22.1841 29.0562 22.0808 29.1111 21.9503C32.022 15.0592 28.9435 7.1012 22.1528 3.96299C15.3622 0.824776 7.30633 3.63714 3.94421 10.3198C0.582095 17.0024 3.12523 25.1472 9.69245 28.7295C9.85984 28.8207 10.0632 28.8157 10.2258 28.7163C10.3885 28.6169 10.4857 28.4383 10.481 28.2477C10.4763 28.0572 10.3702 27.8836 10.2028 27.7925C4.15243 24.4839 1.81373 16.9748 4.91549 10.8158C8.01725 4.65687 15.4429 2.06523 21.7033 4.95665C27.9638 7.84808 30.8054 15.1817 28.1277 21.5365C28.0136 21.8078 28.1408 22.1202 28.4119 22.2346Z" fill="black"/>
    <path d="M23.2645 13.8887C24.1482 13.8887 24.8645 13.1724 24.8645 12.2887V11.2221C24.8645 10.3384 24.1482 9.62207 23.2645 9.62207H9.39785C8.5142 9.62207 7.79785 10.3384 7.79785 11.2221V12.2887C7.79785 13.1724 8.5142 13.8887 9.39785 13.8887H23.2645ZM23.7979 11.2221V12.2887C23.7979 12.5833 23.5591 12.8221 23.2645 12.8221H21.6645V10.6887H23.2645C23.5591 10.6887 23.7979 10.9275 23.7979 11.2221ZM8.86452 12.2887V11.2221C8.86452 10.9275 9.1033 10.6887 9.39785 10.6887H10.9979V12.8221H9.39785C9.1033 12.8221 8.86452 12.5833 8.86452 12.2887ZM12.0645 10.6887H14.1979V12.8221H12.0645V10.6887ZM15.2645 10.6887H17.3979V12.8221H15.2645V10.6887ZM18.4645 10.6887H20.5979V12.8221H18.4645V10.6887Z" fill="black"/>
    <path d="M25.2482 17.0882H26.9975C27.2921 17.0882 27.5308 16.8494 27.5308 16.5548C27.5308 16.2603 27.2921 16.0215 26.9975 16.0215H25.2482C24.9536 16.0215 24.7148 16.2603 24.7148 16.5548C24.7148 16.8494 24.9536 17.0882 25.2482 17.0882Z" fill="black"/>
    <path d="M18.0802 16.5548C18.0802 16.2603 17.8414 16.0215 17.5469 16.0215H5.66419C5.36964 16.0215 5.13086 16.2603 5.13086 16.5548C5.13086 16.8494 5.36964 17.0882 5.66419 17.0882H17.5469C17.8414 17.0882 18.0802 16.8494 18.0802 16.5548Z" fill="black"/>
    <path d="M8.33229 18.6885C7.74319 18.6885 7.26562 19.166 7.26562 19.7551V22.9551C7.26562 23.5442 7.74319 24.0218 8.33229 24.0218H9.93229C10.5214 24.0218 10.999 23.5442 10.999 22.9551V19.7551C10.999 19.166 10.5214 18.6885 9.93229 18.6885H8.33229ZM8.33229 22.9551V19.7551H9.93229V22.9551H8.33229Z" fill="black"/>
    <path d="M15.2645 20.6031C15.559 20.6031 15.7978 20.3644 15.7978 20.0698V19.7551C15.7978 19.166 15.3202 18.6885 14.7311 18.6885H13.1311C12.542 18.6885 12.0645 19.166 12.0645 19.7551V23.4885C12.0645 23.783 12.3032 24.0218 12.5978 24.0218C12.8923 24.0218 13.1311 23.783 13.1311 23.4885V19.7551H14.7311V20.0698C14.7311 20.3644 14.9699 20.6031 15.2645 20.6031Z" fill="black"/>
    <path d="M22.7996 15.7137C22.4912 15.2399 21.9642 14.9541 21.3988 14.9541C20.8335 14.9541 20.3065 15.2399 19.998 15.7137L10.7346 29.991C10.3991 30.4989 10.3736 31.1512 10.6684 31.6838C10.9605 32.2211 11.5235 32.5552 12.1351 32.5542H30.662C31.2738 32.555 31.8369 32.2207 32.1292 31.6833C32.4241 31.1509 32.3987 30.4987 32.0631 29.991L22.7996 15.7137ZM31.1916 31.1739C31.0874 31.3691 30.8833 31.49 30.662 31.4875H12.1351C11.9142 31.4899 11.7103 31.3692 11.606 31.1745C11.4997 30.9852 11.5087 30.7522 11.6295 30.5718L20.893 16.2945C21.0044 16.123 21.1951 16.0195 21.3996 16.0195C21.6042 16.0195 21.7949 16.123 21.9063 16.2945L31.1698 30.5718C31.2901 30.7523 31.2985 30.9852 31.1916 31.1739Z" fill="black"/>
    <path d="M24.036 24.6108L22.2856 23.7356L23.2456 19.8844C23.305 19.6468 23.195 19.3993 22.9788 19.2843C22.7627 19.1692 22.4959 19.2161 22.332 19.398L17.532 24.7313C17.4206 24.8554 17.3737 25.0244 17.4051 25.1881C17.4365 25.3518 17.5426 25.4914 17.692 25.5655L19.4424 26.4407L18.4824 30.2919C18.423 30.5294 18.533 30.7769 18.7491 30.892C18.9653 31.0071 19.232 30.9602 19.396 30.7783L24.196 25.4449C24.3073 25.3209 24.3543 25.1519 24.3229 24.9882C24.2915 24.8245 24.1853 24.6848 24.036 24.6108ZM20.036 28.4716L20.5832 26.2849C20.6441 26.0422 20.5281 25.7898 20.3042 25.678L18.7976 24.9249L21.6957 21.7052L21.1485 23.8919C21.0876 24.1346 21.2036 24.387 21.4274 24.4988L22.9341 25.2519L20.036 28.4716Z" fill="black"/>
  </g>
  <defs>
    <clipPath id="clip0_2186_8548">
      <rect width="32" height="32" fill="white" transform="translate(0.333008 0.555664)"/>
    </clipPath>
  </defs>
</svg>