<svg xmlns="http://www.w3.org/2000/svg" width="32" height="33" viewBox="0 0 32 33" fill="none">
  <g clip-path="url(#clip0_2186_8512)">
    <path d="M4.24882 13.5739C3.6567 13.5739 3.17676 13.0939 3.17676 12.5018V9.24784C3.17676 8.65578 3.65676 8.17578 4.24882 8.17578C4.84088 8.17578 5.32088 8.65578 5.32088 9.24784L5.83801 10.8748L5.32088 12.5018C5.32095 13.0939 4.84095 13.5739 4.24882 13.5739Z" fill="#838383"/>
    <path d="M5.32041 9.24784L5.83778 10.8748L5.32041 12.5019C5.32041 13.0936 4.84072 13.5739 4.24841 13.5739C4.04753 13.5739 3.85953 13.5185 3.69922 13.4226C4.01278 13.2358 4.22266 12.8933 4.22266 12.5018V9.24778C4.22266 8.95159 4.10291 8.68378 3.90847 8.48997C3.84603 8.42753 3.77584 8.37216 3.69922 8.32709C3.85953 8.23116 4.04753 8.17578 4.24841 8.17578C4.54459 8.17578 4.81241 8.29553 5.00684 8.48997C5.20059 8.68384 5.32041 8.95166 5.32041 9.24784Z" fill="#696969"/>
    <path d="M4.24882 27.3649C3.6567 27.3649 3.17676 26.8849 3.17676 26.2929V23.0389C3.17676 22.4468 3.65676 21.9668 4.24882 21.9668C4.84088 21.9668 5.32088 22.4468 5.32088 23.0389L5.83801 24.6659L5.32088 26.2929C5.32095 26.885 4.84095 27.3649 4.24882 27.3649Z" fill="#838383"/>
    <path d="M5.32041 23.0389L5.83778 24.6658L5.32041 26.2929C5.32041 26.8846 4.84072 27.3649 4.24841 27.3649C4.04753 27.3649 3.85953 27.3095 3.69922 27.2136C4.01278 27.0269 4.22266 26.6844 4.22266 26.2929V23.0388C4.22266 22.7426 4.10291 22.4748 3.90847 22.281C3.84603 22.2185 3.77584 22.1632 3.69922 22.1181C3.85953 22.0222 4.04753 21.9668 4.24841 21.9668C4.54459 21.9668 4.81241 22.0865 5.00684 22.281C5.20059 22.4748 5.32041 22.7427 5.32041 23.0389Z" fill="#696969"/>
    <path d="M21.2555 4.4191H19.043V1.1371C19.043 0.815977 19.3033 0.555664 19.6244 0.555664H20.6741C20.9952 0.555664 21.2555 0.815977 21.2555 1.1371V4.4191Z" fill="#838383"/>
    <path d="M25.8112 4.4191H23.5986V1.1371C23.5986 0.815977 23.8589 0.555664 24.1801 0.555664H25.2298C25.5509 0.555664 25.8112 0.815977 25.8112 1.1371V4.4191Z" fill="#838383"/>
    <path d="M21.2586 1.1371V4.41885H20.1602V1.1371C20.1602 0.826102 19.9162 0.571789 19.6084 0.556352C19.6142 0.555664 19.6206 0.555664 19.6271 0.555664H20.6772C20.9978 0.555664 21.2586 0.815789 21.2586 1.1371Z" fill="#696969"/>
    <path d="M25.8136 1.1371V4.41885H24.7152V1.1371C24.7152 0.826102 24.4712 0.571789 24.1641 0.556352C24.1698 0.555664 24.1762 0.555664 24.1821 0.555664H25.2322C25.5529 0.555664 25.8136 0.815789 25.8136 1.1371Z" fill="#696969"/>
    <path d="M26.0194 32.5559H6.84808C6.00539 32.5559 5.32227 31.8728 5.32227 31.0301V5.3012C5.32227 4.45852 6.00539 3.77539 6.84808 3.77539H26.0194C26.8621 3.77539 27.5452 4.45852 27.5452 5.3012V31.0301C27.5452 31.8728 26.8621 32.5559 26.0194 32.5559Z" fill="#E5E1E5"/>
    <path d="M26.0174 3.77539H24.1274C24.8141 3.9242 25.3286 4.53502 25.3286 5.2662V30.9951C25.3286 31.8378 24.6455 32.5208 23.8028 32.5208H6.52148C6.62611 32.5435 6.73461 32.5558 6.84605 32.5558H26.0174C26.86 32.5558 27.5432 31.8726 27.5432 31.03V5.30114C27.5432 4.45852 26.86 3.77539 26.0174 3.77539Z" fill="#D7D0D6"/>
    <path d="M9.10547 12.3131V8.52763C9.10547 7.99301 9.53891 7.55957 10.0735 7.55957H20.858C21.3926 7.55957 22.8068 7.99301 22.8068 8.52763V12.3131C22.8068 12.8478 21.3926 13.2812 20.858 13.2812H19.619L16.7157 12.4274L13.5449 13.2812H10.0735C9.53884 13.2812 9.10547 12.8478 9.10547 12.3131Z" fill="#0ED2B3"/>
    <path d="M22.7926 7.55957H20.8584C21.393 7.55957 21.8265 7.99301 21.8265 8.52763V12.3131C21.8265 12.8478 21.393 13.2812 20.8584 13.2812H22.7926C23.3272 13.2812 23.7606 12.8478 23.7606 12.3131V8.52763C23.7606 7.99295 23.3272 7.55957 22.7926 7.55957Z" fill="#0AB69F"/>
    <path d="M18.8079 12.6107L18.3252 13.2816L17.0887 13.2816L16.714 12.8447L15.9342 13.2816L13.543 13.2816V12.6107C13.543 11.1552 14.5674 9.93962 15.9342 9.64355L16.6506 9.65418C16.6506 9.65418 17.878 9.9143 18.4272 10.4635C18.9771 11.0127 18.8079 11.7724 18.8079 12.6107Z" fill="#6C7FD8"/>
    <path d="M16.5807 9.57324C16.3589 9.57324 16.1429 9.59768 15.9346 9.64281C17.3014 9.93906 18.3255 11.1548 18.3255 12.6103V13.2809H19.6177V12.6103C19.6178 10.933 18.258 9.57324 16.5807 9.57324Z" fill="#4F66D0"/>
    <path d="M19.906 25.7144H11.9621C11.3062 25.7144 10.9042 24.9955 11.2475 24.4366L15.4761 17.554C15.8035 17.0211 16.578 17.0211 16.9054 17.554L21.3548 24.4366C21.6982 24.9955 20.5619 25.7144 19.906 25.7144Z" fill="#FFD15B"/>
    <path d="M21.9151 24.4367L17.2971 16.9202C16.9698 16.3873 16.1953 16.3873 15.8679 16.9202L15.4785 17.554C15.8487 17.361 16.3391 17.462 16.5825 17.8582L20.623 24.4367C20.9663 24.9955 20.5642 25.7144 19.9083 25.7144H21.2005C21.8564 25.7145 22.2585 24.9955 21.9151 24.4367Z" fill="#FFC344"/>
    <path d="M25.8118 31.3069H7.05221C6.78552 31.3069 6.56934 31.0907 6.56934 30.824V5.50729C6.56934 5.24054 6.78552 5.02441 7.05221 5.02441H25.8118C26.0785 5.02441 26.2947 5.2406 26.2947 5.50729V21.9174C26.2947 22.1841 26.0785 22.4002 25.8118 22.4002C25.5452 22.4002 25.329 22.184 25.329 21.9174V5.99023H7.53515V30.3411H25.329V26.4483C25.329 26.1815 25.5452 25.9654 25.8118 25.9654C26.0785 25.9654 26.2947 26.1816 26.2947 26.4483V30.824C26.2947 31.0907 26.0785 31.3069 25.8118 31.3069Z" fill="#696969"/>
    <path d="M16.6478 24.4377C16.5899 24.4377 16.5311 24.4273 16.4739 24.4051C16.2251 24.3091 16.1013 24.0295 16.1974 23.7807L16.7808 22.2706H15.6811C15.5219 22.2706 15.3729 22.1921 15.2829 22.0608C15.1928 21.9295 15.1733 21.7623 15.2307 21.6138L16.0678 19.4468C16.1639 19.198 16.4434 19.0741 16.6922 19.1703C16.9409 19.2664 17.0648 19.546 16.9686 19.7948L16.3853 21.3048H17.4849C17.6442 21.3048 17.7932 21.3833 17.8832 21.5146C17.9733 21.646 17.9928 21.8132 17.9354 21.9617L17.0983 24.1286C17.0243 24.3203 16.8415 24.4377 16.6478 24.4377Z" fill="#FD4755"/>
    <path d="M17.7952 12.0497L17.0914 13.2821H15.9795L16.9453 11.592C17.0715 11.357 17.3645 11.2694 17.5995 11.3956C17.8338 11.5224 17.9221 11.8153 17.7952 12.0497Z" fill="#FD4755"/>
    <path d="M17.5648 28.6367H15.5971C15.3304 28.6367 15.1143 28.4205 15.1143 28.1538C15.1143 27.887 15.3304 27.6709 15.5971 27.6709H17.5648C17.8315 27.6709 18.0477 27.8871 18.0477 28.1538C18.0478 28.4205 17.8315 28.6367 17.5648 28.6367Z" fill="#D7D0D6"/>
    <path d="M28.8238 22.6594V25.7055C28.8238 26.1156 28.4916 26.4479 28.0815 26.4479H25.0353C24.6252 26.4479 24.293 26.1156 24.293 25.7055V24.665L24.7095 24.1824L24.293 23.6992V22.6594C24.293 22.2492 24.6252 21.917 25.0353 21.917H28.0815C28.4916 21.917 28.8238 22.2492 28.8238 22.6594Z" fill="#838383"/>
    <path d="M28.0816 21.918H26.1475C26.5573 21.918 26.8895 22.2502 26.8895 22.66V25.7064C26.8895 26.1162 26.5573 26.4484 26.1475 26.4484H28.0816C28.4915 26.4484 28.8236 26.1162 28.8236 25.7064V22.66C28.8236 22.2502 28.4915 21.918 28.0816 21.918Z" fill="#696969"/>
    <path d="M26.2947 24.1822C26.2947 24.4493 26.0784 24.665 25.8118 24.665H24.293V23.6992H25.8118C26.0784 23.6993 26.2947 23.9156 26.2947 24.1822Z" fill="#D7D0D6"/>
  </g>
  <defs>
    <clipPath id="clip0_2186_8512">
      <rect width="32" height="32" fill="white" transform="translate(0 0.555664)"/>
    </clipPath>
  </defs>
</svg>