<svg xmlns="http://www.w3.org/2000/svg" width="33" height="33" viewBox="0 0 33 33" fill="none">
  <g clip-path="url(#clip0_2186_8646)">
    <path d="M4.7468 0.555664H27.9192C30.357 0.555664 32.333 2.53169 32.333 4.96946V30.3488C32.333 31.5675 31.3449 32.5557 30.1261 32.5557H2.5399C1.32115 32.5557 0.333008 31.5675 0.333008 30.3488V4.96946C0.333008 2.53169 2.30903 0.555664 4.7468 0.555664Z" fill="#6680AB"/>
    <path d="M30.1262 21.5213V6.07304C21.4606 1.65925 11.2057 1.65925 2.54004 6.07304V21.5213H30.1262Z" fill="#2F5591"/>
    <path d="M27.9195 19.3145V7.72828C20.6331 4.05021 12.0334 4.05021 4.74707 7.72828V19.3145H27.9195Z" fill="#D5E8FF"/>
    <path d="M19.8901 23.2351C19.6175 23.0988 19.2859 23.2095 19.1498 23.4824L16.3333 29.116L13.5195 23.4824C13.3834 23.2095 13.0518 23.0988 12.7792 23.2351C12.5063 23.3714 12.3958 23.7028 12.5319 23.9754L15.8422 30.5961C15.8592 30.626 15.8788 30.654 15.9007 30.6801C15.9079 30.692 15.916 30.7033 15.9244 30.7144C15.9675 30.7623 16.0187 30.8022 16.0758 30.8323C16.0812 30.835 16.0838 30.8407 16.0895 30.8434C16.0949 30.8461 16.1054 30.8434 16.1137 30.8488C16.1824 30.8816 16.2573 30.8994 16.3333 30.9013C16.4098 30.8997 16.485 30.8822 16.5539 30.8493C16.5623 30.8461 16.5706 30.8493 16.5782 30.8439C16.586 30.8385 16.5865 30.8356 16.5922 30.8329C16.649 30.8027 16.7002 30.7628 16.7433 30.7149C16.7525 30.7044 16.7581 30.6923 16.767 30.6812C16.7889 30.6548 16.8085 30.6265 16.8255 30.5969L20.1358 23.9762C20.2727 23.7036 20.1628 23.3719 19.8901 23.2351Z" fill="#2F5591"/>
    <path d="M23.5056 30.9012C22.5916 30.9012 21.8505 30.1601 21.8505 29.246C21.8505 28.9413 21.6034 28.6943 21.2987 28.6943C20.994 28.6943 20.747 28.9413 20.747 29.246C20.747 29.5507 20.5 29.7977 20.1953 29.7977C19.8906 29.7977 19.6436 29.5507 19.6436 29.246C19.6436 28.3319 20.3847 27.5908 21.2987 27.5908C22.2128 27.5908 22.9539 28.3319 22.9539 29.246C22.9539 29.5507 23.2009 29.7977 23.5056 29.7977C23.8103 29.7977 24.0573 29.5507 24.0573 29.246C24.0573 28.9413 24.3044 28.6943 24.6091 28.6943C24.9138 28.6943 25.1608 28.9413 25.1608 29.246C25.1608 30.1601 24.4197 30.9012 23.5056 30.9012Z" fill="#D5E8FF"/>
    <path d="M12.4714 28.6943H8.05758C7.7529 28.6943 7.50586 28.4472 7.50586 28.1425C7.50586 27.8379 7.7529 27.5908 8.05758 27.5908H12.4714C12.7761 27.5908 13.0231 27.8379 13.0231 28.1425C13.0231 28.4472 12.7761 28.6943 12.4714 28.6943Z" fill="#D5E8FF"/>
    <path d="M8.06321 30.9003C7.75853 30.9019 7.51041 30.656 7.50879 30.3513C7.50745 30.0466 7.75314 29.7985 8.05782 29.7969H8.06321C8.36817 29.7969 8.61494 30.0439 8.61494 30.3486C8.61494 30.6533 8.36817 30.9003 8.06321 30.9003Z" fill="#D5E8FF"/>
    <path d="M10.2702 30.9003C9.96556 30.9019 9.71744 30.656 9.71583 30.3513C9.71448 30.0466 9.96017 29.7985 10.2649 29.7969H10.2702C10.5752 29.7969 10.822 30.0439 10.822 30.3486C10.822 30.6533 10.5752 30.9003 10.2702 30.9003Z" fill="#D5E8FF"/>
    <path d="M12.4763 30.9003C12.1716 30.9019 11.9235 30.656 11.9219 30.3513C11.9205 30.0466 12.1662 29.7985 12.4709 29.7969H12.4763C12.7813 29.7969 13.028 30.0439 13.028 30.3486C13.028 30.6533 12.7813 30.9003 12.4763 30.9003Z" fill="#D5E8FF"/>
    <path d="M29.575 25.3837C29.575 26.2978 28.8339 27.0389 27.9198 27.0389C27.0058 27.0389 26.2646 26.2978 26.2646 25.3837C26.2646 24.4696 27.0058 23.7285 27.9198 23.7285C28.8339 23.7285 29.575 24.4696 29.575 25.3837Z" fill="#FFC800"/>
    <path d="M5.85038 25.3837C5.85038 26.2978 5.10927 27.0389 4.19521 27.0389C3.28115 27.0389 2.54004 26.2978 2.54004 25.3837C2.54004 24.4696 3.28115 23.7285 4.19521 23.7285C5.10927 23.7285 5.85038 24.4696 5.85038 25.3837Z" fill="#FFC800"/>
    <path d="M19.0917 17.1076C18.8686 17.1076 18.6674 16.9731 18.582 16.7671C18.4966 16.561 18.544 16.3236 18.7016 16.1658L21.7555 13.1119C21.9718 12.9028 22.3161 12.9058 22.5289 13.1186C22.7418 13.3314 22.7447 13.6757 22.5357 13.8921L19.4818 16.9459C19.3783 17.0494 19.238 17.1076 19.0917 17.1076Z" fill="#FFC800"/>
    <path d="M16.333 9.93534C16.0283 9.93534 15.7812 9.68831 15.7812 9.38362V7.17672C15.7812 6.87204 16.0283 6.625 16.333 6.625C16.6377 6.625 16.8847 6.87204 16.8847 7.17672V9.38362C16.8847 9.68831 16.6377 9.93534 16.333 9.93534Z" fill="#0569F5"/>
    <path d="M22.9261 14.8343C22.7795 14.8343 22.6394 14.7761 22.536 14.6726L20.9751 13.1117C20.8172 12.9541 20.7701 12.7168 20.8555 12.5107C20.9409 12.3046 21.1421 12.1702 21.3652 12.1699H22.9261C23.2308 12.1699 23.4778 12.417 23.4778 12.7216V14.2825C23.4778 14.5872 23.2308 14.8343 22.9261 14.8343Z" fill="#E50000"/>
    <path d="M24.6093 11.5907C24.3862 11.5907 24.185 11.4563 24.0996 11.2502C24.0142 11.0441 24.0616 10.8068 24.2192 10.6489L25.3226 9.54548C25.5392 9.33643 25.8833 9.33939 26.0961 9.55222C26.3089 9.76504 26.3119 10.1091 26.1028 10.3257L24.9994 11.4291C24.8959 11.5326 24.7556 11.5907 24.6093 11.5907Z" fill="#0569F5"/>
    <path d="M8.05757 11.5907C7.91129 11.5907 7.77093 11.5326 7.66748 11.4291L6.56404 10.3257C6.35498 10.1091 6.35795 9.76504 6.57077 9.55222C6.78359 9.33939 7.12761 9.33643 7.34421 9.54548L8.44766 10.6489C8.60525 10.8068 8.65267 11.0441 8.56727 11.2502C8.48187 11.4563 8.28063 11.5907 8.05757 11.5907Z" fill="#0569F5"/>
    <path d="M11.3681 8.28021C11.0634 8.28021 10.8164 8.03317 10.8164 7.72848C10.8164 7.42379 11.0634 7.17676 11.3681 7.17676C11.6728 7.17676 11.9199 7.42379 11.9199 7.72848C11.9174 8.03209 11.6717 8.27778 11.3681 8.28021Z" fill="#0569F5"/>
    <path d="M9.16081 9.38343C8.93613 9.38451 8.73274 9.24981 8.64626 9.04237C8.55978 8.83494 8.60693 8.59571 8.76587 8.43677C8.92482 8.27783 9.16404 8.23068 9.37148 8.31716C9.57891 8.40363 9.71361 8.60703 9.71253 8.83171C9.71011 9.13532 9.46442 9.38101 9.16081 9.38343Z" fill="#0569F5"/>
    <path d="M21.2988 8.28021C20.9941 8.28021 20.7471 8.03317 20.7471 7.72848C20.7471 7.42379 20.9941 7.17676 21.2988 7.17676C21.6035 7.17676 21.8505 7.42379 21.8505 7.72848C21.8481 8.03209 21.6024 8.27778 21.2988 8.28021Z" fill="#0569F5"/>
    <path d="M23.5055 9.38343C23.2809 9.38451 23.0775 9.24981 22.991 9.04237C22.9045 8.83494 22.9517 8.59571 23.1106 8.43677C23.2695 8.27783 23.5088 8.23068 23.7162 8.31716C23.9236 8.40363 24.0583 8.60703 24.0573 8.83171C24.0548 9.13532 23.8091 9.38101 23.5055 9.38343Z" fill="#0569F5"/>
    <path d="M16.3336 9.93561C16.0904 9.93588 15.8756 9.77693 15.8051 9.54417C15.7345 9.31142 15.8245 9.0598 16.0268 8.92483L17.6819 7.82138C17.9354 7.6522 18.2781 7.72063 18.4473 7.97413C18.6165 8.22763 18.5481 8.57031 18.2946 8.73949L16.6394 9.84293C16.5489 9.90328 16.4425 9.93561 16.3336 9.93561Z" fill="#0569F5"/>
    <path d="M16.3335 9.93561C16.2247 9.93561 16.1183 9.90328 16.0277 9.84293L14.3726 8.73949C14.1191 8.57031 14.0506 8.22763 14.2198 7.97413C14.389 7.72063 14.7317 7.6522 14.9852 7.82138L16.6403 8.92483C16.8427 9.0598 16.9326 9.31142 16.8621 9.54417C16.7915 9.77693 16.5768 9.93588 16.3335 9.93561Z" fill="#0569F5"/>
    <path d="M12.4717 19.3142C12.4717 17.1811 14.2007 15.4521 16.3337 15.4521C18.4668 15.4521 20.1958 17.1811 20.1958 19.3142H12.4717Z" fill="#3E434F"/>
  </g>
  <defs>
    <clipPath id="clip0_2186_8646">
      <rect width="32" height="32" fill="white" transform="translate(0.333008 0.555664)"/>
    </clipPath>
  </defs>
</svg>