<svg xmlns="http://www.w3.org/2000/svg" width="12" height="13" viewBox="0 0 12 13" fill="none">
  <g clip-path="url(#clip0_88_1378)">
    <path d="M11.1818 5.40909H7.09088V1.31818C7.09088 0.866544 6.72433 0.5 6.27269 0.5H5.72727C5.27564 0.5 4.90909 0.866544 4.90909 1.31818V5.40909H0.818182C0.366544 5.40909 0 5.77564 0 6.22727V6.77269C0 7.22433 0.366544 7.59088 0.818182 7.59088H4.90909V11.6818C4.90909 12.1334 5.27564 12.5 5.72727 12.5H6.27269C6.72433 12.5 7.09088 12.1334 7.09088 11.6818V7.59088H11.1818C11.6334 7.59088 12 7.22433 12 6.77269V6.22727C12 5.77564 11.6334 5.40909 11.1818 5.40909Z" fill="white"/>
  </g>
  <defs>
    <clipPath id="clip0_88_1378">
      <rect width="12" height="12" fill="white" transform="translate(0 0.5)"/>
    </clipPath>
  </defs>
</svg>