<svg xmlns="http://www.w3.org/2000/svg" width="16" height="16" viewBox="0 0 16 16" fill="none">
  <path d="M13.9994 8.00028C13.9994 8.13289 13.9467 8.26006 13.853 8.35383C13.7592 8.4476 13.632 8.50028 13.4994 8.50028H3.70629L7.35317 12.1465C7.39962 12.193 7.43647 12.2481 7.46161 12.3088C7.48675 12.3695 7.49969 12.4346 7.49969 12.5003C7.49969 12.566 7.48675 12.631 7.46161 12.6917C7.43647 12.7524 7.39962 12.8076 7.35317 12.854C7.30671 12.9005 7.25156 12.9373 7.19086 12.9625C7.13017 12.9876 7.06511 13.0006 6.99942 13.0006C6.93372 13.0006 6.86866 12.9876 6.80797 12.9625C6.74727 12.9373 6.69212 12.9005 6.64567 12.854L2.14567 8.35403C2.09918 8.30759 2.0623 8.25245 2.03714 8.19175C2.01197 8.13105 1.99902 8.06599 1.99902 8.00028C1.99902 7.93457 2.01197 7.86951 2.03714 7.80881C2.0623 7.74811 2.09918 7.69297 2.14567 7.64653L6.64567 3.14653C6.73949 3.05271 6.86673 3 6.99942 3C7.1321 3 7.25935 3.05271 7.35317 3.14653C7.44699 3.24035 7.49969 3.3676 7.49969 3.50028C7.49969 3.63296 7.44699 3.76021 7.35317 3.85403L3.70629 7.50028H13.4994C13.632 7.50028 13.7592 7.55296 13.853 7.64673C13.9467 7.74049 13.9994 7.86767 13.9994 8.00028Z" fill="#E47078"/>
</svg>